Shrikhand Gujarati-Regular.ufo
<glyph name="comma" format="1">
  <advance width="332"/>
  <unicode hex="002C"/>
  <outline>
    <contour>
      <point x="60" y="289"/>
      <point x="-3" y="203"/>
      <point x="-7" y="128" type="curve" smooth="yes"/>
      <point x="-12" y="31"/>
      <point x="57" y="12"/>
      <point x="56" y="-20" type="curve" smooth="yes"/>
      <point x="54" y="-59"/>
      <point x="-29" y="-111"/>
      <point x="-31" y="-140" type="curve" smooth="yes"/>
      <point x="-31" y="-152"/>
      <point x="-22" y="-160"/>
      <point x="-1" y="-160" type="curve" smooth="yes"/>
      <point x="96" y="-160"/>
      <point x="270" y="-17"/>
      <point x="278" y="144" type="curve" smooth="yes"/>
      <point x="283" y="230"/>
      <point x="229" y="289"/>
      <point x="153" y="289" type="curve" smooth="yes"/>
    </contour>
  </outline>
</glyph>
<glyph name="period" format="1">
  <advance width="335"/>
  <unicode hex="002E"/>
  <outline>
    <contour>
      <point x="55" y="289"/>
      <point x="-10" y="203"/>
      <point x="-10" y="128" type="curve" smooth="yes"/>
      <point x="-10" y="54"/>
      <point x="46" y="-4"/>
      <point x="122" y="-4" type="curve" smooth="yes"/>
      <point x="219" y="-4"/>
      <point x="285" y="80"/>
      <point x="285" y="159" type="curve" smooth="yes"/>
      <point x="285" y="232"/>
      <point x="228" y="289"/>
      <point x="152" y="289" type="curve" smooth="yes"/>
    </contour>
  </outline>
</glyph>
<glyph name="A" format="1">
  <advance width="1110"/>
  <unicode hex="0041"/>
  <outline>
    <contour>
      <point x="246" y="229" type="line"/>
      <point x="696" y="229" type="line"/>
      <point x="696" y="364" type="line"/>
      <point x="246" y="364" type="line"/>
    </contour>
    <contour>
      <point x="30" y="94"/>
      <point x="-24" y="98"/>
      <point x="-35" y="57" type="curve" smooth="yes"/>
      <point x="-43" y="27"/>
      <point x="-22" y="0"/>
      <point x="29" y="0" type="curve" smooth="yes"/>
      <point x="203" y="0" type="line" smooth="yes"/>
      <point x="264" y="0"/>
      <point x="291" y="14"/>
      <point x="297" y="45" type="curve" smooth="yes"/>
      <point x="304" y="83"/>
      <point x="231" y="94"/>
      <point x="262" y="148" type="curve" smooth="yes"/>
      <point x="618" y="772" type="line"/>
      <point x="561" y="772" type="line"/>
      <point x="608" y="166" type="line" smooth="yes"/>
      <point x="613" y="99"/>
      <point x="551" y="92"/>
      <point x="550" y="51" type="curve" smooth="yes"/>
      <point x="549" y="20"/>
      <point x="573" y="1"/>
      <point x="626" y="1" type="curve" smooth="yes"/>
      <point x="976" y="1" type="line" smooth="yes"/>
      <point x="1037" y="1"/>
      <point x="1057" y="21"/>
      <point x="1055" y="53" type="curve" smooth="yes"/>
      <point x="1053" y="91"/>
      <point x="981" y="92"/>
      <point x="971" y="169" type="curve" smooth="yes"/>
      <point x="882" y="858" type="line" smooth="yes"/>
      <point x="874" y="920"/>
      <point x="840" y="952"/>
      <point x="777" y="952" type="curve" smooth="yes"/>
      <point x="622" y="952" type="line" smooth="yes"/>
      <point x="566" y="952"/>
      <point x="533" y="930"/>
      <point x="503" y="881" type="curve" smooth="yes"/>
      <point x="69" y="158" type="line" smooth="yes"/>
    </contour>
  </outline>
</glyph>
<glyph name="B" format="1">
  <advance width="1070"/>
  <unicode hex="0042"/>
  <outline>
    <contour>
      <point x="311" y="952" type="line" smooth="yes"/>
      <point x="260" y="952"/>
      <point x="234" y="943"/>
      <point x="225" y="917" type="curve" smooth="yes"/>
      <point x="208" y="869"/>
      <point x="273" y="870"/>
      <point x="247" y="784" type="curve" smooth="yes"/>
      <point x="62" y="168" type="line" smooth="yes"/>
      <point x="36" y="83"/>
      <point x="-17" y="99"/>
      <point x="-36" y="55" type="curve" smooth="yes"/>
      <point x="-51" y="22"/>
      <point x="-30" y="0"/>
      <point x="21" y="0" type="curve" smooth="yes"/>
      <point x="604" y="0" type="line" smooth="yes"/>
      <point x="846" y="0"/>
      <point x="992" y="72"/>
      <point x="1041" y="228" type="curve" smooth="yes"/>
      <point x="1074" y="334"/>
      <point x="1041" y="424"/>
      <point x="891" y="474" type="curve"/>
      <point x="1050" y="507"/>
      <point x="1104" y="551"/>
      <point x="1128" y="634" type="curve" smooth="yes"/>
      <point x="1172" y="787"/>
      <point x="1088" y="952"/>
      <point x="817" y="952" type="curve" smooth="yes"/>
    </contour>
    <contour>
      <point x="762" y="566"/>
      <point x="724" y="555"/>
      <point x="661" y="555" type="curve" smooth="yes"/>
      <point x="538" y="555" type="line"/>
      <point x="613" y="807" type="line"/>
      <point x="734" y="807" type="line" smooth="yes"/>
      <point x="797" y="807"/>
      <point x="810" y="720"/>
      <point x="786" y="643" type="curve" smooth="yes"/>
    </contour>
    <contour>
      <point x="676" y="178"/>
      <point x="625" y="145"/>
      <point x="555" y="145" type="curve" smooth="yes"/>
      <point x="416" y="145" type="line"/>
      <point x="494" y="410" type="line"/>
      <point x="633" y="410" type="line" smooth="yes"/>
      <point x="703" y="410"/>
      <point x="724" y="339"/>
      <point x="700" y="258" type="curve" smooth="yes"/>
    </contour>
  </outline>
</glyph>
<glyph name="E" format="1">
  <advance width="976"/>
  <unicode hex="0045"/>
  <outline>
    <contour>
      <point x="36" y="83"/>
      <point x="-17" y="99"/>
      <point x="-36" y="55" type="curve" smooth="yes"/>
      <point x="-51" y="22"/>
      <point x="-30" y="0"/>
      <point x="21" y="0" type="curve" smooth="yes"/>
      <point x="726" y="0" type="line" smooth="yes"/>
      <point x="791" y="0"/>
      <point x="834" y="25"/>
      <point x="854" y="84" type="curve" smooth="yes"/>
      <point x="913" y="262" type="line" smooth="yes"/>
      <point x="930" y="314"/>
      <point x="924" y="326"/>
      <point x="899" y="326" type="curve" smooth="yes"/>
      <point x="873" y="326"/>
      <point x="838" y="312"/>
      <point x="810" y="273" type="curve" smooth="yes"/>
      <point x="746" y="186" type="line" smooth="yes"/>
      <point x="724" y="155"/>
      <point x="705" y="145"/>
      <point x="676" y="145" type="curve" smooth="yes"/>
      <point x="416" y="145" type="line"/>
      <point x="494" y="410" type="line"/>
      <point x="607" y="410" type="line" smooth="yes"/>
      <point x="629" y="410"/>
      <point x="638" y="400"/>
      <point x="640" y="377" type="curve" smooth="yes"/>
      <point x="643" y="344" type="line" smooth="yes"/>
      <point x="646" y="306"/>
      <point x="667" y="296"/>
      <point x="691" y="296" type="curve" smooth="yes"/>
      <point x="714" y="296"/>
      <point x="730" y="306"/>
      <point x="745" y="349" type="curve" smooth="yes"/>
      <point x="827" y="590" type="line" smooth="yes"/>
      <point x="840" y="628"/>
      <point x="827" y="647"/>
      <point x="795" y="647" type="curve" smooth="yes"/>
      <point x="765" y="647"/>
      <point x="743" y="635"/>
      <point x="721" y="611" type="curve" smooth="yes"/>
      <point x="687" y="575" type="line" smooth="yes"/>
      <point x="672" y="559"/>
      <point x="659" y="555"/>
      <point x="644" y="555" type="curve" smooth="yes"/>
      <point x="538" y="555" type="line"/>
      <point x="614" y="807" type="line"/>
      <point x="877" y="807" type="line" smooth="yes"/>
      <point x="906" y="807"/>
      <point x="918" y="797"/>
      <point x="919" y="766" type="curve" smooth="yes"/>
      <point x="923" y="679" type="line" smooth="yes"/>
      <point x="925" y="640"/>
      <point x="950" y="626"/>
      <point x="976" y="626" type="curve" smooth="yes"/>
      <point x="1001" y="626"/>
      <point x="1016" y="638"/>
      <point x="1034" y="690" type="curve" smooth="yes"/>
      <point x="1096" y="868" type="line" smooth="yes"/>
      <point x="1116" y="927"/>
      <point x="1090" y="952"/>
      <point x="1025" y="952" type="curve" smooth="yes"/>
      <point x="312" y="952" type="line" smooth="yes"/>
      <point x="261" y="952"/>
      <point x="235" y="943"/>
      <point x="226" y="917" type="curve" smooth="yes"/>
      <point x="209" y="869"/>
      <point x="274" y="870"/>
      <point x="248" y="784" type="curve"/>
      <point x="62" y="168" type="line" smooth="yes"/>
    </contour>
  </outline>
</glyph>
<glyph name="F" format="1">
  <advance width="946"/>
  <unicode hex="0046"/>
  <outline>
    <contour>
      <point x="1106" y="868" type="line" smooth="yes"/>
      <point x="1126" y="927"/>
      <point x="1100" y="952"/>
      <point x="1035" y="952" type="curve" smooth="yes"/>
      <point x="312" y="952" type="line" smooth="yes"/>
      <point x="261" y="952"/>
      <point x="235" y="943"/>
      <point x="226" y="917" type="curve" smooth="yes"/>
      <point x="209" y="869"/>
      <point x="274" y="870"/>
      <point x="248" y="784" type="curve" smooth="yes"/>
      <point x="62" y="168" type="line" smooth="yes"/>
      <point x="37" y="85"/>
      <point x="-24" y="97"/>
      <point x="-36" y="51" type="curve" smooth="yes"/>
      <point x="-44" y="19"/>
      <point x="-18" y="0"/>
      <point x="31" y="0" type="curve" smooth="yes"/>
      <point x="390" y="0" type="line" smooth="yes"/>
      <point x="440" y="0"/>
      <point x="471" y="9"/>
      <point x="479" y="35" type="curve" smooth="yes"/>
      <point x="493" y="82"/>
      <point x="396" y="89"/>
      <point x="421" y="168" type="curve" smooth="yes"/>
      <point x="487" y="379" type="line"/>
      <point x="627" y="379" type="line" smooth="yes"/>
      <point x="640" y="379"/>
      <point x="651" y="369"/>
      <point x="653" y="354" type="curve" smooth="yes"/>
      <point x="663" y="299" type="line" smooth="yes"/>
      <point x="668" y="264"/>
      <point x="690" y="252"/>
      <point x="716" y="252" type="curve" smooth="yes"/>
      <point x="741" y="252"/>
      <point x="760" y="263"/>
      <point x="774" y="309" type="curve" smooth="yes"/>
      <point x="853" y="568" type="line" smooth="yes"/>
      <point x="866" y="609"/>
      <point x="851" y="629"/>
      <point x="823" y="629" type="curve" smooth="yes"/>
      <point x="795" y="629"/>
      <point x="771" y="617"/>
      <point x="744" y="588" type="curve" smooth="yes"/>
      <point x="696" y="535" type="line" smooth="yes"/>
      <point x="690" y="528"/>
      <point x="682" y="524"/>
      <point x="671" y="524" type="curve" smooth="yes"/>
      <point x="531" y="524" type="line"/>
      <point x="614" y="807" type="line"/>
      <point x="887" y="807" type="line" smooth="yes"/>
      <point x="916" y="807"/>
      <point x="928" y="797"/>
      <point x="929" y="766" type="curve" smooth="yes"/>
      <point x="933" y="679" type="line" smooth="yes"/>
      <point x="935" y="640"/>
      <point x="960" y="626"/>
      <point x="986" y="626" type="curve" smooth="yes"/>
      <point x="1011" y="626"/>
      <point x="1026" y="638"/>
      <point x="1044" y="690" type="curve" smooth="yes"/>
    </contour>
  </outline>
</glyph>
<glyph name="H" format="1">
  <advance width="1209"/>
  <unicode hex="0048"/>
  <outline>
    <contour>
      <point x="318" y="952" type="line" smooth="yes"/>
      <point x="267" y="952"/>
      <point x="241" y="943"/>
      <point x="232" y="917" type="curve" smooth="yes"/>
      <point x="215" y="869"/>
      <point x="280" y="870"/>
      <point x="254" y="784" type="curve" smooth="yes"/>
      <point x="69" y="170" type="line" smooth="yes"/>
      <point x="43" y="85"/>
      <point x="-10" y="101"/>
      <point x="-29" y="57" type="curve" smooth="yes"/>
      <point x="-44" y="24"/>
      <point x="-23" y="2"/>
      <point x="28" y="2" type="curve" smooth="yes"/>
      <point x="364" y="2" type="line" smooth="yes"/>
      <point x="415" y="2"/>
      <point x="441" y="11"/>
      <point x="450" y="37" type="curve" smooth="yes"/>
      <point x="467" y="85"/>
      <point x="402" y="84"/>
      <point x="428" y="170" type="curve" smooth="yes"/>
      <point x="613" y="784" type="line" smooth="yes"/>
      <point x="639" y="869"/>
      <point x="692" y="853"/>
      <point x="711" y="897" type="curve" smooth="yes"/>
      <point x="726" y="930"/>
      <point x="705" y="952"/>
      <point x="654" y="952" type="curve" smooth="yes"/>
    </contour>
    <contour>
      <point x="958" y="952" type="line" smooth="yes"/>
      <point x="907" y="952"/>
      <point x="881" y="943"/>
      <point x="872" y="917" type="curve" smooth="yes"/>
      <point x="855" y="869"/>
      <point x="920" y="870"/>
      <point x="894" y="784" type="curve" smooth="yes"/>
      <point x="709" y="170" type="line" smooth="yes"/>
      <point x="683" y="85"/>
      <point x="630" y="101"/>
      <point x="611" y="57" type="curve" smooth="yes"/>
      <point x="596" y="24"/>
      <point x="617" y="2"/>
      <point x="668" y="2" type="curve" smooth="yes"/>
      <point x="1004" y="2" type="line" smooth="yes"/>
      <point x="1055" y="2"/>
      <point x="1081" y="11"/>
      <point x="1090" y="37" type="curve" smooth="yes"/>
      <point x="1107" y="85"/>
      <point x="1042" y="84"/>
      <point x="1068" y="170" type="curve" smooth="yes"/>
      <point x="1253" y="784" type="line" smooth="yes"/>
      <point x="1279" y="869"/>
      <point x="1332" y="853"/>
      <point x="1351" y="897" type="curve" smooth="yes"/>
      <point x="1366" y="930"/>
      <point x="1345" y="952"/>
      <point x="1294" y="952" type="curve" smooth="yes"/>
    </contour>
    <contour>
      <point x="393" y="405" type="line"/>
      <point x="873" y="405" type="line"/>
      <point x="881" y="550" type="line"/>
      <point x="401" y="550" type="line"/>
    </contour>
  </outline>
</glyph>
<glyph name="I" format="1">
  <advance width="545"/>
  <unicode hex="0049"/>
  <outline>
    <contour>
      <point x="311" y="952" type="line" smooth="yes"/>
      <point x="260" y="952"/>
      <point x="234" y="943"/>
      <point x="225" y="917" type="curve" smooth="yes"/>
      <point x="208" y="869"/>
      <point x="273" y="870"/>
      <point x="247" y="784" type="curve" smooth="yes"/>
      <point x="62" y="170" type="line" smooth="yes"/>
      <point x="36" y="85"/>
      <point x="-17" y="101"/>
      <point x="-36" y="57" type="curve" smooth="yes"/>
      <point x="-51" y="24"/>
      <point x="-30" y="2"/>
      <point x="21" y="2" type="curve" smooth="yes"/>
      <point x="357" y="2" type="line" smooth="yes"/>
      <point x="408" y="2"/>
      <point x="434" y="11"/>
      <point x="443" y="37" type="curve" smooth="yes"/>
      <point x="460" y="85"/>
      <point x="395" y="84"/>
      <point x="421" y="170" type="curve" smooth="yes"/>
      <point x="606" y="784" type="line" smooth="yes"/>
      <point x="632" y="869"/>
      <point x="685" y="853"/>
      <point x="704" y="897" type="curve" smooth="yes"/>
      <point x="719" y="930"/>
      <point x="698" y="952"/>
      <point x="647" y="952" type="curve" smooth="yes"/>
    </contour>
  </outline>
</glyph>
<glyph name="K" format="1">
  <advance width="1096"/>
  <unicode hex="004B"/>
  <outline>
    <contour>
      <point x="496" y="444" type="line"/>
      <point x="579" y="133" type="line" smooth="yes"/>
      <point x="604" y="40"/>
      <point x="650" y="1"/>
      <point x="749" y="1" type="curve" smooth="yes"/>
      <point x="965" y="1" type="line" smooth="yes"/>
      <point x="1026" y="1"/>
      <point x="1046" y="21"/>
      <point x="1044" y="53" type="curve" smooth="yes"/>
      <point x="1042" y="91"/>
      <point x="963" y="96"/>
      <point x="925" y="195" type="curve" smooth="yes"/>
      <point x="780" y="575" type="line"/>
    </contour>
    <contour>
      <point x="1056" y="758" type="line" smooth="yes"/>
      <point x="1146" y="843"/>
      <point x="1209" y="862"/>
      <point x="1224" y="900" type="curve" smooth="yes"/>
      <point x="1237" y="932"/>
      <point x="1224" y="952"/>
      <point x="1163" y="952" type="curve" smooth="yes"/>
      <point x="1083" y="952" type="line" smooth="yes"/>
      <point x="984" y="952"/>
      <point x="944" y="898"/>
      <point x="867" y="820" type="curve" smooth="yes"/>
      <point x="496" y="444" type="line"/>
      <point x="727" y="447" type="line"/>
    </contour>
    <component base="I"/>
  </outline>
</glyph>
<glyph name="L" format="1">
  <advance width="695"/>
  <unicode hex="004C"/>
  <outline>
    <contour>
      <point x="306" y="902"/>
      <point x="268" y="876"/>
      <point x="241" y="791" type="curve" smooth="yes"/>
      <point x="34" y="147" type="line" smooth="yes"/>
      <point x="5" y="57"/>
      <point x="66" y="0"/>
      <point x="186" y="0" type="curve" smooth="yes"/>
      <point x="565" y="0" type="line" smooth="yes"/>
      <point x="646" y="0"/>
      <point x="681" y="150"/>
      <point x="601" y="150" type="curve" smooth="yes"/>
      <point x="376" y="150" type="line"/>
      <point x="570" y="755" type="line" smooth="yes"/>
      <point x="599" y="845"/>
      <point x="554" y="902"/>
      <point x="418" y="902" type="curve" smooth="yes"/>
    </contour>
  </outline>
</glyph>
<glyph name="M" format="1">
  <advance width="1474"/>
  <unicode hex="004D"/>
  <outline>
    <contour>
      <point x="609" y="0"/>
      <point x="629" y="13"/>
      <point x="652" y="42" type="curve" smooth="yes"/>
      <point x="1289" y="853" type="line"/>
      <point x="1176" y="784" type="line"/>
      <point x="991" y="170" type="line" smooth="yes"/>
      <point x="965" y="85"/>
      <point x="912" y="101"/>
      <point x="893" y="57" type="curve" smooth="yes"/>
      <point x="878" y="24"/>
      <point x="899" y="2"/>
      <point x="950" y="2" type="curve" smooth="yes"/>
      <point x="1286" y="2" type="line" smooth="yes"/>
      <point x="1337" y="2"/>
      <point x="1363" y="11"/>
      <point x="1372" y="37" type="curve" smooth="yes"/>
      <point x="1389" y="85"/>
      <point x="1324" y="84"/>
      <point x="1350" y="170" type="curve" smooth="yes"/>
      <point x="1535" y="784" type="line" smooth="yes"/>
      <point x="1561" y="869"/>
      <point x="1614" y="853"/>
      <point x="1633" y="897" type="curve" smooth="yes"/>
      <point x="1648" y="930"/>
      <point x="1627" y="952"/>
      <point x="1576" y="952" type="curve" smooth="yes"/>
      <point x="1261" y="952" type="line" smooth="yes"/>
      <point x="1189" y="952"/>
      <point x="1145" y="942"/>
      <point x="1093" y="876" type="curve" smooth="yes"/>
      <point x="692" y="368" type="line"/>
      <point x="774" y="391" type="line"/>
      <point x="667" y="868" type="line" smooth="yes"/>
      <point x="654" y="927"/>
      <point x="631" y="952"/>
      <point x="572" y="952" type="curve" smooth="yes"/>
      <point x="311" y="952" type="line" smooth="yes"/>
      <point x="260" y="952"/>
      <point x="234" y="943"/>
      <point x="225" y="917" type="curve" smooth="yes"/>
      <point x="208" y="869"/>
      <point x="273" y="870"/>
      <point x="247" y="784" type="curve" smooth="yes"/>
      <point x="62" y="170" type="line" smooth="yes"/>
      <point x="36" y="85"/>
      <point x="-17" y="101"/>
      <point x="-36" y="57" type="curve" smooth="yes"/>
      <point x="-51" y="24"/>
      <point x="-30" y="2"/>
      <point x="21" y="2" type="curve" smooth="yes"/>
      <point x="192" y="2" type="line" smooth="yes"/>
      <point x="243" y="2"/>
      <point x="269" y="11"/>
      <point x="278" y="37" type="curve" smooth="yes"/>
      <point x="295" y="85"/>
      <point x="230" y="84"/>
      <point x="256" y="170" type="curve" smooth="yes"/>
      <point x="417" y="704" type="line"/>
      <point x="393" y="704" type="line"/>
      <point x="533" y="62" type="line" smooth="yes"/>
      <point x="542" y="20"/>
      <point x="558" y="0"/>
      <point x="583" y="0" type="curve" smooth="yes"/>
    </contour>
  </outline>
</glyph>
<glyph name="O" format="1">
  <advance width="1098"/>
  <unicode hex="004F"/>
  <outline>
    <contour>
      <point x="395" y="965"/>
      <point x="183" y="799"/>
      <point x="98" y="480" type="curve" smooth="yes"/>
      <point x="11" y="159"/>
      <point x="134" y="-9"/>
      <point x="475" y="-9" type="curve" smooth="yes"/>
      <point x="815" y="-9"/>
      <point x="1029" y="159"/>
      <point x="1115" y="480" type="curve" smooth="yes"/>
      <point x="1200" y="799"/>
      <point x="1076" y="965"/>
      <point x="736" y="965" type="curve" smooth="yes"/>
    </contour>
    <contour>
      <point x="780" y="812"/>
      <point x="806" y="724"/>
      <point x="738" y="470" type="curve" smooth="yes"/>
      <point x="671" y="219"/>
      <point x="598" y="132"/>
      <point x="513" y="132" type="curve" smooth="yes"/>
      <point x="428" y="132"/>
      <point x="403" y="219"/>
      <point x="470" y="470" type="curve" smooth="yes"/>
      <point x="538" y="724"/>
      <point x="610" y="812"/>
      <point x="695" y="812" type="curve" smooth="yes"/>
    </contour>
  </outline>
</glyph>
<glyph name="P" format="1">
  <advance width="1012"/>
  <unicode hex="0050"/>
  <outline>
    <contour>
      <point x="311" y="952" type="line" smooth="yes"/>
      <point x="260" y="952"/>
      <point x="234" y="943"/>
      <point x="225" y="917" type="curve" smooth="yes"/>
      <point x="208" y="869"/>
      <point x="273" y="870"/>
      <point x="247" y="784" type="curve" smooth="yes"/>
      <point x="62" y="168" type="line" smooth="yes"/>
      <point x="37" y="85"/>
      <point x="-24" y="97"/>
      <point x="-36" y="51" type="curve" smooth="yes"/>
      <point x="-44" y="19"/>
      <point x="-18" y="0"/>
      <point x="31" y="0" type="curve" smooth="yes"/>
      <point x="390" y="0" type="line" smooth="yes"/>
      <point x="440" y="0"/>
      <point x="471" y="9"/>
      <point x="479" y="35" type="curve" smooth="yes"/>
      <point x="493" y="82"/>
      <point x="397" y="89"/>
      <point x="421" y="168" type="curve" smooth="yes"/>
      <point x="473" y="342" type="line"/>
      <point x="641" y="342" type="line" smooth="yes"/>
      <point x="873" y="342"/>
      <point x="1056" y="425"/>
      <point x="1117" y="622" type="curve" smooth="yes"/>
      <point x="1174" y="805"/>
      <point x="1057" y="952"/>
      <point x="805" y="952" type="curve" smooth="yes"/>
    </contour>
    <contour>
      <point x="749" y="548"/>
      <point x="696" y="492"/>
      <point x="580" y="492" type="curve" smooth="yes"/>
      <point x="518" y="492" type="line"/>
      <point x="612" y="802" type="line"/>
      <point x="674" y="802" type="line" smooth="yes"/>
      <point x="761" y="802"/>
      <point x="809" y="747"/>
      <point x="779" y="647" type="curve" smooth="yes"/>
    </contour>
  </outline>
</glyph>
<glyph name="R" format="1">
  <advance width="1125"/>
  <unicode hex="0052"/>
  <outline>
    <contour>
      <point x="311" y="952" type="line" smooth="yes"/>
      <point x="260" y="952"/>
      <point x="234" y="943"/>
      <point x="225" y="917" type="curve" smooth="yes"/>
      <point x="208" y="869"/>
      <point x="273" y="870"/>
      <point x="247" y="784" type="curve" smooth="yes"/>
      <point x="62" y="168" type="line" smooth="yes"/>
      <point x="37" y="85"/>
      <point x="-24" y="97"/>
      <point x="-36" y="51" type="curve" smooth="yes"/>
      <point x="-44" y="19"/>
      <point x="-18" y="0"/>
      <point x="31" y="0" type="curve" smooth="yes"/>
      <point x="390" y="0" type="line" smooth="yes"/>
      <point x="440" y="0"/>
      <point x="471" y="9"/>
      <point x="479" y="35" type="curve" smooth="yes"/>
      <point x="493" y="82"/>
      <point x="398" y="90"/>
      <point x="421" y="168" type="curve" smooth="yes"/>
      <point x="483" y="376" type="line"/>
      <point x="625" y="376" type="line" smooth="yes"/>
      <point x="883" y="376"/>
      <point x="1070" y="460"/>
      <point x="1121" y="638" type="curve" smooth="yes"/>
      <point x="1173" y="818"/>
      <point x="1057" y="952"/>
      <point x="783" y="952" type="curve" smooth="yes"/>
    </contour>
    <contour>
      <point x="755" y="557"/>
      <point x="702" y="518"/>
      <point x="586" y="518" type="curve" smooth="yes"/>
      <point x="524" y="518" type="line"/>
      <point x="612" y="802" type="line"/>
      <point x="674" y="802" type="line" smooth="yes"/>
      <point x="761" y="802"/>
      <point x="815" y="756"/>
      <point x="785" y="656" type="curve" smooth="yes"/>
    </contour>
    <contour>
      <point x="518" y="444" type="line"/>
      <point x="601" y="133" type="line" smooth="yes"/>
      <point x="626" y="40"/>
      <point x="672" y="1"/>
      <point x="771" y="1" type="curve" smooth="yes"/>
      <point x="987" y="1" type="line" smooth="yes"/>
      <point x="1048" y="1"/>
      <point x="1068" y="21"/>
      <point x="1066" y="53" type="curve" smooth="yes"/>
      <point x="1064" y="91"/>
      <point x="984" y="96"/>
      <point x="947" y="195" type="curve" smooth="yes"/>
      <point x="852" y="444" type="line"/>
    </contour>
  </outline>
</glyph>
<glyph name="S" format="1">
  <advance width="933"/>
  <unicode hex="0053"/>
  <outline>
    <contour>
      <point x="335" y="959"/>
      <point x="174" y="858"/>
      <point x="153" y="698" type="curve" smooth="yes"/>
      <point x="120" y="450"/>
      <point x="560" y="349"/>
      <point x="551" y="197" type="curve" smooth="yes"/>
      <point x="548" y="146"/>
      <point x="438" y="138"/>
      <point x="378" y="136" type="curve" smooth="yes"/>
      <point x="362" y="134"/>
      <point x="347" y="138"/>
      <point x="332" y="143" type="curve"/>
      <point x="368" y="279"/>
      <point x="304" y="389"/>
      <point x="168" y="389" type="curve" smooth="yes"/>
      <point x="69" y="389"/>
      <point x="-26" y="332"/>
      <point x="-26" y="216" type="curve" smooth="yes"/>
      <point x="-26" y="90"/>
      <point x="122" y="-10"/>
      <point x="412" y="-10" type="curve" smooth="yes"/>
      <point x="775" y="-10"/>
      <point x="896" y="99"/>
      <point x="918" y="250" type="curve" smooth="yes"/>
      <point x="957" y="500"/>
      <point x="475" y="602"/>
      <point x="475" y="751" type="curve" smooth="yes"/>
      <point x="475" y="815"/>
      <point x="575" y="837"/>
      <point x="618" y="837" type="curve" smooth="yes"/>
      <point x="627" y="837"/>
      <point x="638" y="835"/>
      <point x="646" y="832" type="curve"/>
      <point x="607" y="694"/>
      <point x="685" y="608"/>
      <point x="819" y="608" type="curve" smooth="yes"/>
      <point x="939" y="608"/>
      <point x="1008" y="674"/>
      <point x="1008" y="745" type="curve" smooth="yes"/>
      <point x="1008" y="876"/>
      <point x="835" y="959"/>
      <point x="582" y="959" type="curve" smooth="yes"/>
    </contour>
  </outline>
</glyph>
<glyph name="T" format="1">
  <advance width="1085"/>
  <unicode hex="0054"/>
  <outline>
    <contour>
      <point x="308" y="952" type="line" smooth="yes"/>
      <point x="243" y="952"/>
      <point x="195" y="928"/>
      <point x="182" y="858" type="curve" smooth="yes"/>
      <point x="151" y="689" type="line" smooth="yes"/>
      <point x="143" y="644"/>
      <point x="166" y="627"/>
      <point x="191" y="626" type="curve" smooth="yes"/>
      <point x="217" y="625"/>
      <point x="240" y="636"/>
      <point x="259" y="679" type="curve" smooth="yes"/>
      <point x="298" y="766" type="line" smooth="yes"/>
      <point x="313" y="800"/>
      <point x="336" y="807"/>
      <point x="365" y="807" type="curve" smooth="yes"/>
      <point x="510" y="807" type="line"/>
      <point x="316" y="168" type="line" smooth="yes"/>
      <point x="291" y="85"/>
      <point x="230" y="97"/>
      <point x="218" y="51" type="curve" smooth="yes"/>
      <point x="210" y="19"/>
      <point x="236" y="0"/>
      <point x="285" y="0" type="curve" smooth="yes"/>
      <point x="644" y="0" type="line" smooth="yes"/>
      <point x="694" y="0"/>
      <point x="725" y="9"/>
      <point x="733" y="35" type="curve" smooth="yes"/>
      <point x="747" y="82"/>
      <point x="650" y="89"/>
      <point x="675" y="168" type="curve" smooth="yes"/>
      <point x="868" y="807" type="line"/>
      <point x="1009" y="807" type="line" smooth="yes"/>
      <point x="1038" y="807"/>
      <point x="1050" y="797"/>
      <point x="1051" y="766" type="curve" smooth="yes"/>
      <point x="1055" y="679" type="line" smooth="yes"/>
      <point x="1057" y="640"/>
      <point x="1082" y="626"/>
      <point x="1108" y="626" type="curve" smooth="yes"/>
      <point x="1133" y="626"/>
      <point x="1148" y="638"/>
      <point x="1166" y="690" type="curve" smooth="yes"/>
      <point x="1228" y="868" type="line" smooth="yes"/>
      <point x="1248" y="927"/>
      <point x="1222" y="952"/>
      <point x="1157" y="952" type="curve" smooth="yes"/>
    </contour>
  </outline>
</glyph>
<glyph name="Z" format="1">
  <advance width="820"/>
  <unicode hex="005A"/>
  <outline>
    <contour>
      <point x="316" y="905" type="line" smooth="yes"/>
      <point x="179" y="905"/>
      <point x="149" y="755"/>
      <point x="243" y="755" type="curve" smooth="yes"/>
      <point x="621" y="757" type="line"/>
      <point x="588" y="786" type="line"/>
      <point x="100" y="321" type="line" smooth="yes"/>
      <point x="-54" y="174"/>
      <point x="108" y="0"/>
      <point x="304" y="0" type="curve" smooth="yes"/>
      <point x="670" y="0" type="line" smooth="yes"/>
      <point x="840" y="0"/>
      <point x="814" y="150"/>
      <point x="720" y="150" type="curve" smooth="yes"/>
      <point x="340" y="150" type="line"/>
      <point x="352" y="120" type="line"/>
      <point x="861" y="584" type="line" smooth="yes"/>
      <point x="1015" y="731"/>
      <point x="853" y="905"/>
      <point x="657" y="905" type="curve" smooth="yes"/>
    </contour>
  </outline>
</glyph>
<glyph name="a" format="1">
  <advance width="914"/>
  <unicode hex="0061"/>
  <outline>
    <contour>
      <point x="275" y="755"/>
      <point x="183" y="674"/>
      <point x="183" y="588" type="curve" smooth="yes"/>
      <point x="183" y="531"/>
      <point x="233" y="483"/>
      <point x="330" y="483" type="curve" smooth="yes"/>
      <point x="458" y="483"/>
      <point x="506" y="580"/>
      <point x="478" y="660" type="curve"/>
      <point x="539" y="660"/>
      <point x="566" y="637"/>
      <point x="566" y="591" type="curve" smooth="yes"/>
      <point x="566" y="567"/>
      <point x="559" y="536"/>
      <point x="545" y="499" type="curve" smooth="yes"/>
      <point x="509" y="404" type="line"/>
      <point x="443" y="425"/>
      <point x="369" y="442"/>
      <point x="276" y="442" type="curve" smooth="yes"/>
      <point x="143" y="442"/>
      <point x="26" y="382"/>
      <point x="-8" y="243" type="curve" smooth="yes"/>
      <point x="-34" y="135"/>
      <point x="29" y="-4"/>
      <point x="212" y="-4" type="curve" smooth="yes"/>
      <point x="302" y="-4"/>
      <point x="381" y="35"/>
      <point x="440" y="103" type="curve"/>
      <point x="465" y="31"/>
      <point x="542" y="-4"/>
      <point x="639" y="-4" type="curve" smooth="yes"/>
      <point x="765" y="-4"/>
      <point x="865" y="88"/>
      <point x="865" y="166" type="curve" smooth="yes"/>
      <point x="865" y="182"/>
      <point x="859" y="198"/>
      <point x="849" y="198" type="curve" smooth="yes"/>
      <point x="838" y="198"/>
      <point x="830" y="168"/>
      <point x="803" y="168" type="curve" smooth="yes"/>
      <point x="787" y="168"/>
      <point x="780" y="183"/>
      <point x="787" y="206" type="curve" smooth="yes"/>
      <point x="848" y="403" type="line" smooth="yes"/>
      <point x="925" y="655"/>
      <point x="754" y="755"/>
      <point x="510" y="755" type="curve" smooth="yes"/>
    </contour>
    <contour>
      <point x="434" y="323"/>
      <point x="462" y="322"/>
      <point x="477" y="319" type="curve"/>
      <point x="445" y="234" type="line" smooth="yes"/>
      <point x="428" y="190"/>
      <point x="391" y="174"/>
      <point x="372" y="174" type="curve" smooth="yes"/>
      <point x="337" y="174"/>
      <point x="326" y="210"/>
      <point x="335" y="247" type="curve" smooth="yes"/>
      <point x="344" y="285"/>
      <point x="375" y="323"/>
      <point x="423" y="323" type="curve" smooth="yes"/>
    </contour>
  </outline>
</glyph>
<glyph name="b" format="1">
  <advance width="919"/>
  <unicode hex="0062"/>
  <outline>
    <contour>
      <point x="584" y="761"/>
      <point x="499" y="696"/>
      <point x="425" y="582" type="curve"/>
      <point x="461" y="549" type="line"/>
      <point x="481" y="578"/>
      <point x="509" y="592"/>
      <point x="530" y="592" type="curve" smooth="yes"/>
      <point x="566" y="592"/>
      <point x="591" y="548"/>
      <point x="537" y="368" type="curve" smooth="yes"/>
      <point x="478" y="173"/>
      <point x="438" y="132"/>
      <point x="397" y="132" type="curve" smooth="yes"/>
      <point x="361" y="132"/>
      <point x="336" y="157"/>
      <point x="358" y="226" type="curve"/>
      <point x="231" y="162" type="line"/>
      <point x="265" y="55"/>
      <point x="351" y="-13"/>
      <point x="497" y="-13" type="curve" smooth="yes"/>
      <point x="680" y="-13"/>
      <point x="846" y="104"/>
      <point x="914" y="360" type="curve" smooth="yes"/>
      <point x="975" y="592"/>
      <point x="879" y="761"/>
      <point x="704" y="761" type="curve" smooth="yes"/>
    </contour>
    <contour>
      <point x="560" y="845" type="line" smooth="yes"/>
      <point x="592" y="942"/>
      <point x="562" y="1024"/>
      <point x="413" y="1024" type="curve" smooth="yes"/>
      <point x="299" y="1024"/>
      <point x="164" y="987"/>
      <point x="152" y="942" type="curve" smooth="yes"/>
      <point x="139" y="895"/>
      <point x="218" y="902"/>
      <point x="196" y="833" type="curve" smooth="yes"/>
      <point x="-45" y="88" type="line" smooth="yes"/>
      <point x="-63" y="33"/>
      <point x="-36" y="0"/>
      <point x="23" y="0" type="curve" smooth="yes"/>
      <point x="86" y="0" type="line" smooth="yes"/>
      <point x="139" y="0"/>
      <point x="173" y="18"/>
      <point x="211" y="50" type="curve" smooth="yes"/>
      <point x="303" y="127" type="line" smooth="yes"/>
      <point x="316" y="138"/>
      <point x="341" y="172"/>
      <point x="367" y="253" type="curve" smooth="yes"/>
    </contour>
  </outline>
</glyph>
<glyph name="c" format="1">
  <advance width="781"/>
  <unicode hex="0063"/>
  <outline>
    <contour>
      <point x="310" y="763"/>
      <point x="134" y="652"/>
      <point x="77" y="443" type="curve" smooth="yes"/>
      <point x="-1" y="156"/>
      <point x="158" y="-4"/>
      <point x="398" y="-4" type="curve" smooth="yes"/>
      <point x="605" y="-4"/>
      <point x="749" y="140"/>
      <point x="749" y="243" type="curve" smooth="yes"/>
      <point x="749" y="257"/>
      <point x="745" y="262"/>
      <point x="734" y="262" type="curve" smooth="yes"/>
      <point x="704" y="262"/>
      <point x="651" y="213"/>
      <point x="547" y="213" type="curve" smooth="yes"/>
      <point x="401" y="213"/>
      <point x="341" y="314"/>
      <point x="407" y="480" type="curve" smooth="yes"/>
      <point x="452" y="594"/>
      <point x="531" y="648"/>
      <point x="592" y="648" type="curve"/>
      <point x="515" y="538"/>
      <point x="572" y="441"/>
      <point x="700" y="441" type="curve" smooth="yes"/>
      <point x="797" y="441"/>
      <point x="847" y="509"/>
      <point x="847" y="566" type="curve" smooth="yes"/>
      <point x="847" y="652"/>
      <point x="755" y="763"/>
      <point x="520" y="763" type="curve" smooth="yes"/>
    </contour>
  </outline>
</glyph>
<glyph name="d" format="1">
  <advance width="933"/>
  <unicode hex="0064"/>
  <outline>
    <contour>
      <point x="993" y="848" type="line" smooth="yes"/>
      <point x="1025" y="947"/>
      <point x="995" y="1027"/>
      <point x="846" y="1027" type="curve" smooth="yes"/>
      <point x="732" y="1027"/>
      <point x="597" y="990"/>
      <point x="585" y="945" type="curve" smooth="yes"/>
      <point x="572" y="898"/>
      <point x="651" y="905"/>
      <point x="629" y="836" type="curve" smooth="yes"/>
      <point x="586" y="704" type="line"/>
      <point x="543" y="740"/>
      <point x="489" y="762"/>
      <point x="403" y="762" type="curve" smooth="yes"/>
      <point x="168" y="762"/>
      <point x="6" y="510"/>
      <point x="6" y="250" type="curve" smooth="yes"/>
      <point x="6" y="96"/>
      <point x="120" y="-4"/>
      <point x="247" y="-4" type="curve" smooth="yes"/>
      <point x="320" y="-4"/>
      <point x="389" y="27"/>
      <point x="443" y="94" type="curve"/>
      <point x="467" y="36"/>
      <point x="543" y="-4"/>
      <point x="639" y="-4" type="curve" smooth="yes"/>
      <point x="765" y="-4"/>
      <point x="865" y="88"/>
      <point x="865" y="166" type="curve" smooth="yes"/>
      <point x="865" y="182"/>
      <point x="859" y="198"/>
      <point x="849" y="198" type="curve" smooth="yes"/>
      <point x="838" y="198"/>
      <point x="830" y="168"/>
      <point x="803" y="168" type="curve" smooth="yes"/>
      <point x="787" y="168"/>
      <point x="780" y="183"/>
      <point x="787" y="206" type="curve" smooth="yes"/>
    </contour>
    <contour>
      <point x="438" y="246" type="line" smooth="yes"/>
      <point x="423" y="200"/>
      <point x="406" y="182"/>
      <point x="380" y="182" type="curve" smooth="yes"/>
      <point x="345" y="182"/>
      <point x="330" y="208"/>
      <point x="330" y="260" type="curve" smooth="yes"/>
      <point x="330" y="399"/>
      <point x="422" y="627"/>
      <point x="510" y="627" type="curve" smooth="yes"/>
      <point x="533" y="627"/>
      <point x="540" y="618"/>
      <point x="554" y="604" type="curve"/>
    </contour>
  </outline>
</glyph>
<glyph name="e" format="1">
  <advance width="786"/>
  <unicode hex="0065"/>
  <outline>
    <contour>
      <point x="189" y="763"/>
      <point x="59" y="594"/>
      <point x="18" y="409" type="curve" smooth="yes"/>
      <point x="-45" y="130"/>
      <point x="130" y="-4"/>
      <point x="364" y="-4" type="curve" smooth="yes"/>
      <point x="550" y="-4"/>
      <point x="700" y="102"/>
      <point x="700" y="233" type="curve" smooth="yes"/>
      <point x="700" y="247"/>
      <point x="695" y="252"/>
      <point x="684" y="252" type="curve" smooth="yes"/>
      <point x="654" y="252"/>
      <point x="591" y="186"/>
      <point x="459" y="186" type="curve" smooth="yes"/>
      <point x="365" y="186"/>
      <point x="311" y="201"/>
      <point x="329" y="339" type="curve" smooth="yes"/>
      <point x="358" y="559"/>
      <point x="428" y="645"/>
      <point x="455" y="645" type="curve" smooth="yes"/>
      <point x="473" y="645"/>
      <point x="481" y="635"/>
      <point x="481" y="612" type="curve" smooth="yes"/>
      <point x="481" y="538"/>
      <point x="452" y="441"/>
      <point x="402" y="438" type="curve" smooth="yes"/>
      <point x="385" y="438"/>
      <point x="363" y="441"/>
      <point x="337" y="446" type="curve"/>
      <point x="315" y="363" type="line"/>
      <point x="395" y="349"/>
      <point x="486" y="345"/>
      <point x="546" y="348" type="curve" smooth="yes"/>
      <point x="736" y="357"/>
      <point x="821" y="445"/>
      <point x="815" y="572" type="curve" smooth="yes"/>
      <point x="810" y="676"/>
      <point x="718" y="763"/>
      <point x="474" y="763" type="curve" smooth="yes"/>
    </contour>
  </outline>
</glyph>
<glyph name="f" format="1">
  <advance width="542"/>
  <unicode hex="0066"/>
  <outline>
    <contour>
      <point x="400" y="1074"/>
      <point x="306" y="1015"/>
      <point x="258" y="871" type="curve" smooth="yes"/>
      <point x="213" y="737" type="line"/>
      <point x="167" y="737" type="line" smooth="yes"/>
      <point x="86" y="737"/>
      <point x="67" y="721"/>
      <point x="67" y="687" type="curve" smooth="yes"/>
      <point x="67" y="635"/>
      <point x="179" y="636"/>
      <point x="141" y="517" type="curve" smooth="yes"/>
      <point x="-25" y="0" type="line" smooth="yes"/>
      <point x="-49" y="-75"/>
      <point x="-71" y="-90"/>
      <point x="-110" y="-90" type="curve" smooth="yes"/>
      <point x="-143" y="-90"/>
      <point x="-165" y="-80"/>
      <point x="-183" y="-80" type="curve" smooth="yes"/>
      <point x="-204" y="-80"/>
      <point x="-211" y="-92"/>
      <point x="-211" y="-114" type="curve" smooth="yes"/>
      <point x="-211" y="-177"/>
      <point x="-81" y="-272"/>
      <point x="79" y="-272" type="curve" smooth="yes"/>
      <point x="205" y="-272"/>
      <point x="266" y="-214"/>
      <point x="311" y="-74" type="curve" smooth="yes"/>
      <point x="617" y="881" type="line" smooth="yes"/>
      <point x="650" y="981"/>
      <point x="776" y="899"/>
      <point x="783" y="937" type="curve" smooth="yes"/>
      <point x="790" y="975"/>
      <point x="740" y="1074"/>
      <point x="570" y="1074" type="curve" smooth="yes"/>
    </contour>
    <contour>
      <point x="397" y="634"/>
      <point x="416" y="612"/>
      <point x="461" y="612" type="curve" smooth="yes"/>
      <point x="587" y="612" type="line" smooth="yes"/>
      <point x="633" y="612"/>
      <point x="663" y="634"/>
      <point x="674" y="674" type="curve" smooth="yes"/>
      <point x="686" y="715"/>
      <point x="667" y="737"/>
      <point x="622" y="737" type="curve" smooth="yes"/>
      <point x="496" y="737" type="line" smooth="yes"/>
      <point x="451" y="737"/>
      <point x="420" y="715"/>
      <point x="408" y="674" type="curve" smooth="yes"/>
    </contour>
  </outline>
</glyph>
<glyph name="g" format="1">
  <advance width="921"/>
  <unicode hex="0067"/>
  <outline>
    <contour>
      <point x="-35" y="184"/>
      <point x="7" y="-20"/>
      <point x="243" y="-20" type="curve" smooth="yes"/>
      <point x="398" y="-20" type="line" smooth="yes"/>
      <point x="468" y="-20"/>
      <point x="479" y="-21"/>
      <point x="463" y="-68" type="curve" smooth="yes"/>
      <point x="446" y="-118"/>
      <point x="363" y="-140"/>
      <point x="292" y="-140" type="curve" smooth="yes"/>
      <point x="230" y="-140"/>
      <point x="187" y="-120"/>
      <point x="187" y="-64" type="curve" smooth="yes"/>
      <point x="187" y="-13"/>
      <point x="272" y="21"/>
      <point x="274" y="26" type="curve"/>
      <point x="106" y="86" type="line"/>
      <point x="-33" y="62"/>
      <point x="-98" y="35"/>
      <point x="-117" y="-56" type="curve" smooth="yes"/>
      <point x="-151" y="-217"/>
      <point x="37" y="-285"/>
      <point x="302" y="-285" type="curve" smooth="yes"/>
      <point x="662" y="-285"/>
      <point x="820" y="-172"/>
      <point x="820" y="-32" type="curve" smooth="yes"/>
      <point x="820" y="58"/>
      <point x="744" y="124"/>
      <point x="564" y="124" type="curve" smooth="yes"/>
      <point x="443" y="124" type="line" smooth="yes"/>
      <point x="347" y="124"/>
      <point x="275" y="110"/>
      <point x="341" y="244" type="curve"/>
      <point x="211" y="290" type="line"/>
    </contour>
    <contour>
      <point x="555" y="641"/>
      <point x="586" y="582"/>
      <point x="543" y="455" type="curve" smooth="yes"/>
      <point x="502" y="339"/>
      <point x="467" y="319"/>
      <point x="432" y="321" type="curve" smooth="yes"/>
      <point x="396" y="321"/>
      <point x="366" y="334"/>
      <point x="409" y="461" type="curve" smooth="yes"/>
      <point x="449" y="576"/>
      <point x="485" y="641"/>
      <point x="519" y="641" type="curve" smooth="yes"/>
    </contour>
    <contour>
      <point x="223" y="761"/>
      <point x="30" y="576"/>
      <point x="71" y="379" type="curve" smooth="yes"/>
      <point x="94" y="271"/>
      <point x="216" y="202"/>
      <point x="460" y="202" type="curve" smooth="yes"/>
      <point x="740" y="202"/>
      <point x="933" y="387"/>
      <point x="891" y="584" type="curve" smooth="yes"/>
      <point x="868" y="692"/>
      <point x="747" y="761"/>
      <point x="503" y="761" type="curve" smooth="yes"/>
    </contour>
    <contour>
      <point x="766" y="989"/>
      <point x="726" y="918"/>
      <point x="726" y="854" type="curve" smooth="yes"/>
      <point x="726" y="796"/>
      <point x="759" y="717"/>
      <point x="812" y="668" type="curve"/>
      <point x="877" y="622" type="line"/>
      <point x="851" y="671"/>
      <point x="834" y="748"/>
      <point x="849" y="781" type="curve"/>
      <point x="872" y="770"/>
      <point x="892" y="760"/>
      <point x="940" y="760" type="curve" smooth="yes"/>
      <point x="1015" y="760"/>
      <point x="1056" y="788"/>
      <point x="1056" y="844" type="curve" smooth="yes"/>
      <point x="1056" y="924"/>
      <point x="962" y="989"/>
      <point x="870" y="989" type="curve" smooth="yes"/>
    </contour>
  </outline>
</glyph>
<glyph name="h" format="1">
  <advance width="997"/>
  <unicode hex="0068"/>
  <outline>
    <contour>
      <point x="347" y="1027"/>
      <point x="212" y="990"/>
      <point x="200" y="945" type="curve" smooth="yes"/>
      <point x="187" y="898"/>
      <point x="266" y="905"/>
      <point x="244" y="836" type="curve" smooth="yes"/>
      <point x="24" y="152" type="line" smooth="yes"/>
      <point x="-4" y="65"/>
      <point x="-54" y="85"/>
      <point x="-67" y="44" type="curve" smooth="yes"/>
      <point x="-75" y="19"/>
      <point x="-54" y="0"/>
      <point x="-3" y="0" type="curve" smooth="yes"/>
      <point x="323" y="0" type="line" smooth="yes"/>
      <point x="384" y="0"/>
      <point x="409" y="11"/>
      <point x="417" y="35" type="curve" smooth="yes"/>
      <point x="429" y="73"/>
      <point x="356" y="68"/>
      <point x="382" y="148" type="curve" smooth="yes"/>
      <point x="608" y="848" type="line" smooth="yes"/>
      <point x="640" y="947"/>
      <point x="610" y="1027"/>
      <point x="461" y="1027" type="curve" smooth="yes"/>
    </contour>
    <contour>
      <point x="677" y="755"/>
      <point x="565" y="711"/>
      <point x="462" y="505" type="curve"/>
      <point x="475" y="435" type="line"/>
      <point x="503" y="517"/>
      <point x="548" y="542"/>
      <point x="578" y="542" type="curve" smooth="yes"/>
      <point x="607" y="542"/>
      <point x="630" y="519"/>
      <point x="611" y="472" type="curve" smooth="yes"/>
      <point x="529" y="266" type="line" smooth="yes"/>
      <point x="512" y="222"/>
      <point x="502" y="180"/>
      <point x="502" y="147" type="curve" smooth="yes"/>
      <point x="502" y="50"/>
      <point x="580" y="-13"/>
      <point x="706" y="-13" type="curve" smooth="yes"/>
      <point x="867" y="-13"/>
      <point x="952" y="79"/>
      <point x="952" y="157" type="curve" smooth="yes"/>
      <point x="952" y="173"/>
      <point x="946" y="189"/>
      <point x="936" y="189" type="curve" smooth="yes"/>
      <point x="925" y="189"/>
      <point x="917" y="159"/>
      <point x="890" y="159" type="curve" smooth="yes"/>
      <point x="874" y="159"/>
      <point x="866" y="174"/>
      <point x="874" y="197" type="curve" smooth="yes"/>
      <point x="967" y="479" type="line" smooth="yes"/>
      <point x="1019" y="635"/>
      <point x="937" y="755"/>
      <point x="791" y="755" type="curve" smooth="yes"/>
    </contour>
  </outline>
</glyph>
<glyph name="j" format="1">
  <advance width="484"/>
  <unicode hex="006A"/>
  <outline>
    <contour>
      <point x="259" y="755"/>
      <point x="124" y="718"/>
      <point x="112" y="673" type="curve" smooth="yes"/>
      <point x="99" y="626"/>
      <point x="178" y="633"/>
      <point x="156" y="564" type="curve" smooth="yes"/>
      <point x="-25" y="0" type="line" smooth="yes"/>
      <point x="-49" y="-75"/>
      <point x="-71" y="-90"/>
      <point x="-110" y="-90" type="curve" smooth="yes"/>
      <point x="-143" y="-90"/>
      <point x="-165" y="-80"/>
      <point x="-183" y="-80" type="curve" smooth="yes"/>
      <point x="-204" y="-80"/>
      <point x="-211" y="-92"/>
      <point x="-211" y="-114" type="curve" smooth="yes"/>
      <point x="-211" y="-177"/>
      <point x="-81" y="-272"/>
      <point x="79" y="-272" type="curve" smooth="yes"/>
      <point x="205" y="-272"/>
      <point x="273" y="-213"/>
      <point x="316" y="-74" type="curve" smooth="yes"/>
      <point x="520" y="576" type="line" smooth="yes"/>
      <point x="552" y="675"/>
      <point x="522" y="755"/>
      <point x="373" y="755" type="curve" smooth="yes"/>
    </contour>
    <component base="period" xOffset="330" yOffset="787"/>
  </outline>
</glyph>
<glyph name="k" format="1">
  <advance width="988"/>
  <unicode hex="006B"/>
  <outline>
    <contour>
      <point x="347" y="1027"/>
      <point x="212" y="990"/>
      <point x="200" y="945" type="curve" smooth="yes"/>
      <point x="187" y="898"/>
      <point x="266" y="905"/>
      <point x="244" y="836" type="curve" smooth="yes"/>
      <point x="24" y="152" type="line" smooth="yes"/>
      <point x="-4" y="65"/>
      <point x="-54" y="85"/>
      <point x="-67" y="44" type="curve" smooth="yes"/>
      <point x="-75" y="19"/>
      <point x="-54" y="0"/>
      <point x="-3" y="0" type="curve" smooth="yes"/>
      <point x="323" y="0" type="line" smooth="yes"/>
      <point x="384" y="0"/>
      <point x="409" y="11"/>
      <point x="417" y="35" type="curve" smooth="yes"/>
      <point x="429" y="73"/>
      <point x="356" y="68"/>
      <point x="382" y="148" type="curve" smooth="yes"/>
      <point x="607" y="848" type="line" smooth="yes"/>
      <point x="639" y="947"/>
      <point x="610" y="1027"/>
      <point x="461" y="1027" type="curve" smooth="yes"/>
    </contour>
    <contour>
      <point x="466" y="440" type="line"/>
      <point x="411" y="358" type="line"/>
      <point x="477" y="358" type="line" smooth="yes"/>
      <point x="526" y="358"/>
      <point x="537" y="338"/>
      <point x="518" y="285" type="curve" smooth="yes"/>
      <point x="492" y="214" type="line" smooth="yes"/>
      <point x="443" y="81"/>
      <point x="545" y="-13"/>
      <point x="688" y="-13" type="curve" smooth="yes"/>
      <point x="849" y="-13"/>
      <point x="926" y="79"/>
      <point x="926" y="157" type="curve" smooth="yes"/>
      <point x="926" y="173"/>
      <point x="920" y="189"/>
      <point x="910" y="189" type="curve" smooth="yes"/>
      <point x="899" y="189"/>
      <point x="891" y="159"/>
      <point x="864" y="159" type="curve" smooth="yes"/>
      <point x="848" y="159"/>
      <point x="840" y="172"/>
      <point x="848" y="197" type="curve" smooth="yes"/>
      <point x="862" y="241" type="line" smooth="yes"/>
      <point x="898" y="353"/>
      <point x="841" y="440"/>
      <point x="635" y="440" type="curve" smooth="yes"/>
    </contour>
    <contour>
      <point x="723" y="755"/>
      <point x="655" y="670"/>
      <point x="609" y="538" type="curve" smooth="yes"/>
      <point x="594" y="496"/>
      <point x="573" y="471"/>
      <point x="533" y="471" type="curve" smooth="yes"/>
      <point x="469" y="471" type="line"/>
      <point x="429" y="400" type="line"/>
      <point x="563" y="400" type="line" smooth="yes"/>
      <point x="635" y="400"/>
      <point x="688" y="415"/>
      <point x="711" y="488" type="curve" smooth="yes"/>
      <point x="729" y="546"/>
      <point x="741" y="558"/>
      <point x="759" y="555" type="curve"/>
      <point x="756" y="509"/>
      <point x="796" y="456"/>
      <point x="881" y="456" type="curve" smooth="yes"/>
      <point x="961" y="456"/>
      <point x="1019" y="500"/>
      <point x="1032" y="577" type="curve" smooth="yes"/>
      <point x="1047" y="670"/>
      <point x="979" y="755"/>
      <point x="855" y="755" type="curve" smooth="yes"/>
    </contour>
  </outline>
</glyph>
<glyph name="l" format="1">
  <advance width="512"/>
  <unicode hex="006C"/>
  <outline>
    <contour>
      <point x="347" y="1027"/>
      <point x="212" y="990"/>
      <point x="200" y="945" type="curve" smooth="yes"/>
      <point x="187" y="898"/>
      <point x="266" y="905"/>
      <point x="244" y="836" type="curve" smooth="yes"/>
      <point x="24" y="152" type="line" smooth="yes"/>
      <point x="-4" y="65"/>
      <point x="-54" y="85"/>
      <point x="-67" y="44" type="curve" smooth="yes"/>
      <point x="-75" y="19"/>
      <point x="-54" y="0"/>
      <point x="-3" y="0" type="curve" smooth="yes"/>
      <point x="323" y="0" type="line" smooth="yes"/>
      <point x="384" y="0"/>
      <point x="409" y="11"/>
      <point x="417" y="35" type="curve" smooth="yes"/>
      <point x="429" y="73"/>
      <point x="356" y="68"/>
      <point x="382" y="148" type="curve" smooth="yes"/>
      <point x="608" y="848" type="line" smooth="yes"/>
      <point x="640" y="947"/>
      <point x="610" y="1027"/>
      <point x="461" y="1027" type="curve" smooth="yes"/>
    </contour>
  </outline>
</glyph>
<glyph name="n" format="1">
  <advance width="997"/>
  <unicode hex="006E"/>
  <outline>
    <contour>
      <point x="677" y="755"/>
      <point x="565" y="711"/>
      <point x="462" y="505" type="curve"/>
      <point x="475" y="435" type="line"/>
      <point x="503" y="517"/>
      <point x="548" y="542"/>
      <point x="578" y="542" type="curve" smooth="yes"/>
      <point x="607" y="542"/>
      <point x="630" y="519"/>
      <point x="611" y="472" type="curve" smooth="yes"/>
      <point x="529" y="266" type="line" smooth="yes"/>
      <point x="512" y="222"/>
      <point x="502" y="180"/>
      <point x="502" y="147" type="curve" smooth="yes"/>
      <point x="502" y="50"/>
      <point x="580" y="-13"/>
      <point x="706" y="-13" type="curve" smooth="yes"/>
      <point x="867" y="-13"/>
      <point x="952" y="79"/>
      <point x="952" y="157" type="curve" smooth="yes"/>
      <point x="952" y="173"/>
      <point x="946" y="189"/>
      <point x="936" y="189" type="curve" smooth="yes"/>
      <point x="925" y="189"/>
      <point x="917" y="159"/>
      <point x="890" y="159" type="curve" smooth="yes"/>
      <point x="874" y="159"/>
      <point x="866" y="174"/>
      <point x="874" y="197" type="curve" smooth="yes"/>
      <point x="967" y="479" type="line" smooth="yes"/>
      <point x="1019" y="635"/>
      <point x="937" y="755"/>
      <point x="791" y="755" type="curve" smooth="yes"/>
    </contour>
    <contour>
      <point x="553" y="675"/>
      <point x="490" y="755"/>
      <point x="374" y="755" type="curve" smooth="yes"/>
      <point x="260" y="755"/>
      <point x="125" y="718"/>
      <point x="113" y="673" type="curve" smooth="yes"/>
      <point x="100" y="626"/>
      <point x="179" y="633"/>
      <point x="157" y="564" type="curve" smooth="yes"/>
      <point x="23" y="152" type="line" smooth="yes"/>
      <point x="-5" y="65"/>
      <point x="-55" y="85"/>
      <point x="-68" y="44" type="curve" smooth="yes"/>
      <point x="-76" y="19"/>
      <point x="-55" y="0"/>
      <point x="-4" y="0" type="curve" smooth="yes"/>
      <point x="322" y="0" type="line" smooth="yes"/>
      <point x="383" y="0"/>
      <point x="408" y="11"/>
      <point x="416" y="35" type="curve" smooth="yes"/>
      <point x="428" y="73"/>
      <point x="355" y="68"/>
      <point x="381" y="148" type="curve" smooth="yes"/>
      <point x="509" y="540" type="line" smooth="yes"/>
    </contour>
  </outline>
</glyph>
<glyph name="o" format="1">
  <advance width="914"/>
  <unicode hex="006F"/>
  <outline>
    <contour>
      <point x="320" y="755"/>
      <point x="98" y="601"/>
      <point x="42" y="375" type="curve" smooth="yes"/>
      <point x="-12" y="166"/>
      <point x="82" y="-13"/>
      <point x="412" y="-13" type="curve" smooth="yes"/>
      <point x="666" y="-13"/>
      <point x="876" y="138"/>
      <point x="936" y="376" type="curve" smooth="yes"/>
      <point x="986" y="574"/>
      <point x="900" y="755"/>
      <point x="574" y="755" type="curve" smooth="yes"/>
    </contour>
    <contour>
      <point x="604" y="629"/>
      <point x="630" y="599"/>
      <point x="556" y="374" type="curve" smooth="yes"/>
      <point x="482" y="147"/>
      <point x="441" y="109"/>
      <point x="407" y="112" type="curve" smooth="yes"/>
      <point x="371" y="112"/>
      <point x="344" y="137"/>
      <point x="421" y="373" type="curve" smooth="yes"/>
      <point x="492" y="589"/>
      <point x="534" y="629"/>
      <point x="568" y="629" type="curve" smooth="yes"/>
    </contour>
  </outline>
</glyph>
<glyph name="p" format="1">
  <advance width="937"/>
  <unicode hex="0070"/>
  <outline>
    <contour>
      <point x="625" y="761"/>
      <point x="520" y="689"/>
      <point x="436" y="515" type="curve"/>
      <point x="472" y="478" type="line"/>
      <point x="506" y="550"/>
      <point x="547" y="562"/>
      <point x="561" y="562" type="curve" smooth="yes"/>
      <point x="597" y="562"/>
      <point x="620" y="542"/>
      <point x="559" y="337" type="curve" smooth="yes"/>
      <point x="500" y="140"/>
      <point x="450" y="117"/>
      <point x="409" y="117" type="curve" smooth="yes"/>
      <point x="380" y="117"/>
      <point x="359" y="135"/>
      <point x="341" y="171" type="curve"/>
      <point x="293" y="59" type="line"/>
      <point x="345" y="9"/>
      <point x="428" y="-13"/>
      <point x="504" y="-13" type="curve" smooth="yes"/>
      <point x="701" y="-13"/>
      <point x="877" y="104"/>
      <point x="942" y="349" type="curve" smooth="yes"/>
      <point x="1006" y="592"/>
      <point x="920" y="761"/>
      <point x="732" y="761" type="curve" smooth="yes"/>
    </contour>
    <contour>
      <point x="541" y="673"/>
      <point x="479" y="755"/>
      <point x="363" y="755" type="curve" smooth="yes"/>
      <point x="249" y="755"/>
      <point x="114" y="718"/>
      <point x="102" y="673" type="curve" smooth="yes"/>
      <point x="89" y="626"/>
      <point x="168" y="632"/>
      <point x="146" y="564" type="curve" smooth="yes"/>
      <point x="-74" y="-120" type="line" smooth="yes"/>
      <point x="-101" y="-205"/>
      <point x="-152" y="-187"/>
      <point x="-165" y="-228" type="curve" smooth="yes"/>
      <point x="-173" y="-253"/>
      <point x="-152" y="-272"/>
      <point x="-101" y="-272" type="curve" smooth="yes"/>
      <point x="225" y="-272" type="line" smooth="yes"/>
      <point x="286" y="-272"/>
      <point x="311" y="-261"/>
      <point x="319" y="-237" type="curve" smooth="yes"/>
      <point x="331" y="-199"/>
      <point x="259" y="-202"/>
      <point x="284" y="-124" type="curve" smooth="yes"/>
      <point x="498" y="540" type="line" smooth="yes"/>
    </contour>
  </outline>
</glyph>
<glyph name="q" format="1">
  <advance width="931"/>
  <unicode hex="0071"/>
  <outline>
    <contour>
      <point x="-46" y="134"/>
      <point x="76" y="-4"/>
      <point x="232" y="-4" type="curve" smooth="yes"/>
      <point x="350" y="-4"/>
      <point x="429" y="62"/>
      <point x="487" y="140" type="curve"/>
      <point x="504" y="273" type="line"/>
      <point x="483" y="208"/>
      <point x="465" y="182"/>
      <point x="435" y="182" type="curve" smooth="yes"/>
      <point x="387" y="182"/>
      <point x="358" y="245"/>
      <point x="410" y="405" type="curve" smooth="yes"/>
      <point x="463" y="568"/>
      <point x="503" y="610"/>
      <point x="548" y="610" type="curve" smooth="yes"/>
      <point x="582" y="610"/>
      <point x="604" y="585"/>
      <point x="582" y="516" type="curve"/>
      <point x="729" y="602" type="line"/>
      <point x="664" y="705"/>
      <point x="589" y="755"/>
      <point x="444" y="755" type="curve" smooth="yes"/>
      <point x="270" y="755"/>
      <point x="89" y="643"/>
      <point x="24" y="397" type="curve" smooth="yes"/>
    </contour>
    <contour>
      <point x="403" y="-37" type="line" smooth="yes"/>
      <point x="356" y="-184"/>
      <point x="435" y="-272"/>
      <point x="602" y="-272" type="curve" smooth="yes"/>
      <point x="746" y="-272"/>
      <point x="898" y="-176"/>
      <point x="898" y="-103" type="curve" smooth="yes"/>
      <point x="898" y="-90"/>
      <point x="893" y="-80"/>
      <point x="881" y="-80" type="curve" smooth="yes"/>
      <point x="863" y="-80"/>
      <point x="835" y="-90"/>
      <point x="802" y="-90" type="curve" smooth="yes"/>
      <point x="763" y="-90"/>
      <point x="751" y="-76"/>
      <point x="775" y="0" type="curve" smooth="yes"/>
      <point x="985" y="654" type="line" smooth="yes"/>
      <point x="1003" y="709"/>
      <point x="976" y="742"/>
      <point x="917" y="742" type="curve" smooth="yes"/>
      <point x="854" y="742" type="line" smooth="yes"/>
      <point x="801" y="742"/>
      <point x="768" y="724"/>
      <point x="729" y="692" type="curve" smooth="yes"/>
      <point x="637" y="615" type="line" smooth="yes"/>
      <point x="624" y="604"/>
      <point x="600" y="570"/>
      <point x="573" y="489" type="curve" smooth="yes"/>
    </contour>
  </outline>
</glyph>
<glyph name="r" format="1">
  <advance width="802"/>
  <unicode hex="0072"/>
  <outline>
    <contour>
      <point x="605" y="755"/>
      <point x="516" y="701"/>
      <point x="452" y="515" type="curve"/>
      <point x="497" y="505" type="line"/>
      <point x="510" y="546"/>
      <point x="524" y="557"/>
      <point x="543" y="557" type="curve" smooth="yes"/>
      <point x="595" y="557"/>
      <point x="580" y="415"/>
      <point x="716" y="415" type="curve" smooth="yes"/>
      <point x="789" y="415"/>
      <point x="849" y="457"/>
      <point x="869" y="537" type="curve" smooth="yes"/>
      <point x="898" y="650"/>
      <point x="832" y="755"/>
      <point x="701" y="755" type="curve" smooth="yes"/>
    </contour>
    <contour>
      <point x="553" y="676"/>
      <point x="490" y="755"/>
      <point x="374" y="755" type="curve" smooth="yes"/>
      <point x="260" y="755"/>
      <point x="125" y="718"/>
      <point x="113" y="673" type="curve" smooth="yes"/>
      <point x="100" y="626"/>
      <point x="179" y="633"/>
      <point x="157" y="564" type="curve" smooth="yes"/>
      <point x="23" y="152" type="line" smooth="yes"/>
      <point x="-5" y="65"/>
      <point x="-55" y="85"/>
      <point x="-68" y="44" type="curve" smooth="yes"/>
      <point x="-76" y="19"/>
      <point x="-55" y="0"/>
      <point x="-4" y="0" type="curve" smooth="yes"/>
      <point x="362" y="0" type="line" smooth="yes"/>
      <point x="421" y="0"/>
      <point x="439" y="11"/>
      <point x="443" y="35" type="curve" smooth="yes"/>
      <point x="450" y="75"/>
      <point x="358" y="74"/>
      <point x="382" y="148" type="curve" smooth="yes"/>
      <point x="509" y="540" type="line" smooth="yes"/>
    </contour>
  </outline>
</glyph>
<glyph name="s" format="1">
  <advance width="833"/>
  <unicode hex="0073"/>
  <outline>
    <contour>
      <point x="280" y="769"/>
      <point x="135" y="688"/>
      <point x="118" y="559" type="curve" smooth="yes"/>
      <point x="91" y="360"/>
      <point x="388" y="294"/>
      <point x="381" y="172" type="curve" smooth="yes"/>
      <point x="378" y="131"/>
      <point x="347" y="109"/>
      <point x="299" y="107" type="curve" smooth="yes"/>
      <point x="286" y="106"/>
      <point x="274" y="109"/>
      <point x="262" y="113" type="curve"/>
      <point x="291" y="222"/>
      <point x="239" y="311"/>
      <point x="130" y="311" type="curve" smooth="yes"/>
      <point x="50" y="311"/>
      <point x="-26" y="265"/>
      <point x="-26" y="172" type="curve" smooth="yes"/>
      <point x="-26" y="70"/>
      <point x="93" y="-10"/>
      <point x="326" y="-10" type="curve" smooth="yes"/>
      <point x="618" y="-10"/>
      <point x="744" y="93"/>
      <point x="762" y="214" type="curve" smooth="yes"/>
      <point x="793" y="415"/>
      <point x="428" y="482"/>
      <point x="428" y="602" type="curve" smooth="yes"/>
      <point x="428" y="653"/>
      <point x="473" y="671"/>
      <point x="508" y="671" type="curve" smooth="yes"/>
      <point x="515" y="671"/>
      <point x="524" y="669"/>
      <point x="530" y="667" type="curve"/>
      <point x="499" y="556"/>
      <point x="562" y="487"/>
      <point x="669" y="487" type="curve" smooth="yes"/>
      <point x="766" y="487"/>
      <point x="821" y="540"/>
      <point x="821" y="597" type="curve" smooth="yes"/>
      <point x="821" y="702"/>
      <point x="682" y="769"/>
      <point x="479" y="769" type="curve" smooth="yes"/>
    </contour>
  </outline>
</glyph>
<glyph name="t" format="1">
  <advance width="622"/>
  <unicode hex="0074"/>
  <outline>
    <contour>
      <point x="287" y="634"/>
      <point x="306" y="612"/>
      <point x="351" y="612" type="curve" smooth="yes"/>
      <point x="591" y="612" type="line" smooth="yes"/>
      <point x="637" y="612"/>
      <point x="667" y="634"/>
      <point x="678" y="674" type="curve" smooth="yes"/>
      <point x="690" y="715"/>
      <point x="671" y="737"/>
      <point x="626" y="737" type="curve" smooth="yes"/>
      <point x="386" y="737" type="line" smooth="yes"/>
      <point x="341" y="737"/>
      <point x="310" y="715"/>
      <point x="298" y="674" type="curve" smooth="yes"/>
    </contour>
    <contour>
      <point x="299" y="827" type="curve" smooth="yes"/>
      <point x="207" y="737" type="line"/>
      <point x="127" y="737" type="line" smooth="yes"/>
      <point x="71" y="737"/>
      <point x="52" y="721"/>
      <point x="45" y="698" type="curve" smooth="yes"/>
      <point x="27" y="633"/>
      <point x="158" y="621"/>
      <point x="118" y="504" type="curve" smooth="yes"/>
      <point x="23" y="222" type="line" smooth="yes"/>
      <point x="-25" y="80"/>
      <point x="65" y="-13"/>
      <point x="222" y="-13" type="curve" smooth="yes"/>
      <point x="414" y="-13"/>
      <point x="548" y="103"/>
      <point x="548" y="156" type="curve" smooth="yes"/>
      <point x="548" y="169"/>
      <point x="542" y="179"/>
      <point x="529" y="179" type="curve" smooth="yes"/>
      <point x="509" y="179"/>
      <point x="479" y="169"/>
      <point x="442" y="169" type="curve" smooth="yes"/>
      <point x="403" y="169"/>
      <point x="371" y="183"/>
      <point x="395" y="259" type="curve" smooth="yes"/>
      <point x="571" y="803" type="line" smooth="yes"/>
      <point x="593" y="872"/>
      <point x="565" y="911"/>
      <point x="488" y="911" type="curve" smooth="yes"/>
      <point x="401" y="911"/>
      <point x="358" y="885"/>
    </contour>
  </outline>
</glyph>
<glyph name="u" format="1">
  <advance width="979"/>
  <unicode hex="0075"/>
  <outline>
    <contour>
      <point x="497" y="576" type="line" smooth="yes"/>
      <point x="529" y="675"/>
      <point x="499" y="755"/>
      <point x="350" y="755" type="curve" smooth="yes"/>
      <point x="236" y="755"/>
      <point x="101" y="718"/>
      <point x="89" y="673" type="curve" smooth="yes"/>
      <point x="76" y="626"/>
      <point x="155" y="633"/>
      <point x="133" y="564" type="curve" smooth="yes"/>
      <point x="35" y="266" type="line" smooth="yes"/>
      <point x="-27" y="88"/>
      <point x="102" y="-4"/>
      <point x="253" y="-4" type="curve" smooth="yes"/>
      <point x="370" y="-4"/>
      <point x="490" y="65"/>
      <point x="568" y="220" type="curve"/>
      <point x="520" y="285" type="line"/>
      <point x="497" y="232"/>
      <point x="477" y="208"/>
      <point x="437" y="208" type="curve" smooth="yes"/>
      <point x="406" y="208"/>
      <point x="386" y="232"/>
      <point x="401" y="279" type="curve" smooth="yes"/>
    </contour>
    <contour>
      <point x="513" y="266" type="line" smooth="yes"/>
      <point x="499" y="221"/>
      <point x="492" y="180"/>
      <point x="492" y="147" type="curve" smooth="yes"/>
      <point x="492" y="60"/>
      <point x="556" y="-13"/>
      <point x="692" y="-13" type="curve" smooth="yes"/>
      <point x="833" y="-13"/>
      <point x="928" y="79"/>
      <point x="928" y="157" type="curve" smooth="yes"/>
      <point x="928" y="173"/>
      <point x="922" y="189"/>
      <point x="912" y="189" type="curve" smooth="yes"/>
      <point x="901" y="189"/>
      <point x="893" y="159"/>
      <point x="866" y="159" type="curve" smooth="yes"/>
      <point x="850" y="159"/>
      <point x="843" y="174"/>
      <point x="850" y="197" type="curve" smooth="yes"/>
      <point x="973" y="576" type="line" smooth="yes"/>
      <point x="1005" y="675"/>
      <point x="975" y="755"/>
      <point x="826" y="755" type="curve" smooth="yes"/>
      <point x="712" y="755"/>
      <point x="577" y="718"/>
      <point x="565" y="673" type="curve" smooth="yes"/>
      <point x="552" y="626"/>
      <point x="631" y="633"/>
      <point x="609" y="564" type="curve" smooth="yes"/>
    </contour>
  </outline>
</glyph>
<glyph name="v" format="1">
  <advance width="837"/>
  <unicode hex="0076"/>
  <outline>
    <contour>
      <point x="587" y="755"/>
      <point x="535" y="669"/>
      <point x="535" y="577" type="curve" smooth="yes"/>
      <point x="535" y="515"/>
      <point x="558" y="452"/>
      <point x="637" y="383" type="curve"/>
      <point x="578" y="233"/>
      <point x="469" y="151"/>
      <point x="409" y="151" type="curve" smooth="yes"/>
      <point x="369" y="151"/>
      <point x="353" y="175"/>
      <point x="365" y="212" type="curve" smooth="yes"/>
      <point x="463" y="517" type="line" smooth="yes"/>
      <point x="506" y="651"/>
      <point x="437" y="755"/>
      <point x="275" y="755" type="curve" smooth="yes"/>
      <point x="151" y="755"/>
      <point x="73" y="698"/>
      <point x="73" y="660" type="curve" smooth="yes"/>
      <point x="73" y="628"/>
      <point x="134" y="619"/>
      <point x="117" y="564" type="curve" smooth="yes"/>
      <point x="21" y="257" type="line" smooth="yes"/>
      <point x="-35" y="79"/>
      <point x="91" y="-13"/>
      <point x="280" y="-13" type="curve" smooth="yes"/>
      <point x="546" y="-13"/>
      <point x="867" y="295"/>
      <point x="867" y="558" type="curve" smooth="yes"/>
      <point x="867" y="683"/>
      <point x="790" y="755"/>
      <point x="694" y="755" type="curve" smooth="yes"/>
    </contour>
  </outline>
</glyph>
<glyph name="w" format="1">
  <advance width="1311"/>
  <unicode hex="0077"/>
  <outline>
    <contour>
      <point x="1056" y="755"/>
      <point x="1004" y="669"/>
      <point x="1004" y="577" type="curve" smooth="yes"/>
      <point x="1004" y="515"/>
      <point x="1027" y="452"/>
      <point x="1106" y="383" type="curve"/>
      <point x="1047" y="233"/>
      <point x="938" y="151"/>
      <point x="878" y="151" type="curve" smooth="yes"/>
      <point x="838" y="151"/>
      <point x="822" y="175"/>
      <point x="834" y="212" type="curve" smooth="yes"/>
      <point x="932" y="517" type="line" smooth="yes"/>
      <point x="975" y="651"/>
      <point x="906" y="755"/>
      <point x="744" y="755" type="curve" smooth="yes"/>
      <point x="620" y="755"/>
      <point x="542" y="698"/>
      <point x="542" y="660" type="curve" smooth="yes"/>
      <point x="542" y="628"/>
      <point x="603" y="619"/>
      <point x="586" y="564" type="curve" smooth="yes"/>
      <point x="490" y="257" type="line" smooth="yes"/>
      <point x="434" y="79"/>
      <point x="560" y="-13"/>
      <point x="749" y="-13" type="curve" smooth="yes"/>
      <point x="1015" y="-13"/>
      <point x="1336" y="295"/>
      <point x="1336" y="558" type="curve" smooth="yes"/>
      <point x="1336" y="683"/>
      <point x="1259" y="755"/>
      <point x="1163" y="755" type="curve" smooth="yes"/>
    </contour>
    <contour>
      <point x="499" y="285" type="line"/>
      <point x="476" y="232"/>
      <point x="454" y="208"/>
      <point x="420" y="208" type="curve" smooth="yes"/>
      <point x="389" y="208"/>
      <point x="372" y="231"/>
      <point x="386" y="274" type="curve" smooth="yes"/>
      <point x="463" y="517" type="line" smooth="yes"/>
      <point x="506" y="651"/>
      <point x="437" y="755"/>
      <point x="275" y="755" type="curve" smooth="yes"/>
      <point x="151" y="755"/>
      <point x="73" y="698"/>
      <point x="73" y="660" type="curve" smooth="yes"/>
      <point x="73" y="628"/>
      <point x="134" y="619"/>
      <point x="117" y="564" type="curve" smooth="yes"/>
      <point x="31" y="284" type="line" smooth="yes"/>
      <point x="-30" y="86"/>
      <point x="79" y="-4"/>
      <point x="230" y="-4" type="curve" smooth="yes"/>
      <point x="347" y="-4"/>
      <point x="467" y="65"/>
      <point x="545" y="220" type="curve"/>
    </contour>
  </outline>
</glyph>
<glyph name="x" format="1">
  <advance width="868"/>
  <unicode hex="0078"/>
  <outline>
    <contour>
      <point x="226" y="755"/>
      <point x="93" y="674"/>
      <point x="65" y="601" type="curve" smooth="yes"/>
      <point x="53" y="565"/>
      <point x="56" y="540"/>
      <point x="73" y="540" type="curve" smooth="yes"/>
      <point x="89" y="540"/>
      <point x="102" y="546"/>
      <point x="132" y="546" type="curve" smooth="yes"/>
      <point x="175" y="546"/>
      <point x="220" y="442"/>
      <point x="256" y="327" type="curve" smooth="yes"/>
      <point x="328" y="73"/>
      <point x="396" y="-4"/>
      <point x="507" y="-4" type="curve" smooth="yes"/>
      <point x="624" y="-4"/>
      <point x="758" y="77"/>
      <point x="786" y="150" type="curve" smooth="yes"/>
      <point x="798" y="186"/>
      <point x="796" y="211"/>
      <point x="779" y="211" type="curve" smooth="yes"/>
      <point x="763" y="211"/>
      <point x="749" y="205"/>
      <point x="719" y="205" type="curve" smooth="yes"/>
      <point x="676" y="205"/>
      <point x="631" y="309"/>
      <point x="596" y="424" type="curve" smooth="yes"/>
      <point x="523" y="678"/>
      <point x="454" y="755"/>
      <point x="343" y="755" type="curve" smooth="yes"/>
    </contour>
    <contour>
      <point x="713" y="496" type="line"/>
      <point x="803" y="418"/>
      <point x="876" y="470"/>
      <point x="886" y="560" type="curve" smooth="yes"/>
      <point x="898" y="664"/>
      <point x="816" y="755"/>
      <point x="729" y="755" type="curve" smooth="yes"/>
      <point x="685" y="755"/>
      <point x="645" y="733"/>
      <point x="605" y="636" type="curve" smooth="yes"/>
      <point x="521" y="433" type="line"/>
      <point x="575" y="353" type="line"/>
    </contour>
    <contour>
      <point x="156" y="255" type="line"/>
      <point x="66" y="333"/>
      <point x="-7" y="281"/>
      <point x="-17" y="191" type="curve" smooth="yes"/>
      <point x="-29" y="87"/>
      <point x="53" y="-4"/>
      <point x="140" y="-4" type="curve" smooth="yes"/>
      <point x="184" y="-4"/>
      <point x="224" y="18"/>
      <point x="264" y="115" type="curve" smooth="yes"/>
      <point x="348" y="318" type="line"/>
      <point x="294" y="398" type="line"/>
    </contour>
  </outline>
</glyph>
<glyph name="y" format="1">
  <advance width="857"/>
  <unicode hex="0079"/>
  <outline>
    <contour>
      <point x="626" y="755"/>
      <point x="574" y="708"/>
      <point x="561" y="629" type="curve" smooth="yes"/>
      <point x="543" y="522"/>
      <point x="592" y="434"/>
      <point x="678" y="365" type="curve"/>
      <point x="650" y="247"/>
      <point x="610" y="185"/>
      <point x="576" y="185" type="curve" smooth="yes"/>
      <point x="562" y="185"/>
      <point x="552" y="197"/>
      <point x="545" y="222" type="curve" smooth="yes"/>
      <point x="460" y="536" type="line" smooth="yes"/>
      <point x="421" y="679"/>
      <point x="362" y="757"/>
      <point x="236" y="757" type="curve" smooth="yes"/>
      <point x="105" y="757"/>
      <point x="1" y="647"/>
      <point x="1" y="530" type="curve" smooth="yes"/>
      <point x="1" y="509"/>
      <point x="9" y="496"/>
      <point x="19" y="496" type="curve" smooth="yes"/>
      <point x="30" y="496"/>
      <point x="42" y="516"/>
      <point x="59" y="516" type="curve" smooth="yes"/>
      <point x="76" y="516"/>
      <point x="87" y="505"/>
      <point x="98" y="467" type="curve" smooth="yes"/>
      <point x="208" y="103" type="line" smooth="yes"/>
      <point x="231" y="26"/>
      <point x="276" y="-20"/>
      <point x="383" y="-46" type="curve"/>
      <point x="340" y="-94"/>
      <point x="291" y="-124"/>
      <point x="224" y="-124" type="curve"/>
      <point x="195" y="-21"/>
      <point x="124" y="26"/>
      <point x="46" y="26" type="curve" smooth="yes"/>
      <point x="-4" y="26"/>
      <point x="-51" y="3"/>
      <point x="-66" y="-58" type="curve" smooth="yes"/>
      <point x="-91" y="-163"/>
      <point x="5" y="-271"/>
      <point x="201" y="-271" type="curve" smooth="yes"/>
      <point x="528" y="-271"/>
      <point x="856" y="158"/>
      <point x="856" y="543" type="curve" smooth="yes"/>
      <point x="856" y="689"/>
      <point x="770" y="755"/>
      <point x="690" y="755" type="curve" smooth="yes"/>
    </contour>
  </outline>
</glyph>
<glyph name="z" format="1">
  <advance width="940"/>
  <unicode hex="007A"/>
  <outline>
    <contour>
      <point x="573" y="755"/>
      <point x="529" y="593"/>
      <point x="495" y="593" type="curve" smooth="yes"/>
      <point x="470" y="593"/>
      <point x="424" y="755"/>
      <point x="257" y="755" type="curve" smooth="yes"/>
      <point x="151" y="755"/>
      <point x="87" y="680"/>
      <point x="87" y="598" type="curve" smooth="yes"/>
      <point x="87" y="513"/>
      <point x="151" y="467"/>
      <point x="207" y="467" type="curve" smooth="yes"/>
      <point x="248" y="467"/>
      <point x="256" y="585"/>
      <point x="329" y="585" type="curve" smooth="yes"/>
      <point x="359" y="585"/>
      <point x="381" y="570"/>
      <point x="414" y="530" type="curve"/>
      <point x="64" y="305" type="line" smooth="yes"/>
      <point x="-6" y="260"/>
      <point x="-30" y="214"/>
      <point x="-30" y="170" type="curve" smooth="yes"/>
      <point x="-30" y="77"/>
      <point x="72" y="-4"/>
      <point x="204" y="-4" type="curve" smooth="yes"/>
      <point x="354" y="-4"/>
      <point x="384" y="164"/>
      <point x="422" y="164" type="curve" smooth="yes"/>
      <point x="452" y="164"/>
      <point x="490" y="-4"/>
      <point x="682" y="-4" type="curve" smooth="yes"/>
      <point x="805" y="-4"/>
      <point x="882" y="76"/>
      <point x="882" y="170" type="curve" smooth="yes"/>
      <point x="882" y="288"/>
      <point x="788" y="344"/>
      <point x="738" y="344" type="curve" smooth="yes"/>
      <point x="693" y="344"/>
      <point x="639" y="98"/>
      <point x="494" y="248" type="curve"/>
      <point x="783" y="428" type="line" smooth="yes"/>
      <point x="862" y="477"/>
      <point x="898" y="522"/>
      <point x="898" y="592" type="curve" smooth="yes"/>
      <point x="898" y="672"/>
      <point x="811" y="755"/>
      <point x="711" y="755" type="curve" smooth="yes"/>
    </contour>
  </outline>
</glyph>
<glyph name="dotlessi" format="1">
  <advance width="510"/>
  <unicode hex="0131"/>
  <outline>
    <contour>
      <point x="259" y="755"/>
      <point x="124" y="718"/>
      <point x="112" y="673" type="curve" smooth="yes"/>
      <point x="99" y="626"/>
      <point x="178" y="633"/>
      <point x="156" y="564" type="curve" smooth="yes"/>
      <point x="24" y="152" type="line" smooth="yes"/>
      <point x="-4" y="65"/>
      <point x="-54" y="85"/>
      <point x="-67" y="44" type="curve" smooth="yes"/>
      <point x="-75" y="19"/>
      <point x="-54" y="0"/>
      <point x="-3" y="0" type="curve" smooth="yes"/>
      <point x="323" y="0" type="line" smooth="yes"/>
      <point x="384" y="0"/>
      <point x="409" y="11"/>
      <point x="417" y="35" type="curve" smooth="yes"/>
      <point x="429" y="73"/>
      <point x="356" y="68"/>
      <point x="382" y="148" type="curve" smooth="yes"/>
      <point x="520" y="576" type="line" smooth="yes"/>
      <point x="552" y="675"/>
      <point x="522" y="755"/>
      <point x="373" y="755" type="curve" smooth="yes"/>
    </contour>
  </outline>
</glyph>
<glyph name="gjCandrabindu" format="1">
  <advance width="0"/>
  <unicode hex="0A81"/>
  <outline>
    <contour>
      <point x="-330" y="1141"/>
      <point x="-348" y="1146"/>
      <point x="-364" y="1146" type="curve" smooth="yes"/>
      <point x="-391" y="1146"/>
      <point x="-403" y="1135"/>
      <point x="-403" y="1104" type="curve" smooth="yes"/>
      <point x="-403" y="1025"/>
      <point x="-260" y="870"/>
      <point x="-4" y="870" type="curve" smooth="yes"/>
      <point x="150" y="870"/>
      <point x="244" y="950"/>
      <point x="244" y="1006" type="curve" smooth="yes"/>
      <point x="244" y="1062"/>
      <point x="111" y="1138"/>
      <point x="47" y="1138" type="curve" smooth="yes"/>
      <point x="-44" y="1138"/>
      <point x="-82" y="1036"/>
      <point x="-195" y="1050" type="curve" smooth="yes"/>
      <point x="-240" y="1056"/>
      <point x="-281" y="1098"/>
      <point x="-320" y="1132" type="curve" smooth="yes"/>
    </contour>
    <contour>
      <point x="-227" y="1339"/>
      <point x="-279" y="1270"/>
      <point x="-279" y="1210" type="curve" smooth="yes"/>
      <point x="-279" y="1151"/>
      <point x="-234" y="1105"/>
      <point x="-173" y="1105" type="curve" smooth="yes"/>
      <point x="-96" y="1105"/>
      <point x="-43" y="1172"/>
      <point x="-43" y="1235" type="curve" smooth="yes"/>
      <point x="-43" y="1293"/>
      <point x="-89" y="1339"/>
      <point x="-149" y="1339" type="curve" smooth="yes"/>
    </contour>
  </outline>
</glyph>
<glyph name="gjA" format="1">
  <advance width="1549"/>
  <unicode hex="0A85"/>
  <outline>
    <contour>
      <point x="957" y="546"/>
      <point x="862" y="636"/>
      <point x="744" y="636" type="curve" smooth="yes"/>
      <point x="664" y="636"/>
      <point x="627" y="585"/>
      <point x="627" y="527" type="curve" smooth="yes"/>
      <point x="627" y="486"/>
      <point x="644" y="454"/>
      <point x="673" y="427" type="curve"/>
      <point x="650" y="326"/>
      <point x="581" y="278"/>
      <point x="487" y="278" type="curve" smooth="yes"/>
      <point x="431" y="278"/>
      <point x="376" y="292"/>
      <point x="332" y="323" type="curve"/>
      <point x="245" y="297" type="line"/>
      <point x="336" y="142"/>
      <point x="462" y="88"/>
      <point x="611" y="88" type="curve" smooth="yes"/>
      <point x="801" y="88"/>
      <point x="957" y="218"/>
      <point x="957" y="408" type="curve" smooth="yes"/>
    </contour>
    <contour>
      <point x="1069" y="457"/>
      <point x="1020" y="416"/>
      <point x="913" y="434" type="curve"/>
      <point x="856" y="376" type="line"/>
      <point x="908" y="320"/>
      <point x="975" y="302"/>
      <point x="1066" y="302" type="curve"/>
      <point x="1101" y="558" type="line"/>
    </contour>
    <contour>
      <point x="246" y="857"/>
      <point x="136" y="761"/>
      <point x="114" y="623" type="curve" smooth="yes"/>
      <point x="111" y="603"/>
      <point x="123" y="590"/>
      <point x="134" y="590" type="curve" smooth="yes"/>
      <point x="147" y="591"/>
      <point x="161" y="614"/>
      <point x="185" y="615" type="curve" smooth="yes"/>
      <point x="202" y="616"/>
      <point x="213" y="602"/>
      <point x="209" y="579" type="curve" smooth="yes"/>
      <point x="204" y="546"/>
      <point x="184" y="506"/>
      <point x="139" y="461" type="curve"/>
      <point x="114" y="475"/>
      <point x="95" y="481"/>
      <point x="72" y="481" type="curve" smooth="yes"/>
      <point x="27" y="481"/>
      <point x="-16" y="452"/>
      <point x="-24" y="398" type="curve" smooth="yes"/>
      <point x="-36" y="325"/>
      <point x="40" y="233"/>
      <point x="185" y="233" type="curve" smooth="yes"/>
      <point x="404" y="233"/>
      <point x="586" y="433"/>
      <point x="586" y="643" type="curve" smooth="yes"/>
      <point x="586" y="783"/>
      <point x="498" y="857"/>
      <point x="387" y="857" type="curve" smooth="yes"/>
    </contour>
    <component base="gjmAA" xOffset="981"/>
  </outline>
</glyph>
<glyph name="gjI" format="1">
  <advance width="894"/>
  <unicode hex="0A87"/>
  <outline>
    <contour>
      <point x="705" y="913"/>
      <point x="724" y="913" type="curve" smooth="yes"/>
      <point x="777" y="913"/>
      <point x="713" y="1092"/>
      <point x="554" y="1092" type="curve" smooth="yes"/>
      <point x="481" y="1092"/>
      <point x="428" y="1047"/>
      <point x="428" y="975" type="curve" smooth="yes"/>
      <point x="428" y="895"/>
      <point x="496" y="826"/>
      <point x="562" y="748" type="curve" smooth="yes"/>
      <point x="623" y="676"/>
      <point x="682" y="596"/>
      <point x="682" y="476" type="curve" smooth="yes"/>
      <point x="682" y="329"/>
      <point x="590" y="270"/>
      <point x="505" y="270" type="curve" smooth="yes"/>
      <point x="444" y="270"/>
      <point x="407" y="309"/>
      <point x="407" y="352" type="curve" smooth="yes"/>
      <point x="407" y="424"/>
      <point x="521" y="442"/>
      <point x="521" y="486" type="curve" smooth="yes"/>
      <point x="521" y="528"/>
      <point x="346" y="533"/>
      <point x="346" y="622" type="curve" smooth="yes"/>
      <point x="346" y="651"/>
      <point x="362" y="673"/>
      <point x="387" y="673" type="curve" smooth="yes"/>
      <point x="420" y="673"/>
      <point x="426" y="632"/>
      <point x="454" y="632" type="curve" smooth="yes"/>
      <point x="466" y="632"/>
      <point x="475" y="643"/>
      <point x="475" y="663" type="curve" smooth="yes"/>
      <point x="475" y="761"/>
      <point x="387" y="846"/>
      <point x="260" y="846" type="curve" smooth="yes"/>
      <point x="108" y="846"/>
      <point x="32" y="744"/>
      <point x="32" y="633" type="curve" smooth="yes"/>
      <point x="32" y="530"/>
      <point x="101" y="449"/>
      <point x="227" y="418" type="curve"/>
      <point x="319" y="488" type="line"/>
      <point x="175" y="461"/>
      <point x="98" y="404"/>
      <point x="85" y="281" type="curve" smooth="yes"/>
      <point x="69" y="126"/>
      <point x="208" y="0"/>
      <point x="436" y="0" type="curve" smooth="yes"/>
      <point x="691" y="0"/>
      <point x="867" y="168"/>
      <point x="867" y="393" type="curve" smooth="yes"/>
      <point x="867" y="514"/>
      <point x="818" y="612"/>
      <point x="728" y="723" type="curve" smooth="yes"/>
      <point x="636" y="837"/>
      <point x="625" y="857"/>
      <point x="625" y="889" type="curve" smooth="yes"/>
      <point x="625" y="918"/>
      <point x="641" y="935"/>
      <point x="663" y="935" type="curve" smooth="yes"/>
      <point x="689" y="935"/>
    </contour>
  </outline>
</glyph>
<glyph name="gjII" format="1">
  <advance width="894"/>
  <unicode hex="0A88"/>
  <outline>
    <contour>
      <point x="655" y="878"/>
      <point x="674" y="900"/>
      <point x="700" y="900" type="curve" smooth="yes"/>
      <point x="760" y="900"/>
      <point x="753" y="812"/>
      <point x="793" y="812" type="curve" smooth="yes"/>
      <point x="836" y="812"/>
      <point x="887" y="872"/>
      <point x="887" y="962" type="curve" smooth="yes"/>
      <point x="887" y="1074"/>
      <point x="806" y="1165"/>
      <point x="677" y="1165" type="curve" smooth="yes"/>
      <point x="553" y="1165"/>
      <point x="468" y="1072"/>
      <point x="470" y="959" type="curve" smooth="yes"/>
      <point x="472" y="867"/>
      <point x="522" y="798"/>
      <point x="574" y="727" type="curve" smooth="yes"/>
      <point x="627" y="654"/>
      <point x="682" y="579"/>
      <point x="682" y="476" type="curve" smooth="yes"/>
      <point x="682" y="329"/>
      <point x="590" y="270"/>
      <point x="505" y="270" type="curve" smooth="yes"/>
      <point x="444" y="270"/>
      <point x="407" y="309"/>
      <point x="407" y="352" type="curve" smooth="yes"/>
      <point x="407" y="424"/>
      <point x="521" y="442"/>
      <point x="521" y="486" type="curve" smooth="yes"/>
      <point x="521" y="528"/>
      <point x="346" y="533"/>
      <point x="346" y="622" type="curve" smooth="yes"/>
      <point x="346" y="651"/>
      <point x="362" y="673"/>
      <point x="387" y="673" type="curve" smooth="yes"/>
      <point x="420" y="673"/>
      <point x="426" y="632"/>
      <point x="454" y="632" type="curve" smooth="yes"/>
      <point x="466" y="632"/>
      <point x="475" y="643"/>
      <point x="475" y="663" type="curve" smooth="yes"/>
      <point x="475" y="761"/>
      <point x="387" y="846"/>
      <point x="260" y="846" type="curve" smooth="yes"/>
      <point x="108" y="846"/>
      <point x="32" y="744"/>
      <point x="32" y="633" type="curve" smooth="yes"/>
      <point x="32" y="530"/>
      <point x="101" y="449"/>
      <point x="227" y="418" type="curve"/>
      <point x="319" y="488" type="line"/>
      <point x="175" y="461"/>
      <point x="98" y="404"/>
      <point x="85" y="281" type="curve" smooth="yes"/>
      <point x="69" y="126"/>
      <point x="208" y="0"/>
      <point x="436" y="0" type="curve" smooth="yes"/>
      <point x="691" y="0"/>
      <point x="867" y="148"/>
      <point x="867" y="373" type="curve" smooth="yes"/>
      <point x="867" y="508"/>
      <point x="782" y="626"/>
      <point x="717" y="721" type="curve" smooth="yes"/>
      <point x="667" y="794"/>
      <point x="655" y="817"/>
      <point x="655" y="850" type="curve" smooth="yes"/>
    </contour>
  </outline>
</glyph>
<glyph name="gjU" format="1">
  <advance width="898"/>
  <unicode hex="0A89"/>
  <outline>
    <contour>
      <point x="1062" y="885"/>
      <point x="1081" y="1165"/>
      <point x="754" y="1165" type="curve" smooth="yes"/>
      <point x="393" y="1165"/>
      <point x="37" y="936"/>
      <point x="37" y="367" type="curve" smooth="yes"/>
      <point x="37" y="197"/>
      <point x="137" y="-4"/>
      <point x="395" y="-4" type="curve" smooth="yes"/>
      <point x="551" y="-4"/>
      <point x="683" y="86"/>
      <point x="723" y="228" type="curve" smooth="yes"/>
      <point x="750" y="326"/>
      <point x="715" y="414"/>
      <point x="658" y="470" type="curve"/>
      <point x="751" y="509"/>
      <point x="806" y="585"/>
      <point x="825" y="653" type="curve" smooth="yes"/>
      <point x="853" y="751"/>
      <point x="797" y="857"/>
      <point x="646" y="857" type="curve" smooth="yes"/>
      <point x="512" y="857"/>
      <point x="386" y="781"/>
      <point x="349" y="643" type="curve" smooth="yes"/>
      <point x="340" y="610"/>
      <point x="347" y="600"/>
      <point x="360" y="600" type="curve" smooth="yes"/>
      <point x="385" y="600"/>
      <point x="392" y="624"/>
      <point x="417" y="624" type="curve" smooth="yes"/>
      <point x="437" y="624"/>
      <point x="446" y="610"/>
      <point x="443" y="590" type="curve" smooth="yes"/>
      <point x="433" y="530"/>
      <point x="336" y="497"/>
      <point x="315" y="463" type="curve" smooth="yes"/>
      <point x="274" y="395"/>
      <point x="449" y="442"/>
      <point x="425" y="351" type="curve" smooth="yes"/>
      <point x="412" y="302"/>
      <point x="371" y="266"/>
      <point x="308" y="266" type="curve" smooth="yes"/>
      <point x="220" y="266"/>
      <point x="166" y="352"/>
      <point x="166" y="458" type="curve" smooth="yes"/>
      <point x="166" y="740"/>
      <point x="413" y="941"/>
      <point x="679" y="941" type="curve" smooth="yes"/>
      <point x="772" y="941"/>
      <point x="860" y="915"/>
      <point x="905" y="857" type="curve"/>
    </contour>
  </outline>
</glyph>
<glyph name="gjUU" format="1">
  <advance width="1384"/>
  <unicode hex="0A8A"/>
  <outline>
    <contour>
      <point x="1106" y="1129"/>
      <point x="754" y="1129" type="curve" smooth="yes"/>
      <point x="202" y="1129"/>
      <point x="39" y="689"/>
      <point x="39" y="405" type="curve" smooth="yes"/>
      <point x="39" y="151"/>
      <point x="184" y="-4"/>
      <point x="423" y="-4" type="curve" smooth="yes"/>
      <point x="579" y="-4"/>
      <point x="706" y="86"/>
      <point x="738" y="228" type="curve" smooth="yes"/>
      <point x="760" y="326"/>
      <point x="721" y="414"/>
      <point x="661" y="470" type="curve"/>
      <point x="752" y="509"/>
      <point x="803" y="585"/>
      <point x="819" y="653" type="curve" smooth="yes"/>
      <point x="841" y="751"/>
      <point x="779" y="857"/>
      <point x="628" y="857" type="curve" smooth="yes"/>
      <point x="494" y="857"/>
      <point x="372" y="781"/>
      <point x="343" y="643" type="curve" smooth="yes"/>
      <point x="335" y="610"/>
      <point x="343" y="600"/>
      <point x="356" y="600" type="curve" smooth="yes"/>
      <point x="381" y="600"/>
      <point x="387" y="624"/>
      <point x="412" y="624" type="curve" smooth="yes"/>
      <point x="432" y="624"/>
      <point x="441" y="610"/>
      <point x="439" y="590" type="curve" smooth="yes"/>
      <point x="433" y="530"/>
      <point x="337" y="497"/>
      <point x="318" y="463" type="curve" smooth="yes"/>
      <point x="281" y="395"/>
      <point x="454" y="442"/>
      <point x="434" y="351" type="curve" smooth="yes"/>
      <point x="424" y="302"/>
      <point x="384" y="266"/>
      <point x="321" y="266" type="curve" smooth="yes"/>
      <point x="241" y="266"/>
      <point x="172" y="337"/>
      <point x="172" y="461" type="curve" smooth="yes"/>
      <point x="172" y="639"/>
      <point x="281" y="970"/>
      <point x="640" y="970" type="curve" smooth="yes"/>
      <point x="914" y="970"/>
      <point x="1013" y="803"/>
      <point x="955" y="623" type="curve" smooth="yes"/>
      <point x="878" y="379" type="line" smooth="yes"/>
      <point x="849" y="287"/>
      <point x="836" y="234"/>
      <point x="836" y="186" type="curve" smooth="yes"/>
      <point x="836" y="85"/>
      <point x="895" y="-4"/>
      <point x="1055" y="-4" type="curve" smooth="yes"/>
      <point x="1195" y="-4"/>
      <point x="1288" y="98"/>
      <point x="1288" y="184" type="curve" smooth="yes"/>
      <point x="1288" y="202"/>
      <point x="1282" y="220"/>
      <point x="1271" y="220" type="curve" smooth="yes"/>
      <point x="1258" y="220"/>
      <point x="1250" y="187"/>
      <point x="1220" y="187" type="curve" smooth="yes"/>
      <point x="1202" y="187"/>
      <point x="1194" y="203"/>
      <point x="1202" y="229" type="curve" smooth="yes"/>
      <point x="1307" y="573" type="line" smooth="yes"/>
      <point x="1410" y="912"/>
    </contour>
  </outline>
</glyph>
<glyph name="gjvR" format="1">
  <advance width="1491"/>
  <unicode hex="0A8B"/>
  <outline>
    <contour>
      <point x="181" y="857"/>
      <point x="65" y="785"/>
      <point x="65" y="684" type="curve" smooth="yes"/>
      <point x="65" y="601"/>
      <point x="140" y="542"/>
      <point x="170" y="542" type="curve" smooth="yes"/>
      <point x="215" y="542"/>
      <point x="255" y="593"/>
      <point x="323" y="593" type="curve" smooth="yes"/>
      <point x="375" y="593"/>
      <point x="424" y="556"/>
      <point x="469" y="495" type="curve"/>
      <point x="257" y="394"/>
      <point x="0" y="506"/>
      <point x="0" y="382" type="curve" smooth="yes"/>
      <point x="0" y="275"/>
      <point x="129" y="170"/>
      <point x="222" y="170" type="curve" smooth="yes"/>
      <point x="302" y="170"/>
      <point x="365" y="228"/>
      <point x="518" y="427" type="curve"/>
      <point x="553" y="512" type="line"/>
      <point x="513" y="645" type="line" smooth="yes"/>
      <point x="470" y="788"/>
      <point x="397" y="857"/>
      <point x="271" y="857" type="curve" smooth="yes"/>
    </contour>
    <contour>
      <point x="1105" y="436" type="line"/>
      <point x="1127" y="417"/>
      <point x="1131" y="400"/>
      <point x="1131" y="385" type="curve" smooth="yes"/>
      <point x="1131" y="350"/>
      <point x="1109" y="322"/>
      <point x="1059" y="322" type="curve" smooth="yes"/>
      <point x="981" y="322"/>
      <point x="937" y="368"/>
      <point x="909" y="368" type="curve" smooth="yes"/>
      <point x="897" y="368"/>
      <point x="890" y="352"/>
      <point x="890" y="333" type="curve" smooth="yes"/>
      <point x="890" y="256"/>
      <point x="988" y="124"/>
      <point x="1206" y="124" type="curve" smooth="yes"/>
      <point x="1350" y="124"/>
      <point x="1411" y="193"/>
      <point x="1411" y="265" type="curve" smooth="yes"/>
      <point x="1411" y="340"/>
      <point x="1354" y="411"/>
      <point x="1133" y="474" type="curve"/>
    </contour>
    <contour>
      <point x="1084" y="857"/>
      <point x="988" y="773"/>
      <point x="988" y="653" type="curve" smooth="yes"/>
      <point x="988" y="594"/>
      <point x="1028" y="538"/>
      <point x="1074" y="516" type="curve"/>
      <point x="1140" y="546" type="line"/>
      <point x="1124" y="572"/>
      <point x="1117" y="600"/>
      <point x="1124" y="627" type="curve" smooth="yes"/>
      <point x="1130" y="652"/>
      <point x="1146" y="671"/>
      <point x="1172" y="671" type="curve" smooth="yes"/>
      <point x="1198" y="671"/>
      <point x="1215" y="653"/>
      <point x="1205" y="614" type="curve" smooth="yes"/>
      <point x="1187" y="548"/>
      <point x="1088" y="508"/>
      <point x="851" y="558" type="curve"/>
      <point x="807" y="451" type="line"/>
      <point x="1378" y="342"/>
      <point x="1548" y="496"/>
      <point x="1548" y="638" type="curve" smooth="yes"/>
      <point x="1548" y="762"/>
      <point x="1412" y="857"/>
      <point x="1252" y="857" type="curve" smooth="yes"/>
    </contour>
    <component base="gjmAA" xOffset="411"/>
  </outline>
</glyph>
<glyph name="gjKA" format="1">
  <advance width="688"/>
  <unicode hex="0A95"/>
  <outline>
    <contour>
      <point x="297" y="414" type="line"/>
      <point x="341" y="388"/>
      <point x="365" y="364"/>
      <point x="363" y="326" type="curve" smooth="yes"/>
      <point x="361" y="286"/>
      <point x="328" y="255"/>
      <point x="258" y="255" type="curve" smooth="yes"/>
      <point x="94" y="255"/>
      <point x="66" y="343"/>
      <point x="36" y="343" type="curve" smooth="yes"/>
      <point x="11" y="343"/>
      <point x="-45" y="290"/>
      <point x="-50" y="213" type="curve" smooth="yes"/>
      <point x="-56" y="88"/>
      <point x="84" y="-4"/>
      <point x="282" y="-4" type="curve" smooth="yes"/>
      <point x="494" y="-4"/>
      <point x="633" y="91"/>
      <point x="640" y="222" type="curve" smooth="yes"/>
      <point x="645" y="322"/>
      <point x="535" y="396"/>
      <point x="407" y="439" type="curve"/>
    </contour>
    <contour>
      <point x="497" y="551"/>
      <point x="475" y="547"/>
      <point x="436" y="528" type="curve" smooth="yes"/>
      <point x="334" y="477" type="line"/>
      <point x="129" y="477" type="line" smooth="yes"/>
      <point x="81" y="477"/>
      <point x="69" y="453"/>
      <point x="68" y="434" type="curve" smooth="yes"/>
      <point x="65" y="391"/>
      <point x="151" y="341"/>
      <point x="211" y="341" type="curve" smooth="yes"/>
      <point x="238" y="341"/>
      <point x="273" y="356"/>
      <point x="396" y="419" type="curve"/>
      <point x="548" y="419" type="line" smooth="yes"/>
      <point x="605" y="419"/>
      <point x="615" y="441"/>
      <point x="616" y="460" type="curve" smooth="yes"/>
      <point x="618" y="496"/>
      <point x="557" y="551"/>
      <point x="515" y="551" type="curve" smooth="yes"/>
    </contour>
    <contour>
      <point x="230" y="857"/>
      <point x="147" y="752"/>
      <point x="147" y="646" type="curve" smooth="yes"/>
      <point x="147" y="564"/>
      <point x="208" y="492"/>
      <point x="284" y="455" type="curve"/>
      <point x="391" y="480" type="line"/>
      <point x="378" y="491"/>
      <point x="361" y="510"/>
      <point x="362" y="535" type="curve" smooth="yes"/>
      <point x="365" y="585"/>
      <point x="405" y="616"/>
      <point x="472" y="616" type="curve" smooth="yes"/>
      <point x="566" y="616"/>
      <point x="609" y="568"/>
      <point x="648" y="568" type="curve" smooth="yes"/>
      <point x="663" y="568"/>
      <point x="684" y="586"/>
      <point x="684" y="628" type="curve" smooth="yes"/>
      <point x="684" y="736"/>
      <point x="586" y="857"/>
      <point x="390" y="857" type="curve" smooth="yes"/>
    </contour>
  </outline>
</glyph>
<glyph name="gjKHA" format="1">
  <advance width="1287"/>
  <unicode hex="0A96"/>
  <outline>
    <contour>
      <point x="138" y="857"/>
      <point x="46" y="755"/>
      <point x="46" y="670" type="curve" smooth="yes"/>
      <point x="46" y="652"/>
      <point x="52" y="634"/>
      <point x="63" y="634" type="curve" smooth="yes"/>
      <point x="76" y="634"/>
      <point x="83" y="666"/>
      <point x="113" y="666" type="curve" smooth="yes"/>
      <point x="126" y="666"/>
      <point x="135" y="658"/>
      <point x="135" y="642" type="curve" smooth="yes"/>
      <point x="135" y="637"/>
      <point x="133" y="631"/>
      <point x="131" y="624" type="curve" smooth="yes"/>
      <point x="91" y="506" type="line" smooth="yes"/>
      <point x="74" y="456"/>
      <point x="65" y="413"/>
      <point x="65" y="372" type="curve" smooth="yes"/>
      <point x="65" y="252"/>
      <point x="137" y="170"/>
      <point x="317" y="170" type="curve" smooth="yes"/>
      <point x="526" y="170"/>
      <point x="761" y="361"/>
      <point x="761" y="566" type="curve" smooth="yes"/>
      <point x="761" y="636"/>
      <point x="723" y="676"/>
      <point x="661" y="676" type="curve" smooth="yes"/>
      <point x="601" y="676"/>
      <point x="538" y="632"/>
      <point x="538" y="535" type="curve" smooth="yes"/>
      <point x="538" y="488"/>
      <point x="557" y="460"/>
      <point x="573" y="436" type="curve"/>
      <point x="547" y="401"/>
      <point x="516" y="382"/>
      <point x="477" y="382" type="curve" smooth="yes"/>
      <point x="438" y="382"/>
      <point x="422" y="412"/>
      <point x="439" y="454" type="curve" smooth="yes"/>
      <point x="476" y="543" type="line" smooth="yes"/>
      <point x="493" y="585"/>
      <point x="502" y="628"/>
      <point x="502" y="672" type="curve" smooth="yes"/>
      <point x="502" y="774"/>
      <point x="425" y="857"/>
      <point x="279" y="857" type="curve" smooth="yes"/>
    </contour>
    <contour>
      <point x="818" y="490"/>
      <point x="786" y="470"/>
      <point x="742" y="470" type="curve"/>
      <point x="588" y="410" type="line"/>
      <point x="661" y="351"/>
      <point x="745" y="318"/>
      <point x="836" y="318" type="curve"/>
      <point x="836" y="548" type="line"/>
    </contour>
    <component base="gjmAA" xOffset="719"/>
  </outline>
</glyph>
<glyph name="gjGA" format="1">
  <advance width="1021"/>
  <unicode hex="0A97"/>
  <outline>
    <contour>
      <point x="141" y="857"/>
      <point x="55" y="774"/>
      <point x="55" y="691" type="curve" smooth="yes"/>
      <point x="55" y="674"/>
      <point x="61" y="656"/>
      <point x="72" y="656" type="curve" smooth="yes"/>
      <point x="87" y="656"/>
      <point x="97" y="688"/>
      <point x="122" y="688" type="curve" smooth="yes"/>
      <point x="138" y="688"/>
      <point x="147" y="672"/>
      <point x="147" y="642" type="curve" smooth="yes"/>
      <point x="147" y="551"/>
      <point x="100" y="458"/>
      <point x="47" y="458" type="curve" smooth="yes"/>
      <point x="14" y="458"/>
      <point x="11" y="491"/>
      <point x="-5" y="491" type="curve" smooth="yes"/>
      <point x="-13" y="491"/>
      <point x="-22" y="475"/>
      <point x="-22" y="448" type="curve" smooth="yes"/>
      <point x="-22" y="342"/>
      <point x="69" y="267"/>
      <point x="206" y="267" type="curve" smooth="yes"/>
      <point x="375" y="267"/>
      <point x="497" y="406"/>
      <point x="497" y="613" type="curve" smooth="yes"/>
      <point x="497" y="747"/>
      <point x="416" y="857"/>
      <point x="261" y="857" type="curve" smooth="yes"/>
    </contour>
    <component base="gjmAA" xOffset="453"/>
  </outline>
</glyph>
<glyph name="gjGHA" format="1">
  <advance width="1068"/>
  <unicode hex="0A98"/>
  <outline>
    <contour>
      <point x="157" y="857"/>
      <point x="63" y="762"/>
      <point x="63" y="649" type="curve" smooth="yes"/>
      <point x="63" y="568"/>
      <point x="128" y="500"/>
      <point x="221" y="468" type="curve"/>
      <point x="212" y="557" type="line"/>
      <point x="71" y="533"/>
      <point x="-22" y="472"/>
      <point x="-22" y="357" type="curve" smooth="yes"/>
      <point x="-22" y="250"/>
      <point x="67" y="170"/>
      <point x="229" y="170" type="curve" smooth="yes"/>
      <point x="432" y="170"/>
      <point x="573" y="288"/>
      <point x="656" y="484" type="curve"/>
      <point x="609" y="535" type="line"/>
      <point x="575" y="434"/>
      <point x="506" y="354"/>
      <point x="410" y="354" type="curve" smooth="yes"/>
      <point x="354" y="354"/>
      <point x="329" y="373"/>
      <point x="329" y="406" type="curve" smooth="yes"/>
      <point x="329" y="491"/>
      <point x="526" y="479"/>
      <point x="526" y="530" type="curve" smooth="yes"/>
      <point x="526" y="561"/>
      <point x="400" y="568"/>
      <point x="400" y="657" type="curve" smooth="yes"/>
      <point x="400" y="689"/>
      <point x="421" y="708"/>
      <point x="442" y="708" type="curve" smooth="yes"/>
      <point x="476" y="708"/>
      <point x="498" y="658"/>
      <point x="530" y="658" type="curve" smooth="yes"/>
      <point x="542" y="658"/>
      <point x="549" y="669"/>
      <point x="549" y="687" type="curve" smooth="yes"/>
      <point x="549" y="777"/>
      <point x="447" y="857"/>
      <point x="302" y="857" type="curve" smooth="yes"/>
    </contour>
    <component base="gjmAA" xOffset="496"/>
  </outline>
</glyph>
<glyph name="gjNGA" format="1">
  <advance width="680"/>
  <unicode hex="0A99"/>
  <outline>
    <contour>
      <point x="498" y="623"/>
      <point x="519" y="557"/>
      <point x="601" y="557" type="curve" smooth="yes"/>
      <point x="674" y="557"/>
      <point x="725" y="620"/>
      <point x="725" y="708" type="curve" smooth="yes"/>
      <point x="725" y="775"/>
      <point x="677" y="823"/>
      <point x="610" y="823" type="curve" smooth="yes"/>
      <point x="564" y="823"/>
      <point x="503" y="795"/>
      <point x="488" y="702" type="curve"/>
      <point x="435" y="805"/>
      <point x="349" y="857"/>
      <point x="260" y="857" type="curve" smooth="yes"/>
      <point x="177" y="857"/>
      <point x="121" y="796"/>
      <point x="121" y="718" type="curve" smooth="yes"/>
      <point x="121" y="572"/>
      <point x="383" y="493"/>
      <point x="383" y="384" type="curve" smooth="yes"/>
      <point x="383" y="322"/>
      <point x="333" y="285"/>
      <point x="259" y="285" type="curve" smooth="yes"/>
      <point x="133" y="285"/>
      <point x="28" y="403"/>
      <point x="-2" y="403" type="curve" smooth="yes"/>
      <point x="-23" y="403"/>
      <point x="-41" y="359"/>
      <point x="-41" y="293" type="curve" smooth="yes"/>
      <point x="-41" y="128"/>
      <point x="85" y="-4"/>
      <point x="301" y="-4" type="curve" smooth="yes"/>
      <point x="503" y="-4"/>
      <point x="626" y="102"/>
      <point x="626" y="255" type="curve" smooth="yes"/>
      <point x="626" y="434"/>
      <point x="410" y="504"/>
      <point x="410" y="581" type="curve" smooth="yes"/>
      <point x="410" y="607"/>
      <point x="425" y="623"/>
      <point x="451" y="623" type="curve" smooth="yes"/>
    </contour>
  </outline>
</glyph>
<glyph name="gjCA" format="1">
  <advance width="1108"/>
  <unicode hex="0A9A"/>
  <outline>
    <contour>
      <point x="221" y="857"/>
      <point x="111" y="761"/>
      <point x="89" y="623" type="curve" smooth="yes"/>
      <point x="86" y="603"/>
      <point x="98" y="590"/>
      <point x="109" y="590" type="curve" smooth="yes"/>
      <point x="122" y="591"/>
      <point x="136" y="614"/>
      <point x="160" y="615" type="curve" smooth="yes"/>
      <point x="177" y="616"/>
      <point x="188" y="602"/>
      <point x="184" y="579" type="curve" smooth="yes"/>
      <point x="179" y="546"/>
      <point x="159" y="506"/>
      <point x="114" y="461" type="curve"/>
      <point x="89" y="475"/>
      <point x="70" y="481"/>
      <point x="47" y="481" type="curve" smooth="yes"/>
      <point x="2" y="481"/>
      <point x="-41" y="452"/>
      <point x="-49" y="398" type="curve" smooth="yes"/>
      <point x="-61" y="325"/>
      <point x="15" y="233"/>
      <point x="160" y="233" type="curve" smooth="yes"/>
      <point x="379" y="233"/>
      <point x="561" y="433"/>
      <point x="561" y="643" type="curve" smooth="yes"/>
      <point x="561" y="783"/>
      <point x="473" y="857"/>
      <point x="362" y="857" type="curve" smooth="yes"/>
    </contour>
    <contour>
      <point x="595" y="356"/>
      <point x="557" y="315"/>
      <point x="490" y="315" type="curve" smooth="yes"/>
      <point x="436" y="315"/>
      <point x="363" y="341"/>
      <point x="266" y="400" type="curve"/>
      <point x="224" y="364" type="line"/>
      <point x="325" y="186"/>
      <point x="479" y="156"/>
      <point x="602" y="156" type="curve"/>
      <point x="617" y="424" type="line"/>
    </contour>
    <component base="gjmAA" xOffset="540"/>
  </outline>
</glyph>
<glyph name="gjCHA" format="1">
  <advance width="932"/>
  <unicode hex="0A9B"/>
  <outline>
    <contour>
      <point x="493" y="464"/>
      <point x="540" y="475"/>
      <point x="540" y="495" type="curve" smooth="yes"/>
      <point x="540" y="528"/>
      <point x="414" y="537"/>
      <point x="414" y="631" type="curve" smooth="yes"/>
      <point x="414" y="672"/>
      <point x="431" y="697"/>
      <point x="457" y="697" type="curve" smooth="yes"/>
      <point x="478" y="697"/>
      <point x="488" y="684"/>
      <point x="493" y="656" type="curve" smooth="yes"/>
      <point x="496" y="640"/>
      <point x="501" y="635"/>
      <point x="511" y="635" type="curve" smooth="yes"/>
      <point x="536" y="635"/>
      <point x="569" y="658"/>
      <point x="569" y="709" type="curve" smooth="yes"/>
      <point x="569" y="791"/>
      <point x="485" y="857"/>
      <point x="365" y="857" type="curve" smooth="yes"/>
      <point x="191" y="857"/>
      <point x="88" y="749"/>
      <point x="88" y="622" type="curve" smooth="yes"/>
      <point x="88" y="542"/>
      <point x="152" y="476"/>
      <point x="246" y="454" type="curve"/>
      <point x="212" y="516" type="line"/>
      <point x="69" y="490"/>
      <point x="-17" y="395"/>
      <point x="-26" y="265" type="curve" smooth="yes"/>
      <point x="-36" y="119"/>
      <point x="87" y="0"/>
      <point x="316" y="0" type="curve" smooth="yes"/>
      <point x="661" y="0"/>
      <point x="923" y="226"/>
      <point x="923" y="550" type="curve" smooth="yes"/>
      <point x="923" y="689"/>
      <point x="862" y="777"/>
      <point x="765" y="777" type="curve" smooth="yes"/>
      <point x="668" y="777"/>
      <point x="607" y="695"/>
      <point x="607" y="565" type="curve" smooth="yes"/>
      <point x="607" y="476"/>
      <point x="643" y="411"/>
      <point x="708" y="355" type="curve"/>
      <point x="752" y="407" type="line"/>
      <point x="729" y="443"/>
      <point x="718" y="473"/>
      <point x="718" y="512" type="curve" smooth="yes"/>
      <point x="718" y="552"/>
      <point x="732" y="570"/>
      <point x="747" y="570" type="curve" smooth="yes"/>
      <point x="762" y="570"/>
      <point x="776" y="552"/>
      <point x="776" y="516" type="curve" smooth="yes"/>
      <point x="776" y="380"/>
      <point x="623" y="270"/>
      <point x="455" y="270" type="curve" smooth="yes"/>
      <point x="368" y="270"/>
      <point x="320" y="300"/>
      <point x="320" y="353" type="curve" smooth="yes"/>
      <point x="320" y="403"/>
      <point x="369" y="433"/>
      <point x="425" y="447" type="curve" smooth="yes"/>
    </contour>
  </outline>
</glyph>
<glyph name="gjJA" format="1">
  <advance width="928"/>
  <unicode hex="0A9C"/>
  <outline>
    <contour>
      <point x="652" y="937"/>
      <point x="584" y="873"/>
      <point x="584" y="829" type="curve" smooth="yes"/>
      <point x="584" y="794"/>
      <point x="644" y="818"/>
      <point x="644" y="769" type="curve" smooth="yes"/>
      <point x="644" y="734"/>
      <point x="607" y="687"/>
      <point x="427" y="547" type="curve" smooth="yes"/>
      <point x="261" y="418"/>
      <point x="219" y="339"/>
      <point x="219" y="246" type="curve" smooth="yes"/>
      <point x="219" y="100"/>
      <point x="338" y="-4"/>
      <point x="506" y="-4" type="curve" smooth="yes"/>
      <point x="651" y="-4"/>
      <point x="754" y="77"/>
      <point x="754" y="192" type="curve" smooth="yes"/>
      <point x="754" y="262"/>
      <point x="706" y="324"/>
      <point x="632" y="349" type="curve"/>
      <point x="745" y="403" type="line" smooth="yes"/>
      <point x="908" y="481"/>
      <point x="998" y="569"/>
      <point x="998" y="707" type="curve" smooth="yes"/>
      <point x="998" y="838"/>
      <point x="894" y="937"/>
      <point x="756" y="937" type="curve" smooth="yes"/>
    </contour>
    <contour>
      <point x="570" y="286"/>
      <point x="582" y="266"/>
      <point x="582" y="239" type="curve" smooth="yes"/>
      <point x="582" y="208"/>
      <point x="558" y="183"/>
      <point x="529" y="183" type="curve" smooth="yes"/>
      <point x="501" y="183"/>
      <point x="482" y="199"/>
      <point x="482" y="225" type="curve" smooth="yes"/>
      <point x="482" y="252"/>
      <point x="502" y="275"/>
      <point x="549" y="303" type="curve"/>
    </contour>
    <contour>
      <point x="108" y="857"/>
      <point x="30" y="792"/>
      <point x="30" y="683" type="curve" smooth="yes"/>
      <point x="30" y="554"/>
      <point x="129" y="475"/>
      <point x="219" y="475" type="curve" smooth="yes"/>
      <point x="239" y="475"/>
      <point x="249" y="484"/>
      <point x="249" y="496" type="curve" smooth="yes"/>
      <point x="249" y="515"/>
      <point x="229" y="522"/>
      <point x="229" y="551" type="curve" smooth="yes"/>
      <point x="229" y="577"/>
      <point x="247" y="595"/>
      <point x="285" y="595" type="curve" smooth="yes"/>
      <point x="319" y="595"/>
      <point x="359" y="586"/>
      <point x="415" y="524" type="curve"/>
      <point x="471" y="568" type="line"/>
      <point x="409" y="785"/>
      <point x="311" y="857"/>
      <point x="198" y="857" type="curve" smooth="yes"/>
    </contour>
  </outline>
</glyph>
<glyph name="gjJHA" format="1">
  <advance width="1150"/>
  <unicode hex="0A9D"/>
  <outline>
    <contour>
      <point x="185" y="857"/>
      <point x="103" y="765"/>
      <point x="103" y="685" type="curve" smooth="yes"/>
      <point x="103" y="669"/>
      <point x="111" y="660"/>
      <point x="119" y="660" type="curve" smooth="yes"/>
      <point x="136" y="660"/>
      <point x="147" y="686"/>
      <point x="176" y="686" type="curve" smooth="yes"/>
      <point x="208" y="686"/>
      <point x="237" y="659"/>
      <point x="237" y="598" type="curve" smooth="yes"/>
      <point x="237" y="423"/>
      <point x="143" y="242"/>
      <point x="70" y="242" type="curve" smooth="yes"/>
      <point x="21" y="242"/>
      <point x="13" y="289"/>
      <point x="-8" y="289" type="curve" smooth="yes"/>
      <point x="-21" y="289"/>
      <point x="-30" y="272"/>
      <point x="-30" y="237" type="curve" smooth="yes"/>
      <point x="-30" y="101"/>
      <point x="63" y="-4"/>
      <point x="212" y="-4" type="curve" smooth="yes"/>
      <point x="373" y="-4"/>
      <point x="560" y="165"/>
      <point x="560" y="527" type="curve" smooth="yes"/>
      <point x="560" y="748"/>
      <point x="453" y="857"/>
      <point x="312" y="857" type="curve" smooth="yes"/>
    </contour>
    <contour>
      <point x="699" y="582"/>
      <point x="608" y="532"/>
      <point x="515" y="409" type="curve"/>
      <point x="497" y="212" type="line"/>
      <point x="558" y="340"/>
      <point x="603" y="388"/>
      <point x="664" y="388" type="curve" smooth="yes"/>
      <point x="708" y="388"/>
      <point x="739" y="351"/>
      <point x="739" y="302" type="curve" smooth="yes"/>
      <point x="739" y="244"/>
      <point x="713" y="211"/>
      <point x="663" y="211" type="curve" smooth="yes"/>
      <point x="613" y="211"/>
      <point x="609" y="253"/>
      <point x="588" y="253" type="curve" smooth="yes"/>
      <point x="576" y="253"/>
      <point x="570" y="237"/>
      <point x="570" y="211" type="curve" smooth="yes"/>
      <point x="570" y="85"/>
      <point x="660" y="-4"/>
      <point x="808" y="-4" type="curve" smooth="yes"/>
      <point x="970" y="-4"/>
      <point x="1094" y="122"/>
      <point x="1094" y="302" type="curve" smooth="yes"/>
      <point x="1094" y="482"/>
      <point x="974" y="582"/>
      <point x="832" y="582" type="curve" smooth="yes"/>
    </contour>
    <contour>
      <point x="969" y="470" type="line"/>
      <point x="1114" y="709" type="line" smooth="yes"/>
      <point x="1129" y="734"/>
      <point x="1138" y="753"/>
      <point x="1138" y="773" type="curve" smooth="yes"/>
      <point x="1138" y="815"/>
      <point x="1097" y="844"/>
      <point x="1019" y="844" type="curve" smooth="yes"/>
      <point x="918" y="844"/>
      <point x="778" y="808"/>
      <point x="754" y="733" type="curve" smooth="yes"/>
      <point x="670" y="470" type="line"/>
    </contour>
  </outline>
</glyph>
<glyph name="gjNYA" format="1">
  <advance width="1030"/>
  <unicode hex="0A9E"/>
  <outline>
    <contour>
      <point x="540" y="427"/>
      <point x="494" y="399"/>
      <point x="387" y="417" type="curve"/>
      <point x="305" y="372" type="line"/>
      <point x="374" y="297"/>
      <point x="456" y="260"/>
      <point x="557" y="260" type="curve"/>
      <point x="572" y="528" type="line"/>
    </contour>
    <contour>
      <point x="141" y="857"/>
      <point x="55" y="774"/>
      <point x="55" y="691" type="curve" smooth="yes"/>
      <point x="55" y="674"/>
      <point x="61" y="656"/>
      <point x="72" y="656" type="curve" smooth="yes"/>
      <point x="87" y="656"/>
      <point x="97" y="688"/>
      <point x="122" y="688" type="curve" smooth="yes"/>
      <point x="138" y="688"/>
      <point x="147" y="672"/>
      <point x="147" y="642" type="curve" smooth="yes"/>
      <point x="147" y="551"/>
      <point x="100" y="458"/>
      <point x="47" y="458" type="curve" smooth="yes"/>
      <point x="14" y="458"/>
      <point x="11" y="491"/>
      <point x="-5" y="491" type="curve" smooth="yes"/>
      <point x="-13" y="491"/>
      <point x="-22" y="475"/>
      <point x="-22" y="448" type="curve" smooth="yes"/>
      <point x="-22" y="342"/>
      <point x="69" y="267"/>
      <point x="206" y="267" type="curve" smooth="yes"/>
      <point x="375" y="267"/>
      <point x="497" y="406"/>
      <point x="497" y="613" type="curve" smooth="yes"/>
      <point x="497" y="747"/>
      <point x="416" y="857"/>
      <point x="261" y="857" type="curve" smooth="yes"/>
    </contour>
    <component base="gjmAA" xOffset="463"/>
  </outline>
</glyph>
<glyph name="gjTTA" format="1">
  <advance width="683"/>
  <unicode hex="0A9F"/>
  <outline>
    <contour>
      <point x="596" y="398"/>
      <point x="509" y="280"/>
      <point x="393" y="280" type="curve" smooth="yes"/>
      <point x="323" y="280"/>
      <point x="286" y="302"/>
      <point x="286" y="348" type="curve" smooth="yes"/>
      <point x="286" y="464"/>
      <point x="685" y="450"/>
      <point x="685" y="685" type="curve" smooth="yes"/>
      <point x="685" y="783"/>
      <point x="597" y="857"/>
      <point x="460" y="857" type="curve" smooth="yes"/>
      <point x="295" y="857"/>
      <point x="192" y="746"/>
      <point x="192" y="603" type="curve" smooth="yes"/>
      <point x="192" y="579"/>
      <point x="201" y="568"/>
      <point x="210" y="568" type="curve" smooth="yes"/>
      <point x="237" y="568"/>
      <point x="273" y="616"/>
      <point x="321" y="616" type="curve" smooth="yes"/>
      <point x="353" y="616"/>
      <point x="371" y="598"/>
      <point x="371" y="573" type="curve" smooth="yes"/>
      <point x="371" y="470"/>
      <point x="-40" y="480"/>
      <point x="-40" y="213" type="curve" smooth="yes"/>
      <point x="-40" y="78"/>
      <point x="89" y="-9"/>
      <point x="280" y="-9" type="curve" smooth="yes"/>
      <point x="520" y="-9"/>
      <point x="652" y="134"/>
      <point x="652" y="311" type="curve" smooth="yes"/>
      <point x="652" y="364"/>
      <point x="641" y="398"/>
      <point x="626" y="398" type="curve" smooth="yes"/>
    </contour>
  </outline>
</glyph>
<glyph name="gjTTHA" format="1">
  <advance width="780"/>
  <unicode hex="0AA0"/>
  <outline>
    <contour>
      <point x="501" y="622"/>
      <point x="515" y="638"/>
      <point x="539" y="638" type="curve" smooth="yes"/>
      <point x="587" y="638"/>
      <point x="642" y="592"/>
      <point x="683" y="592" type="curve" smooth="yes"/>
      <point x="695" y="592"/>
      <point x="705" y="607"/>
      <point x="705" y="633" type="curve" smooth="yes"/>
      <point x="705" y="753"/>
      <point x="593" y="857"/>
      <point x="430" y="857" type="curve" smooth="yes"/>
      <point x="299" y="857"/>
      <point x="240" y="782"/>
      <point x="240" y="723" type="curve" smooth="yes"/>
      <point x="240" y="686"/>
      <point x="257" y="657"/>
      <point x="288" y="623" type="curve"/>
      <point x="137" y="623"/>
      <point x="6" y="554"/>
      <point x="-31" y="406" type="curve" smooth="yes"/>
      <point x="-92" y="161"/>
      <point x="124" y="-9"/>
      <point x="385" y="-9" type="curve" smooth="yes"/>
      <point x="610" y="-9"/>
      <point x="735" y="136"/>
      <point x="735" y="284" type="curve" smooth="yes"/>
      <point x="735" y="391"/>
      <point x="684" y="448"/>
      <point x="582" y="517" type="curve" smooth="yes"/>
      <point x="512" y="564"/>
      <point x="501" y="582"/>
      <point x="501" y="602" type="curve" smooth="yes"/>
    </contour>
    <contour>
      <point x="423" y="483"/>
      <point x="427" y="445"/>
      <point x="393" y="301" type="curve" smooth="yes"/>
      <point x="362" y="170"/>
      <point x="340" y="138"/>
      <point x="305" y="138" type="curve" smooth="yes"/>
      <point x="270" y="138"/>
      <point x="266" y="170"/>
      <point x="297" y="301" type="curve" smooth="yes"/>
      <point x="331" y="445"/>
      <point x="353" y="483"/>
      <point x="388" y="483" type="curve" smooth="yes"/>
    </contour>
  </outline>
</glyph>
<glyph name="gjDDA" format="1">
  <advance width="664"/>
  <unicode hex="0AA1"/>
  <outline>
    <contour>
      <point x="182" y="857"/>
      <point x="121" y="796"/>
      <point x="121" y="718" type="curve" smooth="yes"/>
      <point x="121" y="572"/>
      <point x="383" y="493"/>
      <point x="383" y="384" type="curve" smooth="yes"/>
      <point x="383" y="322"/>
      <point x="333" y="285"/>
      <point x="259" y="285" type="curve" smooth="yes"/>
      <point x="133" y="285"/>
      <point x="28" y="403"/>
      <point x="-2" y="403" type="curve" smooth="yes"/>
      <point x="-23" y="403"/>
      <point x="-41" y="359"/>
      <point x="-41" y="293" type="curve" smooth="yes"/>
      <point x="-41" y="128"/>
      <point x="85" y="-4"/>
      <point x="301" y="-4" type="curve" smooth="yes"/>
      <point x="503" y="-4"/>
      <point x="626" y="102"/>
      <point x="626" y="255" type="curve" smooth="yes"/>
      <point x="626" y="434"/>
      <point x="410" y="504"/>
      <point x="410" y="581" type="curve" smooth="yes"/>
      <point x="410" y="607"/>
      <point x="425" y="623"/>
      <point x="451" y="623" type="curve" smooth="yes"/>
      <point x="500" y="623"/>
      <point x="530" y="568"/>
      <point x="559" y="568" type="curve" smooth="yes"/>
      <point x="574" y="568"/>
      <point x="588" y="591"/>
      <point x="587" y="631" type="curve" smooth="yes"/>
      <point x="584" y="739"/>
      <point x="477" y="857"/>
      <point x="301" y="857" type="curve" smooth="yes"/>
    </contour>
  </outline>
</glyph>
<glyph name="gjDDHA" format="1">
  <advance width="814"/>
  <unicode hex="0AA2"/>
  <outline>
    <contour>
      <point x="375" y="857"/>
      <point x="352" y="832"/>
      <point x="352" y="816" type="curve" smooth="yes"/>
      <point x="352" y="795"/>
      <point x="386" y="781"/>
      <point x="386" y="750" type="curve" smooth="yes"/>
      <point x="386" y="718"/>
      <point x="367" y="699"/>
      <point x="206" y="623" type="curve" smooth="yes"/>
      <point x="51" y="550"/>
      <point x="-17" y="480"/>
      <point x="-44" y="375" type="curve" smooth="yes"/>
      <point x="-99" y="161"/>
      <point x="142" y="-7"/>
      <point x="448" y="-7" type="curve" smooth="yes"/>
      <point x="646" y="-7"/>
      <point x="751" y="79"/>
      <point x="751" y="188" type="curve" smooth="yes"/>
      <point x="751" y="279"/>
      <point x="674" y="360"/>
      <point x="532" y="360" type="curve" smooth="yes"/>
      <point x="372" y="360"/>
      <point x="286" y="274"/>
      <point x="255" y="162" type="curve"/>
      <point x="230" y="181"/>
      <point x="219" y="202"/>
      <point x="219" y="230" type="curve" smooth="yes"/>
      <point x="219" y="305"/>
      <point x="273" y="362"/>
      <point x="493" y="418" type="curve" smooth="yes"/>
      <point x="784" y="492"/>
      <point x="834" y="556"/>
      <point x="834" y="643" type="curve" smooth="yes"/>
      <point x="834" y="755"/>
      <point x="688" y="857"/>
      <point x="469" y="857" type="curve" smooth="yes"/>
    </contour>
    <contour>
      <point x="448" y="189"/>
      <point x="463" y="175"/>
      <point x="463" y="151" type="curve" smooth="yes"/>
      <point x="463" y="124"/>
      <point x="440" y="108"/>
      <point x="395" y="108" type="curve" smooth="yes"/>
      <point x="381" y="108"/>
      <point x="358" y="111"/>
      <point x="335" y="121" type="curve"/>
      <point x="345" y="165"/>
      <point x="379" y="189"/>
      <point x="409" y="189" type="curve" smooth="yes"/>
    </contour>
  </outline>
</glyph>
<glyph name="gjNNA" format="1">
  <advance width="1538"/>
  <unicode hex="0AA3"/>
  <outline>
    <contour>
      <point x="641" y="857"/>
      <point x="555" y="774"/>
      <point x="555" y="691" type="curve" smooth="yes"/>
      <point x="555" y="674"/>
      <point x="561" y="656"/>
      <point x="572" y="656" type="curve" smooth="yes"/>
      <point x="587" y="656"/>
      <point x="597" y="688"/>
      <point x="622" y="688" type="curve" smooth="yes"/>
      <point x="638" y="688"/>
      <point x="647" y="672"/>
      <point x="647" y="642" type="curve" smooth="yes"/>
      <point x="647" y="551"/>
      <point x="600" y="458"/>
      <point x="547" y="458" type="curve" smooth="yes"/>
      <point x="514" y="458"/>
      <point x="511" y="491"/>
      <point x="495" y="491" type="curve" smooth="yes"/>
      <point x="487" y="491"/>
      <point x="478" y="475"/>
      <point x="478" y="448" type="curve" smooth="yes"/>
      <point x="478" y="342"/>
      <point x="569" y="267"/>
      <point x="706" y="267" type="curve" smooth="yes"/>
      <point x="875" y="267"/>
      <point x="997" y="406"/>
      <point x="997" y="613" type="curve" smooth="yes"/>
      <point x="997" y="747"/>
      <point x="916" y="857"/>
      <point x="761" y="857" type="curve" smooth="yes"/>
    </contour>
    <contour>
      <point x="299" y="844"/>
      <point x="151" y="809"/>
      <point x="127" y="733" type="curve" smooth="yes"/>
      <point x="33" y="435" type="line" smooth="yes"/>
      <point x="-1" y="325"/>
      <point x="30" y="264"/>
      <point x="148" y="223" type="curve" smooth="yes"/>
      <point x="584" y="73" type="line" smooth="yes"/>
      <point x="640" y="54"/>
      <point x="656" y="41"/>
      <point x="656" y="15" type="curve" smooth="yes"/>
      <point x="656" y="-17"/>
      <point x="630" y="-35"/>
      <point x="590" y="-35" type="curve" smooth="yes"/>
      <point x="550" y="-35"/>
      <point x="535" y="-18"/>
      <point x="515" y="-18" type="curve" smooth="yes"/>
      <point x="502" y="-18"/>
      <point x="493" y="-34"/>
      <point x="493" y="-64" type="curve" smooth="yes"/>
      <point x="493" y="-177"/>
      <point x="580" y="-272"/>
      <point x="723" y="-272" type="curve" smooth="yes"/>
      <point x="853" y="-272"/>
      <point x="944" y="-183"/>
      <point x="944" y="-70" type="curve" smooth="yes"/>
      <point x="944" y="45"/>
      <point x="863" y="110"/>
      <point x="724" y="158" type="curve" smooth="yes"/>
      <point x="448" y="254" type="line" smooth="yes"/>
      <point x="369" y="281"/>
      <point x="353" y="298"/>
      <point x="371" y="353" type="curve" smooth="yes"/>
      <point x="493" y="733" type="line" smooth="yes"/>
      <point x="499" y="750"/>
      <point x="501" y="766"/>
      <point x="501" y="779" type="curve" smooth="yes"/>
      <point x="501" y="809"/>
      <point x="488" y="844"/>
      <point x="400" y="844" type="curve" smooth="yes"/>
    </contour>
    <component base="gjmAA" xOffset="960"/>
  </outline>
</glyph>
<glyph name="gjTA" format="1">
  <advance width="1032"/>
  <unicode hex="0AA4"/>
  <outline>
    <contour>
      <point x="136" y="605"/>
      <point x="-27" y="450"/>
      <point x="-27" y="245" type="curve" smooth="yes"/>
      <point x="-27" y="95"/>
      <point x="81" y="-4"/>
      <point x="208" y="-4" type="curve" smooth="yes"/>
      <point x="338" y="-4"/>
      <point x="433" y="85"/>
      <point x="433" y="184" type="curve" smooth="yes"/>
      <point x="433" y="212"/>
      <point x="427" y="220"/>
      <point x="416" y="220" type="curve" smooth="yes"/>
      <point x="404" y="220"/>
      <point x="383" y="187"/>
      <point x="365" y="187" type="curve" smooth="yes"/>
      <point x="338" y="187"/>
      <point x="314" y="219"/>
      <point x="314" y="266" type="curve" smooth="yes"/>
      <point x="314" y="389"/>
      <point x="403" y="478"/>
      <point x="517" y="478" type="curve" smooth="yes"/>
      <point x="579" y="478"/>
      <point x="654" y="461"/>
      <point x="701" y="442" type="curve"/>
      <point x="664" y="554" type="line"/>
      <point x="565" y="587"/>
      <point x="475" y="605"/>
      <point x="378" y="605" type="curve" smooth="yes"/>
    </contour>
    <component base="gjmAA" xOffset="464"/>
  </outline>
</glyph>
<glyph name="gjTHA" format="1">
  <advance width="1209"/>
  <unicode hex="0AA5"/>
  <outline>
    <contour>
      <point x="188" y="857"/>
      <point x="96" y="767"/>
      <point x="96" y="675" type="curve" smooth="yes"/>
      <point x="96" y="583"/>
      <point x="192" y="522"/>
      <point x="325" y="522" type="curve"/>
      <point x="362" y="583" type="line"/>
      <point x="304" y="583"/>
      <point x="276" y="609"/>
      <point x="276" y="642" type="curve" smooth="yes"/>
      <point x="276" y="668"/>
      <point x="297" y="687"/>
      <point x="317" y="687" type="curve" smooth="yes"/>
      <point x="337" y="687"/>
      <point x="360" y="674"/>
      <point x="360" y="643" type="curve" smooth="yes"/>
      <point x="360" y="600"/>
      <point x="328" y="563"/>
      <point x="186" y="517" type="curve" smooth="yes"/>
      <point x="36" y="469"/>
      <point x="10" y="448"/>
      <point x="10" y="404" type="curve" smooth="yes"/>
      <point x="10" y="283"/>
      <point x="196" y="170"/>
      <point x="393" y="170" type="curve" smooth="yes"/>
      <point x="568" y="170"/>
      <point x="674" y="244"/>
      <point x="739" y="340" type="curve"/>
      <point x="736" y="481" type="line"/>
      <point x="700" y="380"/>
      <point x="611" y="333"/>
      <point x="497" y="333" type="curve" smooth="yes"/>
      <point x="435" y="333"/>
      <point x="404" y="344"/>
      <point x="440" y="362" type="curve" smooth="yes"/>
      <point x="513" y="399" type="line" smooth="yes"/>
      <point x="622" y="453"/>
      <point x="678" y="522"/>
      <point x="678" y="623" type="curve" smooth="yes"/>
      <point x="678" y="743"/>
      <point x="562" y="857"/>
      <point x="355" y="857" type="curve" smooth="yes"/>
    </contour>
    <component base="gjmAA" xOffset="641"/>
  </outline>
</glyph>
<glyph name="gjDA" format="1">
  <advance width="639"/>
  <unicode hex="0AA6"/>
  <outline>
    <contour>
      <point x="218" y="856"/>
      <point x="98" y="758"/>
      <point x="98" y="611" type="curve" smooth="yes"/>
      <point x="98" y="530"/>
      <point x="153" y="467"/>
      <point x="256" y="448" type="curve"/>
      <point x="216" y="522" type="line"/>
      <point x="67" y="496"/>
      <point x="-27" y="407"/>
      <point x="-27" y="276" type="curve" smooth="yes"/>
      <point x="-27" y="127"/>
      <point x="90" y="0"/>
      <point x="294" y="0" type="curve" smooth="yes"/>
      <point x="469" y="0"/>
      <point x="600" y="130"/>
      <point x="600" y="254" type="curve" smooth="yes"/>
      <point x="600" y="289"/>
      <point x="593" y="305"/>
      <point x="580" y="305" type="curve" smooth="yes"/>
      <point x="558" y="305"/>
      <point x="522" y="273"/>
      <point x="421" y="273" type="curve" smooth="yes"/>
      <point x="355" y="273"/>
      <point x="313" y="302"/>
      <point x="313" y="354" type="curve" smooth="yes"/>
      <point x="313" y="408"/>
      <point x="364" y="435"/>
      <point x="435" y="452" type="curve" smooth="yes"/>
      <point x="503" y="469"/>
      <point x="550" y="481"/>
      <point x="550" y="501" type="curve" smooth="yes"/>
      <point x="550" y="534"/>
      <point x="424" y="536"/>
      <point x="424" y="627" type="curve" smooth="yes"/>
      <point x="424" y="669"/>
      <point x="440" y="694"/>
      <point x="470" y="694" type="curve" smooth="yes"/>
      <point x="489" y="694"/>
      <point x="501" y="681"/>
      <point x="503" y="656" type="curve" smooth="yes"/>
      <point x="505" y="635"/>
      <point x="507" y="631"/>
      <point x="517" y="631" type="curve" smooth="yes"/>
      <point x="559" y="631"/>
      <point x="588" y="664"/>
      <point x="583" y="718" type="curve" smooth="yes"/>
      <point x="577" y="791"/>
      <point x="512" y="856"/>
      <point x="382" y="856" type="curve" smooth="yes"/>
    </contour>
  </outline>
</glyph>
<glyph name="gjDHA" format="1">
  <advance width="1047"/>
  <unicode hex="0AA7"/>
  <outline>
    <contour>
      <point x="74" y="560"/>
      <point x="139" y="500"/>
      <point x="232" y="468" type="curve"/>
      <point x="223" y="557" type="line"/>
      <point x="82" y="533"/>
      <point x="-11" y="472"/>
      <point x="-11" y="357" type="curve" smooth="yes"/>
      <point x="-11" y="250"/>
      <point x="85" y="170"/>
      <point x="243" y="170" type="curve" smooth="yes"/>
      <point x="436" y="170"/>
      <point x="584" y="294"/>
      <point x="656" y="464" type="curve"/>
      <point x="609" y="535" type="line"/>
      <point x="575" y="434"/>
      <point x="516" y="354"/>
      <point x="416" y="354" type="curve" smooth="yes"/>
      <point x="354" y="354"/>
      <point x="329" y="366"/>
      <point x="329" y="398" type="curve" smooth="yes"/>
      <point x="329" y="502"/>
      <point x="526" y="479"/>
      <point x="526" y="530" type="curve" smooth="yes"/>
      <point x="526" y="561"/>
      <point x="400" y="568"/>
      <point x="401" y="633" type="curve" smooth="yes"/>
      <point x="401" y="668"/>
      <point x="445" y="676"/>
      <point x="490" y="690" type="curve" smooth="yes"/>
      <point x="573" y="716"/>
      <point x="605" y="758"/>
      <point x="605" y="821" type="curve" smooth="yes"/>
      <point x="605" y="945"/>
      <point x="474" y="999"/>
      <point x="410" y="999" type="curve" smooth="yes"/>
      <point x="386" y="999"/>
      <point x="378" y="992"/>
      <point x="378" y="982" type="curve" smooth="yes"/>
      <point x="378" y="966"/>
      <point x="395" y="951"/>
      <point x="395" y="925" type="curve" smooth="yes"/>
      <point x="395" y="833"/>
      <point x="74" y="877"/>
      <point x="74" y="654" type="curve" smooth="yes"/>
    </contour>
    <component base="gjmAA" xOffset="497"/>
  </outline>
</glyph>
<glyph name="gjNA" format="1">
  <advance width="995"/>
  <unicode hex="0AA8"/>
  <outline>
    <contour>
      <point x="773" y="844"/>
      <point x="625" y="809"/>
      <point x="601" y="733" type="curve" smooth="yes"/>
      <point x="489" y="379" type="line" smooth="yes"/>
      <point x="460" y="287"/>
      <point x="447" y="234"/>
      <point x="447" y="186" type="curve" smooth="yes"/>
      <point x="447" y="85"/>
      <point x="506" y="-4"/>
      <point x="666" y="-4" type="curve" smooth="yes"/>
      <point x="806" y="-4"/>
      <point x="899" y="98"/>
      <point x="899" y="184" type="curve" smooth="yes"/>
      <point x="899" y="202"/>
      <point x="893" y="220"/>
      <point x="882" y="220" type="curve" smooth="yes"/>
      <point x="869" y="220"/>
      <point x="861" y="187"/>
      <point x="831" y="187" type="curve" smooth="yes"/>
      <point x="813" y="187"/>
      <point x="805" y="203"/>
      <point x="813" y="229" type="curve" smooth="yes"/>
      <point x="967" y="733" type="line" smooth="yes"/>
      <point x="972" y="750"/>
      <point x="975" y="766"/>
      <point x="975" y="779" type="curve" smooth="yes"/>
      <point x="975" y="809"/>
      <point x="962" y="844"/>
      <point x="874" y="844" type="curve" smooth="yes"/>
    </contour>
    <contour>
      <point x="107" y="664"/>
      <point x="-34" y="554"/>
      <point x="-32" y="389" type="curve" smooth="yes"/>
      <point x="-30" y="251"/>
      <point x="71" y="170"/>
      <point x="203" y="170" type="curve" smooth="yes"/>
      <point x="318" y="170"/>
      <point x="415" y="250"/>
      <point x="415" y="351" type="curve" smooth="yes"/>
      <point x="415" y="376"/>
      <point x="409" y="395"/>
      <point x="400" y="395" type="curve" smooth="yes"/>
      <point x="384" y="395"/>
      <point x="378" y="363"/>
      <point x="349" y="363" type="curve" smooth="yes"/>
      <point x="330" y="363"/>
      <point x="308" y="377"/>
      <point x="308" y="414" type="curve" smooth="yes"/>
      <point x="308" y="474"/>
      <point x="353" y="510"/>
      <point x="412" y="510" type="curve" smooth="yes"/>
      <point x="478" y="510"/>
      <point x="548" y="477"/>
      <point x="617" y="427" type="curve"/>
      <point x="659" y="494" type="line"/>
      <point x="562" y="601"/>
      <point x="432" y="664"/>
      <point x="291" y="664" type="curve" smooth="yes"/>
    </contour>
  </outline>
</glyph>
<glyph name="gjPA" format="1">
  <advance width="1049"/>
  <unicode hex="0AAA"/>
  <outline>
    <contour>
      <point x="110" y="857"/>
      <point x="28" y="755"/>
      <point x="28" y="670" type="curve" smooth="yes"/>
      <point x="28" y="652"/>
      <point x="34" y="634"/>
      <point x="45" y="634" type="curve" smooth="yes"/>
      <point x="58" y="634"/>
      <point x="65" y="666"/>
      <point x="95" y="666" type="curve" smooth="yes"/>
      <point x="108" y="666"/>
      <point x="117" y="658"/>
      <point x="117" y="642" type="curve" smooth="yes"/>
      <point x="117" y="637"/>
      <point x="115" y="631"/>
      <point x="113" y="624" type="curve" smooth="yes"/>
      <point x="74" y="506" type="line" smooth="yes"/>
      <point x="59" y="460"/>
      <point x="48" y="413"/>
      <point x="48" y="372" type="curve" smooth="yes"/>
      <point x="48" y="252"/>
      <point x="120" y="170"/>
      <point x="275" y="170" type="curve" smooth="yes"/>
      <point x="413" y="170"/>
      <point x="507" y="240"/>
      <point x="573" y="329" type="curve"/>
      <point x="573" y="472" type="line"/>
      <point x="550" y="403"/>
      <point x="506" y="361"/>
      <point x="465" y="361" type="curve" smooth="yes"/>
      <point x="425" y="361"/>
      <point x="410" y="382"/>
      <point x="410" y="408" type="curve" smooth="yes"/>
      <point x="410" y="422"/>
      <point x="414" y="439"/>
      <point x="420" y="454" type="curve" smooth="yes"/>
      <point x="455" y="543" type="line" smooth="yes"/>
      <point x="472" y="587"/>
      <point x="481" y="624"/>
      <point x="481" y="672" type="curve" smooth="yes"/>
      <point x="481" y="777"/>
      <point x="413" y="857"/>
      <point x="271" y="857" type="curve" smooth="yes"/>
    </contour>
    <component base="gjmAA" xOffset="481"/>
  </outline>
</glyph>
<glyph name="gjPHA" format="1">
  <advance width="692"/>
  <unicode hex="0AAB"/>
  <outline>
    <contour>
      <point x="497" y="547"/>
      <point x="475" y="543"/>
      <point x="436" y="524" type="curve" smooth="yes"/>
      <point x="334" y="473" type="line"/>
      <point x="129" y="473" type="line" smooth="yes"/>
      <point x="81" y="473"/>
      <point x="69" y="449"/>
      <point x="68" y="430" type="curve" smooth="yes"/>
      <point x="65" y="387"/>
      <point x="151" y="337"/>
      <point x="211" y="337" type="curve" smooth="yes"/>
      <point x="238" y="337"/>
      <point x="273" y="352"/>
      <point x="396" y="415" type="curve"/>
      <point x="548" y="415" type="line" smooth="yes"/>
      <point x="605" y="415"/>
      <point x="615" y="437"/>
      <point x="616" y="456" type="curve" smooth="yes"/>
      <point x="618" y="492"/>
      <point x="557" y="547"/>
      <point x="515" y="547" type="curve" smooth="yes"/>
    </contour>
    <contour>
      <point x="230" y="857"/>
      <point x="147" y="752"/>
      <point x="147" y="646" type="curve" smooth="yes"/>
      <point x="147" y="564"/>
      <point x="208" y="492"/>
      <point x="284" y="455" type="curve"/>
      <point x="391" y="480" type="line"/>
      <point x="378" y="491"/>
      <point x="361" y="510"/>
      <point x="362" y="535" type="curve" smooth="yes"/>
      <point x="365" y="585"/>
      <point x="405" y="616"/>
      <point x="472" y="616" type="curve" smooth="yes"/>
      <point x="566" y="616"/>
      <point x="609" y="568"/>
      <point x="648" y="568" type="curve" smooth="yes"/>
      <point x="663" y="568"/>
      <point x="684" y="586"/>
      <point x="684" y="628" type="curve" smooth="yes"/>
      <point x="684" y="736"/>
      <point x="586" y="857"/>
      <point x="390" y="857" type="curve" smooth="yes"/>
    </contour>
    <contour>
      <point x="297" y="409" type="line"/>
      <point x="341" y="383"/>
      <point x="363" y="359"/>
      <point x="363" y="321" type="curve" smooth="yes"/>
      <point x="363" y="244"/>
      <point x="256" y="223"/>
      <point x="172" y="241" type="curve"/>
      <point x="145" y="307"/>
      <point x="113" y="339"/>
      <point x="61" y="339" type="curve" smooth="yes"/>
      <point x="20" y="339"/>
      <point x="-12" y="315"/>
      <point x="-26" y="265" type="curve" smooth="yes"/>
      <point x="-61" y="141"/>
      <point x="63" y="-6"/>
      <point x="338" y="-6" type="curve" smooth="yes"/>
      <point x="522" y="-6"/>
      <point x="640" y="78"/>
      <point x="640" y="203" type="curve" smooth="yes"/>
      <point x="640" y="308"/>
      <point x="545" y="385"/>
      <point x="407" y="434" type="curve"/>
    </contour>
    <contour>
      <point x="119" y="-156"/>
      <point x="235" y="-325"/>
      <point x="459" y="-325" type="curve" smooth="yes"/>
      <point x="580" y="-325"/>
      <point x="670" y="-254"/>
      <point x="670" y="-131" type="curve" smooth="yes"/>
      <point x="670" y="-70"/>
      <point x="624" y="-16"/>
      <point x="603" y="-16" type="curve" smooth="yes"/>
      <point x="586" y="-16"/>
      <point x="539" y="-76"/>
      <point x="423" y="-76" type="curve" smooth="yes"/>
      <point x="331" y="-76"/>
      <point x="226" y="-34"/>
      <point x="226" y="69" type="curve"/>
      <point x="151" y="85" type="line"/>
    </contour>
  </outline>
</glyph>
<glyph name="gjBA" format="1">
  <advance width="1229"/>
  <unicode hex="0AAC"/>
  <outline>
    <contour>
      <point x="762" y="499"/>
      <point x="730" y="479"/>
      <point x="686" y="479" type="curve"/>
      <point x="532" y="419" type="line"/>
      <point x="605" y="360"/>
      <point x="689" y="327"/>
      <point x="780" y="327" type="curve"/>
      <point x="780" y="557" type="line"/>
    </contour>
    <contour>
      <point x="396" y="372"/>
      <point x="354" y="412"/>
      <point x="354" y="493" type="curve" smooth="yes"/>
      <point x="354" y="647"/>
      <point x="461" y="728"/>
      <point x="577" y="729" type="curve" smooth="yes"/>
      <point x="592" y="729"/>
      <point x="598" y="736"/>
      <point x="598" y="749" type="curve" smooth="yes"/>
      <point x="598" y="790"/>
      <point x="521" y="857"/>
      <point x="375" y="857" type="curve" smooth="yes"/>
      <point x="161" y="857"/>
      <point x="3" y="698"/>
      <point x="3" y="459" type="curve" smooth="yes"/>
      <point x="3" y="271"/>
      <point x="144" y="170"/>
      <point x="323" y="170" type="curve" smooth="yes"/>
      <point x="529" y="170"/>
      <point x="689" y="307"/>
      <point x="689" y="481" type="curve" smooth="yes"/>
      <point x="689" y="583"/>
      <point x="636" y="636"/>
      <point x="566" y="636" type="curve" smooth="yes"/>
      <point x="506" y="636"/>
      <point x="466" y="594"/>
      <point x="466" y="527" type="curve" smooth="yes"/>
      <point x="466" y="474"/>
      <point x="485" y="444"/>
      <point x="521" y="405" type="curve"/>
      <point x="504" y="385"/>
      <point x="477" y="372"/>
      <point x="447" y="372" type="curve" smooth="yes"/>
    </contour>
    <component base="gjmAA" xOffset="661"/>
  </outline>
</glyph>
<glyph name="gjBHA" format="1">
  <advance width="1378"/>
  <unicode hex="0AAD"/>
  <outline>
    <contour>
      <point x="183" y="857"/>
      <point x="-22" y="561"/>
      <point x="-22" y="315" type="curve" smooth="yes"/>
      <point x="-22" y="110"/>
      <point x="135" y="-4"/>
      <point x="377" y="-4" type="curve" smooth="yes"/>
      <point x="610" y="-4"/>
      <point x="734" y="138"/>
      <point x="734" y="250" type="curve" smooth="yes"/>
      <point x="734" y="269"/>
      <point x="728" y="278"/>
      <point x="721" y="278" type="curve" smooth="yes"/>
      <point x="698" y="278"/>
      <point x="668" y="236"/>
      <point x="550" y="236" type="curve" smooth="yes"/>
      <point x="387" y="236"/>
      <point x="274" y="308"/>
      <point x="274" y="450" type="curve" smooth="yes"/>
      <point x="274" y="611"/>
      <point x="395" y="743"/>
      <point x="475" y="743" type="curve" smooth="yes"/>
      <point x="523" y="743"/>
      <point x="511" y="709"/>
      <point x="497" y="665" type="curve" smooth="yes"/>
      <point x="476" y="597" type="line"/>
      <point x="451" y="597" type="line" smooth="yes"/>
      <point x="408" y="597"/>
      <point x="384" y="575"/>
      <point x="377" y="546" type="curve" smooth="yes"/>
      <point x="355" y="451"/>
      <point x="500" y="337"/>
      <point x="628" y="337" type="curve" smooth="yes"/>
      <point x="724" y="337"/>
      <point x="781" y="388"/>
      <point x="822" y="533" type="curve" smooth="yes"/>
      <point x="878" y="732"/>
      <point x="758" y="857"/>
      <point x="555" y="857" type="curve" smooth="yes"/>
    </contour>
    <contour>
      <point x="691" y="597" type="line"/>
      <point x="691" y="475" type="line"/>
      <point x="1033" y="475" type="line"/>
      <point x="1033" y="597" type="line"/>
    </contour>
    <component base="gjmAA" xOffset="810"/>
  </outline>
</glyph>
<glyph name="gjMA" format="1">
  <advance width="1028"/>
  <unicode hex="0AAE"/>
  <outline>
    <contour>
      <point x="295" y="481" type="line"/>
      <point x="295" y="359" type="line"/>
      <point x="637" y="359" type="line"/>
      <point x="637" y="481" type="line"/>
    </contour>
    <contour>
      <point x="63" y="481" type="line" smooth="yes"/>
      <point x="21" y="481"/>
      <point x="-3" y="459"/>
      <point x="-11" y="430" type="curve" smooth="yes"/>
      <point x="-46" y="299"/>
      <point x="97" y="170"/>
      <point x="225" y="170" type="curve" smooth="yes"/>
      <point x="321" y="170"/>
      <point x="375" y="222"/>
      <point x="419" y="366" type="curve" smooth="yes"/>
      <point x="482" y="573" type="line" smooth="yes"/>
      <point x="491" y="604"/>
      <point x="496" y="632"/>
      <point x="496" y="658" type="curve" smooth="yes"/>
      <point x="496" y="786"/>
      <point x="379" y="857"/>
      <point x="264" y="857" type="curve" smooth="yes"/>
      <point x="123" y="857"/>
      <point x="54" y="777"/>
      <point x="54" y="692" type="curve" smooth="yes"/>
      <point x="54" y="674"/>
      <point x="60" y="656"/>
      <point x="71" y="656" type="curve" smooth="yes"/>
      <point x="84" y="656"/>
      <point x="91" y="688"/>
      <point x="121" y="688" type="curve" smooth="yes"/>
      <point x="132" y="688"/>
      <point x="143" y="682"/>
      <point x="143" y="667" type="curve" smooth="yes"/>
      <point x="143" y="664"/>
      <point x="142" y="660"/>
      <point x="141" y="656" type="curve" smooth="yes"/>
      <point x="88" y="481" type="line"/>
    </contour>
    <contour>
      <point x="295" y="481" type="line"/>
      <point x="295" y="359" type="line"/>
      <point x="637" y="359" type="line"/>
      <point x="637" y="481" type="line"/>
    </contour>
    <component base="gjmAA" xOffset="460"/>
  </outline>
</glyph>
<glyph name="gjYA" format="1">
  <advance width="1103"/>
  <unicode hex="0AAF"/>
  <outline>
    <contour>
      <point x="217" y="857"/>
      <point x="209" y="850"/>
      <point x="209" y="839" type="curve" smooth="yes"/>
      <point x="209" y="819"/>
      <point x="240" y="817"/>
      <point x="240" y="780" type="curve" smooth="yes"/>
      <point x="240" y="706"/>
      <point x="24" y="661"/>
      <point x="-3" y="567" type="curve" smooth="yes"/>
      <point x="-46" y="416"/>
      <point x="128" y="170"/>
      <point x="351" y="170" type="curve" smooth="yes"/>
      <point x="486" y="170"/>
      <point x="629" y="280"/>
      <point x="683" y="437" type="curve"/>
      <point x="653" y="552" type="line"/>
      <point x="600" y="393"/>
      <point x="497" y="317"/>
      <point x="414" y="317" type="curve" smooth="yes"/>
      <point x="358" y="317"/>
      <point x="312" y="358"/>
      <point x="312" y="387" type="curve" smooth="yes"/>
      <point x="312" y="415"/>
      <point x="355" y="431"/>
      <point x="417" y="445" type="curve" smooth="yes"/>
      <point x="516" y="468"/>
      <point x="556" y="523"/>
      <point x="556" y="611" type="curve" smooth="yes"/>
      <point x="556" y="757"/>
      <point x="406" y="857"/>
      <point x="250" y="857" type="curve" smooth="yes"/>
    </contour>
    <component base="gjmAA" xOffset="535"/>
  </outline>
</glyph>
<glyph name="gjRA" format="1">
  <advance width="660"/>
  <unicode hex="0AB0"/>
  <outline>
    <contour>
      <point x="236" y="857"/>
      <point x="139" y="733"/>
      <point x="146" y="623" type="curve" smooth="yes"/>
      <point x="147" y="603"/>
      <point x="154" y="590"/>
      <point x="165" y="590" type="curve" smooth="yes"/>
      <point x="178" y="591"/>
      <point x="190" y="613"/>
      <point x="214" y="615" type="curve" smooth="yes"/>
      <point x="235" y="616"/>
      <point x="247" y="602"/>
      <point x="248" y="579" type="curve" smooth="yes"/>
      <point x="251" y="534"/>
      <point x="228" y="500"/>
      <point x="172" y="467" type="curve"/>
      <point x="141" y="503"/>
      <point x="102" y="528"/>
      <point x="53" y="524" type="curve" smooth="yes"/>
      <point x="1" y="521"/>
      <point x="-38" y="474"/>
      <point x="-34" y="418" type="curve" smooth="yes"/>
      <point x="-29" y="343"/>
      <point x="44" y="296"/>
      <point x="159" y="296" type="curve" smooth="yes"/>
      <point x="330" y="296"/>
      <point x="615" y="400"/>
      <point x="615" y="662" type="curve" smooth="yes"/>
      <point x="615" y="785"/>
      <point x="523" y="857"/>
      <point x="403" y="857" type="curve" smooth="yes"/>
    </contour>
    <contour>
      <point x="138" y="382" type="line"/>
      <point x="87" y="188"/>
      <point x="164" y="-4"/>
      <point x="386" y="-4" type="curve" smooth="yes"/>
      <point x="535" y="-4"/>
      <point x="616" y="104"/>
      <point x="616" y="210" type="curve" smooth="yes"/>
      <point x="616" y="297"/>
      <point x="565" y="347"/>
      <point x="540" y="347" type="curve" smooth="yes"/>
      <point x="509" y="347"/>
      <point x="502" y="249"/>
      <point x="396" y="249" type="curve" smooth="yes"/>
      <point x="303" y="249"/>
      <point x="238" y="293"/>
      <point x="205" y="382" type="curve"/>
    </contour>
  </outline>
</glyph>
<glyph name="gjLA" format="1">
  <advance width="1137"/>
  <unicode hex="0AB2"/>
  <outline>
    <contour>
      <point x="414" y="170"/>
      <point x="527" y="264"/>
      <point x="527" y="329" type="curve" smooth="yes"/>
      <point x="527" y="342"/>
      <point x="523" y="346"/>
      <point x="515" y="346" type="curve" smooth="yes"/>
      <point x="503" y="346"/>
      <point x="481" y="336"/>
      <point x="454" y="336" type="curve" smooth="yes"/>
      <point x="399" y="336"/>
      <point x="345" y="376"/>
      <point x="345" y="461" type="curve" smooth="yes"/>
      <point x="345" y="620"/>
      <point x="452" y="724"/>
      <point x="561" y="740" type="curve" smooth="yes"/>
      <point x="589" y="744"/>
      <point x="600" y="746"/>
      <point x="600" y="766" type="curve" smooth="yes"/>
      <point x="600" y="799"/>
      <point x="541" y="857"/>
      <point x="414" y="857" type="curve" smooth="yes"/>
      <point x="171" y="857"/>
      <point x="-8" y="677"/>
      <point x="-8" y="430" type="curve" smooth="yes"/>
      <point x="-8" y="265"/>
      <point x="103" y="170"/>
      <point x="280" y="170" type="curve" smooth="yes"/>
    </contour>
    <contour>
      <point x="1109" y="733" type="line" smooth="yes"/>
      <point x="1114" y="750"/>
      <point x="1117" y="766"/>
      <point x="1117" y="779" type="curve" smooth="yes"/>
      <point x="1117" y="809"/>
      <point x="1104" y="844"/>
      <point x="1016" y="844" type="curve" smooth="yes"/>
      <point x="840" y="844"/>
      <point x="665" y="599"/>
      <point x="574" y="599" type="curve" smooth="yes"/>
      <point x="538" y="599"/>
      <point x="543" y="641"/>
      <point x="518" y="641" type="curve" smooth="yes"/>
      <point x="487" y="641"/>
      <point x="425" y="571"/>
      <point x="425" y="500" type="curve" smooth="yes"/>
      <point x="425" y="438"/>
      <point x="461" y="403"/>
      <point x="516" y="403" type="curve" smooth="yes"/>
      <point x="561" y="403"/>
      <point x="591" y="424"/>
      <point x="673" y="510" type="curve"/>
      <point x="631" y="379" type="line" smooth="yes"/>
      <point x="602" y="287"/>
      <point x="589" y="234"/>
      <point x="589" y="186" type="curve" smooth="yes"/>
      <point x="589" y="85"/>
      <point x="648" y="-4"/>
      <point x="808" y="-4" type="curve" smooth="yes"/>
      <point x="948" y="-4"/>
      <point x="1041" y="98"/>
      <point x="1041" y="184" type="curve" smooth="yes"/>
      <point x="1041" y="202"/>
      <point x="1035" y="220"/>
      <point x="1024" y="220" type="curve" smooth="yes"/>
      <point x="1011" y="220"/>
      <point x="1003" y="187"/>
      <point x="973" y="187" type="curve" smooth="yes"/>
      <point x="955" y="187"/>
      <point x="947" y="203"/>
      <point x="955" y="229" type="curve" smooth="yes"/>
    </contour>
  </outline>
</glyph>
<glyph name="gjLLA" format="1">
  <advance width="1287"/>
  <unicode hex="0AB3"/>
  <outline>
    <contour>
      <point x="134" y="857"/>
      <point x="-5" y="700"/>
      <point x="-5" y="477" type="curve" smooth="yes"/>
      <point x="-5" y="270"/>
      <point x="148" y="170"/>
      <point x="315" y="170" type="curve" smooth="yes"/>
      <point x="459" y="170"/>
      <point x="543" y="235"/>
      <point x="609" y="374" type="curve" smooth="yes"/>
      <point x="698" y="562" type="line" smooth="yes"/>
      <point x="730" y="630"/>
      <point x="756" y="646"/>
      <point x="787" y="646" type="curve" smooth="yes"/>
      <point x="830" y="646"/>
      <point x="856" y="609"/>
      <point x="829" y="527" type="curve" smooth="yes"/>
      <point x="781" y="379" type="line" smooth="yes"/>
      <point x="751" y="286"/>
      <point x="739" y="234"/>
      <point x="739" y="186" type="curve" smooth="yes"/>
      <point x="739" y="85"/>
      <point x="798" y="-4"/>
      <point x="958" y="-4" type="curve" smooth="yes"/>
      <point x="1098" y="-4"/>
      <point x="1191" y="98"/>
      <point x="1191" y="184" type="curve" smooth="yes"/>
      <point x="1191" y="202"/>
      <point x="1185" y="220"/>
      <point x="1174" y="220" type="curve" smooth="yes"/>
      <point x="1161" y="220"/>
      <point x="1153" y="187"/>
      <point x="1123" y="187" type="curve" smooth="yes"/>
      <point x="1105" y="187"/>
      <point x="1097" y="202"/>
      <point x="1105" y="229" type="curve" smooth="yes"/>
      <point x="1177" y="476" type="line" smooth="yes"/>
      <point x="1247" y="716"/>
      <point x="1099" y="844"/>
      <point x="908" y="844" type="curve" smooth="yes"/>
      <point x="764" y="844"/>
      <point x="663" y="773"/>
      <point x="593" y="626" type="curve" smooth="yes"/>
      <point x="519" y="471" type="line" smooth="yes"/>
      <point x="484" y="398"/>
      <point x="454" y="368"/>
      <point x="415" y="368" type="curve" smooth="yes"/>
      <point x="372" y="368"/>
      <point x="343" y="399"/>
      <point x="343" y="462" type="curve" smooth="yes"/>
      <point x="343" y="586"/>
      <point x="407" y="693"/>
      <point x="531" y="701" type="curve" smooth="yes"/>
      <point x="561" y="703"/>
      <point x="572" y="711"/>
      <point x="572" y="732" type="curve" smooth="yes"/>
      <point x="572" y="772"/>
      <point x="497" y="857"/>
      <point x="351" y="857" type="curve" smooth="yes"/>
    </contour>
  </outline>
</glyph>
<glyph name="gjVA" format="1">
  <advance width="1018"/>
  <unicode hex="0AB5"/>
  <outline>
    <contour>
      <point x="151" y="857"/>
      <point x="-1" y="685"/>
      <point x="-1" y="444" type="curve" smooth="yes"/>
      <point x="-1" y="276"/>
      <point x="109" y="170"/>
      <point x="270" y="170" type="curve" smooth="yes"/>
      <point x="430" y="170"/>
      <point x="546" y="303"/>
      <point x="618" y="485" type="curve"/>
      <point x="558" y="520" type="line"/>
      <point x="524" y="411"/>
      <point x="478" y="368"/>
      <point x="428" y="368" type="curve" smooth="yes"/>
      <point x="384" y="368"/>
      <point x="350" y="393"/>
      <point x="350" y="469" type="curve" smooth="yes"/>
      <point x="350" y="608"/>
      <point x="431" y="701"/>
      <point x="549" y="701" type="curve" smooth="yes"/>
      <point x="574" y="701"/>
      <point x="582" y="707"/>
      <point x="582" y="727" type="curve" smooth="yes"/>
      <point x="582" y="771"/>
      <point x="526" y="857"/>
      <point x="367" y="857" type="curve" smooth="yes"/>
    </contour>
    <component base="gjmAA" xOffset="451"/>
  </outline>
</glyph>
<glyph name="gjSHA" format="1">
  <advance width="1267"/>
  <unicode hex="0AB6"/>
  <outline>
    <contour>
      <point x="187" y="191" type="line"/>
      <point x="321" y="-127"/>
      <point x="557" y="-274"/>
      <point x="857" y="-274" type="curve" smooth="yes"/>
      <point x="1097" y="-274"/>
      <point x="1220" y="-140"/>
      <point x="1220" y="14" type="curve" smooth="yes"/>
      <point x="1220" y="68"/>
      <point x="1201" y="108"/>
      <point x="1187" y="108" type="curve" smooth="yes"/>
      <point x="1161" y="108"/>
      <point x="1134" y="19"/>
      <point x="884" y="19" type="curve" smooth="yes"/>
      <point x="644" y="19"/>
      <point x="435" y="106"/>
      <point x="278" y="262" type="curve"/>
    </contour>
    <contour>
      <point x="241" y="850"/>
      <point x="142" y="742"/>
      <point x="131" y="626" type="curve" smooth="yes"/>
      <point x="122" y="530"/>
      <point x="183" y="459"/>
      <point x="273" y="413" type="curve"/>
      <point x="332" y="475" type="line"/>
      <point x="289" y="492"/>
      <point x="254" y="524"/>
      <point x="258" y="574" type="curve" smooth="yes"/>
      <point x="261" y="611"/>
      <point x="284" y="628"/>
      <point x="307" y="628" type="curve" smooth="yes"/>
      <point x="334" y="628"/>
      <point x="352" y="607"/>
      <point x="348" y="561" type="curve" smooth="yes"/>
      <point x="340" y="470"/>
      <point x="247" y="416"/>
      <point x="170" y="383" type="curve"/>
      <point x="142" y="419"/>
      <point x="106" y="444"/>
      <point x="56" y="440" type="curve" smooth="yes"/>
      <point x="4" y="437"/>
      <point x="-35" y="396"/>
      <point x="-40" y="338" type="curve" smooth="yes"/>
      <point x="-48" y="241"/>
      <point x="68" y="139"/>
      <point x="198" y="139" type="curve" smooth="yes"/>
      <point x="401" y="139"/>
      <point x="696" y="350"/>
      <point x="717" y="584" type="curve" smooth="yes"/>
      <point x="730" y="732"/>
      <point x="607" y="850"/>
      <point x="429" y="850" type="curve" smooth="yes"/>
    </contour>
    <contour>
      <point x="810" y="543"/>
      <point x="764" y="515"/>
      <point x="657" y="533" type="curve"/>
      <point x="575" y="488" type="line"/>
      <point x="644" y="413"/>
      <point x="726" y="376"/>
      <point x="827" y="376" type="curve"/>
      <point x="842" y="644" type="line"/>
    </contour>
    <contour>
      <point x="1048" y="844"/>
      <point x="898" y="808"/>
      <point x="872" y="733" type="curve" smooth="yes"/>
      <point x="796" y="510" type="line" smooth="yes"/>
      <point x="764" y="419"/>
      <point x="748" y="365"/>
      <point x="747" y="317" type="curve" smooth="yes"/>
      <point x="743" y="216"/>
      <point x="799" y="127"/>
      <point x="959" y="127" type="curve" smooth="yes"/>
      <point x="1099" y="127"/>
      <point x="1196" y="229"/>
      <point x="1199" y="315" type="curve" smooth="yes"/>
      <point x="1199" y="333"/>
      <point x="1194" y="351"/>
      <point x="1183" y="351" type="curve" smooth="yes"/>
      <point x="1170" y="351"/>
      <point x="1161" y="318"/>
      <point x="1131" y="318" type="curve" smooth="yes"/>
      <point x="1113" y="318"/>
      <point x="1106" y="334"/>
      <point x="1114" y="360" type="curve" smooth="yes"/>
      <point x="1238" y="733" type="line" smooth="yes"/>
      <point x="1244" y="750"/>
      <point x="1247" y="766"/>
      <point x="1248" y="779" type="curve" smooth="yes"/>
      <point x="1249" y="809"/>
      <point x="1237" y="844"/>
      <point x="1149" y="844" type="curve" smooth="yes"/>
    </contour>
  </outline>
</glyph>
<glyph name="gjSSA" format="1">
  <advance width="1049"/>
  <unicode hex="0AB7"/>
  <outline>
    <contour>
      <point x="408" y="170"/>
      <point x="497" y="235"/>
      <point x="629" y="390" type="curve"/>
      <point x="481" y="715" type="line" smooth="yes"/>
      <point x="440" y="806"/>
      <point x="372" y="857"/>
      <point x="271" y="857" type="curve" smooth="yes"/>
      <point x="110" y="857"/>
      <point x="28" y="755"/>
      <point x="28" y="670" type="curve" smooth="yes"/>
      <point x="28" y="652"/>
      <point x="34" y="634"/>
      <point x="45" y="634" type="curve" smooth="yes"/>
      <point x="58" y="634"/>
      <point x="65" y="666"/>
      <point x="95" y="666" type="curve" smooth="yes"/>
      <point x="108" y="666"/>
      <point x="117" y="658"/>
      <point x="117" y="642" type="curve" smooth="yes"/>
      <point x="117" y="637"/>
      <point x="115" y="631"/>
      <point x="113" y="624" type="curve"/>
      <point x="74" y="506" type="line" smooth="yes"/>
      <point x="59" y="460"/>
      <point x="48" y="413"/>
      <point x="48" y="372" type="curve" smooth="yes"/>
      <point x="48" y="252"/>
      <point x="120" y="170"/>
      <point x="275" y="170" type="curve" smooth="yes"/>
    </contour>
    <contour>
      <point x="425" y="361"/>
      <point x="410" y="382"/>
      <point x="410" y="408" type="curve" smooth="yes"/>
      <point x="410" y="422"/>
      <point x="414" y="439"/>
      <point x="420" y="454" type="curve" smooth="yes"/>
      <point x="459" y="555" type="line"/>
      <point x="530" y="396" type="line"/>
      <point x="514" y="377"/>
      <point x="490" y="361"/>
      <point x="465" y="361" type="curve" smooth="yes"/>
    </contour>
    <component base="gjmAA" xOffset="481"/>
  </outline>
</glyph>
<glyph name="gjSA" format="1">
  <advance width="1147"/>
  <unicode hex="0AB8"/>
  <outline>
    <contour>
      <point x="157" y="345" type="line"/>
      <point x="192" y="-98"/>
      <point x="465" y="-274"/>
      <point x="765" y="-274" type="curve" smooth="yes"/>
      <point x="995" y="-274"/>
      <point x="1106" y="-140"/>
      <point x="1106" y="14" type="curve" smooth="yes"/>
      <point x="1106" y="67"/>
      <point x="1087" y="108"/>
      <point x="1073" y="108" type="curve" smooth="yes"/>
      <point x="1048" y="108"/>
      <point x="1023" y="19"/>
      <point x="829" y="19" type="curve" smooth="yes"/>
      <point x="575" y="19"/>
      <point x="357" y="157"/>
      <point x="237" y="345" type="curve"/>
    </contour>
    <contour>
      <point x="227" y="857"/>
      <point x="119" y="730"/>
      <point x="126" y="620" type="curve" smooth="yes"/>
      <point x="127" y="600"/>
      <point x="134" y="587"/>
      <point x="145" y="587" type="curve" smooth="yes"/>
      <point x="158" y="588"/>
      <point x="170" y="610"/>
      <point x="194" y="612" type="curve" smooth="yes"/>
      <point x="215" y="613"/>
      <point x="228" y="599"/>
      <point x="228" y="576" type="curve" smooth="yes"/>
      <point x="228" y="534"/>
      <point x="208" y="497"/>
      <point x="152" y="464" type="curve"/>
      <point x="121" y="500"/>
      <point x="82" y="525"/>
      <point x="33" y="521" type="curve" smooth="yes"/>
      <point x="-19" y="518"/>
      <point x="-54" y="477"/>
      <point x="-54" y="419" type="curve" smooth="yes"/>
      <point x="-54" y="322"/>
      <point x="73" y="218"/>
      <point x="208" y="218" type="curve" smooth="yes"/>
      <point x="379" y="218"/>
      <point x="595" y="424"/>
      <point x="595" y="659" type="curve" smooth="yes"/>
      <point x="595" y="788"/>
      <point x="504" y="857"/>
      <point x="381" y="857" type="curve" smooth="yes"/>
    </contour>
    <contour>
      <point x="696" y="543"/>
      <point x="650" y="515"/>
      <point x="543" y="533" type="curve"/>
      <point x="461" y="488" type="line"/>
      <point x="530" y="413"/>
      <point x="612" y="376"/>
      <point x="713" y="376" type="curve"/>
      <point x="728" y="644" type="line"/>
    </contour>
    <contour>
      <point x="934" y="844"/>
      <point x="784" y="808"/>
      <point x="758" y="733" type="curve" smooth="yes"/>
      <point x="682" y="510" type="line" smooth="yes"/>
      <point x="650" y="419"/>
      <point x="634" y="365"/>
      <point x="633" y="317" type="curve" smooth="yes"/>
      <point x="629" y="216"/>
      <point x="685" y="127"/>
      <point x="845" y="127" type="curve" smooth="yes"/>
      <point x="985" y="127"/>
      <point x="1082" y="229"/>
      <point x="1085" y="315" type="curve" smooth="yes"/>
      <point x="1085" y="333"/>
      <point x="1080" y="351"/>
      <point x="1069" y="351" type="curve" smooth="yes"/>
      <point x="1056" y="351"/>
      <point x="1047" y="318"/>
      <point x="1017" y="318" type="curve" smooth="yes"/>
      <point x="999" y="318"/>
      <point x="992" y="334"/>
      <point x="1000" y="360" type="curve" smooth="yes"/>
      <point x="1124" y="733" type="line" smooth="yes"/>
      <point x="1130" y="750"/>
      <point x="1133" y="766"/>
      <point x="1134" y="779" type="curve" smooth="yes"/>
      <point x="1135" y="809"/>
      <point x="1123" y="844"/>
      <point x="1035" y="844" type="curve" smooth="yes"/>
    </contour>
  </outline>
</glyph>
<glyph name="gjHA" format="1">
  <advance width="1054"/>
  <unicode hex="0AB9"/>
  <outline>
    <contour>
      <point x="730" y="857"/>
      <point x="650" y="857" type="curve" smooth="yes"/>
      <point x="625" y="857"/>
      <point x="605" y="848"/>
      <point x="568" y="819" type="curve" smooth="yes"/>
      <point x="371" y="667" type="line" smooth="yes"/>
      <point x="352" y="653"/>
      <point x="341" y="642"/>
      <point x="341" y="628" type="curve" smooth="yes"/>
      <point x="341" y="593"/>
      <point x="437" y="534"/>
      <point x="437" y="470" type="curve" smooth="yes"/>
      <point x="437" y="426"/>
      <point x="403" y="402"/>
      <point x="363" y="402" type="curve" smooth="yes"/>
      <point x="185" y="402"/>
      <point x="279" y="692"/>
      <point x="209" y="692" type="curve" smooth="yes"/>
      <point x="145" y="692"/>
      <point x="10" y="474"/>
      <point x="10" y="206" type="curve" smooth="yes"/>
      <point x="10" y="-80"/>
      <point x="235" y="-272"/>
      <point x="545" y="-272" type="curve" smooth="yes"/>
      <point x="859" y="-272"/>
      <point x="994" y="-75"/>
      <point x="994" y="136" type="curve" smooth="yes"/>
      <point x="994" y="291"/>
      <point x="899" y="404"/>
      <point x="833" y="404" type="curve" smooth="yes"/>
      <point x="817" y="404"/>
      <point x="809" y="398"/>
      <point x="807" y="385" type="curve"/>
      <point x="805" y="367"/>
      <point x="812" y="340"/>
      <point x="812" y="298" type="curve" smooth="yes"/>
      <point x="812" y="138"/>
      <point x="725" y="25"/>
      <point x="503" y="25" type="curve" smooth="yes"/>
      <point x="262" y="25"/>
      <point x="147" y="125"/>
      <point x="147" y="285" type="curve" smooth="yes"/>
      <point x="147" y="321"/>
      <point x="154" y="343"/>
      <point x="165" y="343" type="curve" smooth="yes"/>
      <point x="195" y="343"/>
      <point x="228" y="140"/>
      <point x="495" y="140" type="curve" smooth="yes"/>
      <point x="637" y="140"/>
      <point x="716" y="221"/>
      <point x="716" y="326" type="curve" smooth="yes"/>
      <point x="716" y="400"/>
      <point x="678" y="451"/>
      <point x="633" y="487" type="curve"/>
      <point x="824" y="547" type="line" smooth="yes"/>
      <point x="894" y="569"/>
      <point x="916" y="586"/>
      <point x="916" y="624" type="curve" smooth="yes"/>
      <point x="916" y="717"/>
    </contour>
  </outline>
</glyph>
<glyph name="gjmAA" format="1">
  <advance width="568"/>
  <unicode hex="0ABE"/>
  <outline>
    <contour>
      <point x="346" y="844"/>
      <point x="198" y="809"/>
      <point x="174" y="733" type="curve" smooth="yes"/>
      <point x="62" y="379" type="line" smooth="yes"/>
      <point x="33" y="287"/>
      <point x="20" y="234"/>
      <point x="20" y="186" type="curve" smooth="yes"/>
      <point x="20" y="85"/>
      <point x="79" y="-4"/>
      <point x="239" y="-4" type="curve" smooth="yes"/>
      <point x="379" y="-4"/>
      <point x="472" y="98"/>
      <point x="472" y="184" type="curve" smooth="yes"/>
      <point x="472" y="202"/>
      <point x="466" y="220"/>
      <point x="455" y="220" type="curve" smooth="yes"/>
      <point x="442" y="220"/>
      <point x="434" y="187"/>
      <point x="404" y="187" type="curve" smooth="yes"/>
      <point x="386" y="187"/>
      <point x="378" y="203"/>
      <point x="386" y="229" type="curve" smooth="yes"/>
      <point x="540" y="733" type="line" smooth="yes"/>
      <point x="545" y="750"/>
      <point x="548" y="766"/>
      <point x="548" y="779" type="curve" smooth="yes"/>
      <point x="548" y="809"/>
      <point x="535" y="844"/>
      <point x="447" y="844" type="curve" smooth="yes"/>
    </contour>
  </outline>
</glyph>
<glyph name="gjmI" format="1">
  <advance width="600"/>
  <unicode hex="0ABF"/>
  <outline>
    <contour>
      <point x="469" y="1165"/>
      <point x="263" y="1025"/>
      <point x="191" y="795" type="curve" smooth="yes"/>
      <point x="62" y="379" type="line" smooth="yes"/>
      <point x="32" y="287"/>
      <point x="20" y="234"/>
      <point x="20" y="186" type="curve" smooth="yes"/>
      <point x="20" y="85"/>
      <point x="79" y="-4"/>
      <point x="239" y="-4" type="curve" smooth="yes"/>
      <point x="379" y="-4"/>
      <point x="472" y="98"/>
      <point x="472" y="184" type="curve" smooth="yes"/>
      <point x="472" y="202"/>
      <point x="466" y="220"/>
      <point x="455" y="220" type="curve" smooth="yes"/>
      <point x="442" y="220"/>
      <point x="434" y="187"/>
      <point x="404" y="187" type="curve" smooth="yes"/>
      <point x="386" y="187"/>
      <point x="378" y="203"/>
      <point x="386" y="229" type="curve" smooth="yes"/>
      <point x="574" y="838" type="line" smooth="yes"/>
      <point x="619" y="984"/>
      <point x="701" y="1020"/>
      <point x="792" y="1020" type="curve" smooth="yes"/>
      <point x="870" y="1020"/>
      <point x="905" y="944"/>
      <point x="905" y="867" type="curve" smooth="yes"/>
      <point x="905" y="838"/>
      <point x="869" y="820"/>
      <point x="855" y="820" type="curve" smooth="yes"/>
      <point x="823" y="820"/>
      <point x="836" y="853"/>
      <point x="822" y="853" type="curve" smooth="yes"/>
      <point x="812" y="853"/>
      <point x="795" y="848"/>
      <point x="791" y="829" type="curve" smooth="yes"/>
      <point x="757" y="681"/>
      <point x="929" y="647"/>
      <point x="1059" y="647" type="curve" smooth="yes"/>
      <point x="1186" y="647"/>
      <point x="1269" y="729"/>
      <point x="1269" y="826" type="curve" smooth="yes"/>
      <point x="1269" y="998"/>
      <point x="1074" y="1165"/>
      <point x="756" y="1165" type="curve" smooth="yes"/>
    </contour>
  </outline>
</glyph>
<glyph name="gjmII" format="1">
  <advance width="568"/>
  <unicode hex="0AC0"/>
  <outline>
    <contour>
      <point x="-222" y="1165"/>
      <point x="-390" y="1050"/>
      <point x="-390" y="905" type="curve" smooth="yes"/>
      <point x="-390" y="823"/>
      <point x="-319" y="745"/>
      <point x="-192" y="745" type="curve" smooth="yes"/>
      <point x="-39" y="745"/>
      <point x="68" y="811"/>
      <point x="68" y="919" type="curve" smooth="yes"/>
      <point x="68" y="937"/>
      <point x="62" y="943"/>
      <point x="52" y="943" type="curve" smooth="yes"/>
      <point x="38" y="943"/>
      <point x="31" y="918"/>
      <point x="-1" y="918" type="curve" smooth="yes"/>
      <point x="-15" y="918"/>
      <point x="-22" y="936"/>
      <point x="-22" y="965" type="curve" smooth="yes"/>
      <point x="-22" y="1006"/>
      <point x="20" y="1057"/>
      <point x="88" y="1057" type="curve" smooth="yes"/>
      <point x="182" y="1057"/>
      <point x="243" y="970"/>
      <point x="198" y="823" type="curve" smooth="yes"/>
      <point x="62" y="379" type="line" smooth="yes"/>
      <point x="34" y="287"/>
      <point x="20" y="234"/>
      <point x="20" y="186" type="curve" smooth="yes"/>
      <point x="20" y="85"/>
      <point x="79" y="-4"/>
      <point x="239" y="-4" type="curve" smooth="yes"/>
      <point x="379" y="-4"/>
      <point x="472" y="98"/>
      <point x="472" y="184" type="curve" smooth="yes"/>
      <point x="472" y="202"/>
      <point x="466" y="220"/>
      <point x="455" y="220" type="curve" smooth="yes"/>
      <point x="442" y="220"/>
      <point x="434" y="187"/>
      <point x="404" y="187" type="curve" smooth="yes"/>
      <point x="386" y="187"/>
      <point x="378" y="203"/>
      <point x="386" y="229" type="curve" smooth="yes"/>
      <point x="562" y="805" type="line" smooth="yes"/>
      <point x="612" y="967"/>
      <point x="504" y="1165"/>
      <point x="76" y="1165" type="curve" smooth="yes"/>
    </contour>
  </outline>
</glyph>
<glyph name="gjmU" format="1">
  <advance width="0"/>
  <unicode hex="0AC1"/>
  <outline>
    <contour>
      <point x="-561" y="144"/>
      <point x="-652" y="69"/>
      <point x="-652" y="-39" type="curve" smooth="yes"/>
      <point x="-652" y="-59"/>
      <point x="-645" y="-70"/>
      <point x="-633" y="-70" type="curve" smooth="yes"/>
      <point x="-601" y="-70"/>
      <point x="-583" y="-16"/>
      <point x="-545" y="-16" type="curve" smooth="yes"/>
      <point x="-524" y="-16"/>
      <point x="-503" y="-36"/>
      <point x="-503" y="-71" type="curve" smooth="yes"/>
      <point x="-503" y="-129"/>
      <point x="-545" y="-162"/>
      <point x="-598" y="-162" type="curve" smooth="yes"/>
      <point x="-686" y="-162"/>
      <point x="-748" y="-80"/>
      <point x="-782" y="-80" type="curve" smooth="yes"/>
      <point x="-798" y="-80"/>
      <point x="-806" y="-87"/>
      <point x="-806" y="-108" type="curve" smooth="yes"/>
      <point x="-806" y="-197"/>
      <point x="-667" y="-312"/>
      <point x="-472" y="-312" type="curve" smooth="yes"/>
      <point x="-293" y="-312"/>
      <point x="-177" y="-209"/>
      <point x="-177" y="-79" type="curve" smooth="yes"/>
      <point x="-177" y="51"/>
      <point x="-311" y="144"/>
      <point x="-436" y="144" type="curve" smooth="yes"/>
    </contour>
  </outline>
</glyph>
<glyph name="gjmUU" format="1">
  <advance width="0"/>
  <unicode hex="0AC2"/>
  <outline>
    <contour>
      <point x="-528" y="150"/>
      <point x="-639" y="60"/>
      <point x="-639" y="-80" type="curve" smooth="yes"/>
      <point x="-639" y="-220"/>
      <point x="-516" y="-305"/>
      <point x="-376" y="-305" type="curve" smooth="yes"/>
      <point x="-246" y="-305"/>
      <point x="-174" y="-219"/>
      <point x="-174" y="-149" type="curve" smooth="yes"/>
      <point x="-174" y="-132"/>
      <point x="-182" y="-123"/>
      <point x="-194" y="-123" type="curve" smooth="yes"/>
      <point x="-222" y="-123"/>
      <point x="-240" y="-161"/>
      <point x="-279" y="-161" type="curve" smooth="yes"/>
      <point x="-304" y="-161"/>
      <point x="-317" y="-139"/>
      <point x="-317" y="-113" type="curve" smooth="yes"/>
      <point x="-317" y="-72"/>
      <point x="-288" y="-25"/>
      <point x="-227" y="-25" type="curve" smooth="yes"/>
      <point x="-125" y="-25"/>
      <point x="-75" y="-140"/>
      <point x="-32" y="-140" type="curve" smooth="yes"/>
      <point x="-17" y="-140"/>
      <point x="-9" y="-123"/>
      <point x="-9" y="-103" type="curve" smooth="yes"/>
      <point x="-9" y="-1"/>
      <point x="-159" y="150"/>
      <point x="-376" y="150" type="curve" smooth="yes"/>
    </contour>
  </outline>
</glyph>
<glyph name="gjmvR" format="1">
  <advance width="0"/>
  <unicode hex="0AC3"/>
  <outline>
    <contour>
      <point x="-552" y="60"/>
      <point x="-639" y="-5"/>
      <point x="-639" y="-114" type="curve" smooth="yes"/>
      <point x="-639" y="-217"/>
      <point x="-556" y="-305"/>
      <point x="-413" y="-305" type="curve" smooth="yes"/>
      <point x="-255" y="-305"/>
      <point x="-127" y="-198"/>
      <point x="-127" y="-61" type="curve" smooth="yes"/>
      <point x="-127" y="-50"/>
      <point x="-130" y="-39"/>
      <point x="-140" y="-39" type="curve" smooth="yes"/>
      <point x="-178" y="-39"/>
      <point x="-177" y="-101"/>
      <point x="-330" y="-107" type="curve" smooth="yes"/>
      <point x="-381" y="-109"/>
      <point x="-421" y="-87"/>
      <point x="-421" y="-58" type="curve" smooth="yes"/>
      <point x="-421" y="-28"/>
      <point x="-381" y="-4"/>
      <point x="-331" y="-4" type="curve" smooth="yes"/>
      <point x="-320" y="-4"/>
      <point x="-313" y="4"/>
      <point x="-313" y="19" type="curve"/>
      <point x="-428" y="60" type="line"/>
    </contour>
  </outline>
</glyph>
<glyph name="gjmE" format="1">
  <advance width="0"/>
  <unicode hex="0AC7"/>
  <outline>
    <contour>
      <point x="-481" y="1177"/>
      <point x="-522" y="1140"/>
      <point x="-522" y="1080" type="curve" smooth="yes"/>
      <point x="-522" y="969"/>
      <point x="-396" y="877"/>
      <point x="-109" y="877" type="curve" smooth="yes"/>
      <point x="-48" y="877"/>
      <point x="-26" y="890"/>
      <point x="-26" y="907" type="curve" smooth="yes"/>
      <point x="-26" y="914"/>
      <point x="-29" y="920"/>
      <point x="-37" y="926" type="curve" smooth="yes"/>
      <point x="-316" y="1156"/>
      <point x="-356" y="1177"/>
      <point x="-425" y="1177" type="curve" smooth="yes"/>
    </contour>
  </outline>
</glyph>
<glyph name="gjmAI" format="1">
  <advance width="0"/>
  <unicode hex="0AC8"/>
  <outline>
    <contour>
      <point x="-204" y="1299"/>
      <point x="-239" y="1259"/>
      <point x="-239" y="1188" type="curve" smooth="yes"/>
      <point x="-239" y="1123"/>
      <point x="-201" y="1052"/>
      <point x="-122" y="966" type="curve"/>
      <point x="-136" y="992" type="line"/>
      <point x="-216" y="1060" type="line" smooth="yes"/>
      <point x="-340" y="1165"/>
      <point x="-378" y="1177"/>
      <point x="-430" y="1177" type="curve" smooth="yes"/>
      <point x="-486" y="1177"/>
      <point x="-527" y="1140"/>
      <point x="-527" y="1080" type="curve" smooth="yes"/>
      <point x="-527" y="969"/>
      <point x="-401" y="877"/>
      <point x="-114" y="877" type="curve" smooth="yes"/>
      <point x="-47" y="877"/>
      <point x="-25" y="888"/>
      <point x="-25" y="912" type="curve" smooth="yes"/>
      <point x="-25" y="913"/>
      <point x="-24" y="914"/>
      <point x="-60" y="1147" type="curve" smooth="yes"/>
      <point x="-77" y="1256"/>
      <point x="-108" y="1299"/>
      <point x="-159" y="1299" type="curve" smooth="yes"/>
    </contour>
  </outline>
</glyph>
<glyph name="gjVirama" format="1">
  <advance width="0"/>
  <unicode hex="0ACD"/>
  <outline>
    <contour>
      <point x="-293" y="-91"/>
      <point x="-327" y="-135"/>
      <point x="-315" y="-194" type="curve" smooth="yes"/>
      <point x="-294" y="-303"/>
      <point x="-153" y="-369"/>
      <point x="129" y="-314" type="curve" smooth="yes"/>
      <point x="189" y="-302"/>
      <point x="208" y="-285"/>
      <point x="205" y="-269" type="curve" smooth="yes"/>
      <point x="204" y="-262"/>
      <point x="199" y="-257"/>
      <point x="190" y="-252" type="curve" smooth="yes"/>
      <point x="-127" y="-80"/>
      <point x="-171" y="-67"/>
      <point x="-238" y="-80" type="curve" smooth="yes"/>
    </contour>
  </outline>
</glyph>
<glyph name="gjOM" format="1">
  <advance width="1497"/>
  <unicode hex="0AD0"/>
  <outline>
    <contour>
      <point x="874" y="720"/>
      <point x="828" y="660"/>
      <point x="776" y="513" type="curve" smooth="yes"/>
      <point x="737" y="403"/>
      <point x="718" y="386"/>
      <point x="694" y="386" type="curve" smooth="yes"/>
      <point x="678" y="386"/>
      <point x="666" y="395"/>
      <point x="656" y="408" type="curve"/>
      <point x="624" y="337" type="line"/>
      <point x="677" y="195"/>
      <point x="748" y="130"/>
      <point x="846" y="130" type="curve" smooth="yes"/>
      <point x="952" y="130"/>
      <point x="994" y="203"/>
      <point x="1049" y="415" type="curve" smooth="yes"/>
      <point x="1085" y="552"/>
      <point x="1081" y="562"/>
      <point x="1110" y="562" type="curve" smooth="yes"/>
      <point x="1137" y="562"/>
      <point x="1163" y="488"/>
      <point x="1162" y="451" type="curve" smooth="yes"/>
      <point x="1160" y="359"/>
      <point x="1139" y="338"/>
      <point x="1111" y="338" type="curve" smooth="yes"/>
      <point x="1062" y="338"/>
      <point x="1000" y="366"/>
      <point x="964" y="412" type="curve"/>
      <point x="922" y="376" type="line"/>
      <point x="978" y="230"/>
      <point x="1098" y="163"/>
      <point x="1214" y="163" type="curve" smooth="yes"/>
      <point x="1338" y="163"/>
      <point x="1433" y="256"/>
      <point x="1436" y="385" type="curve" smooth="yes"/>
      <point x="1441" y="579"/>
      <point x="1270" y="720"/>
      <point x="1065" y="720" type="curve" smooth="yes"/>
    </contour>
    <component base="gjThree"/>
    <component base="gjCandrabindu" xOffset="992" yOffset="-101"/>
  </outline>
</glyph>
<glyph name="gjvRR" format="1">
  <advance width="1491"/>
  <unicode hex="0AE0"/>
  <outline>
    <contour>
      <point x="181" y="857"/>
      <point x="65" y="785"/>
      <point x="65" y="684" type="curve" smooth="yes"/>
      <point x="65" y="601"/>
      <point x="140" y="542"/>
      <point x="170" y="542" type="curve" smooth="yes"/>
      <point x="215" y="542"/>
      <point x="255" y="593"/>
      <point x="323" y="593" type="curve" smooth="yes"/>
      <point x="375" y="593"/>
      <point x="424" y="556"/>
      <point x="469" y="495" type="curve"/>
      <point x="257" y="394"/>
      <point x="0" y="506"/>
      <point x="0" y="382" type="curve" smooth="yes"/>
      <point x="0" y="275"/>
      <point x="129" y="170"/>
      <point x="222" y="170" type="curve" smooth="yes"/>
      <point x="302" y="170"/>
      <point x="365" y="228"/>
      <point x="518" y="427" type="curve"/>
      <point x="553" y="512" type="line"/>
      <point x="513" y="645" type="line" smooth="yes"/>
      <point x="470" y="788"/>
      <point x="397" y="857"/>
      <point x="271" y="857" type="curve" smooth="yes"/>
    </contour>
    <contour>
      <point x="1054" y="476"/>
      <point x="919" y="399"/>
      <point x="919" y="283" type="curve" smooth="yes"/>
      <point x="919" y="193"/>
      <point x="997" y="124"/>
      <point x="1134" y="124" type="curve" smooth="yes"/>
      <point x="1291" y="124"/>
      <point x="1389" y="228"/>
      <point x="1389" y="344" type="curve" smooth="yes"/>
      <point x="1389" y="360"/>
      <point x="1384" y="370"/>
      <point x="1376" y="370" type="curve" smooth="yes"/>
      <point x="1352" y="370"/>
      <point x="1295" y="322"/>
      <point x="1212" y="322" type="curve" smooth="yes"/>
      <point x="1158" y="322"/>
      <point x="1125" y="341"/>
      <point x="1125" y="370" type="curve" smooth="yes"/>
      <point x="1125" y="399"/>
      <point x="1148" y="415"/>
      <point x="1198" y="415" type="curve"/>
      <point x="1178" y="476" type="line"/>
    </contour>
    <contour>
      <point x="1084" y="857"/>
      <point x="988" y="773"/>
      <point x="988" y="653" type="curve" smooth="yes"/>
      <point x="988" y="594"/>
      <point x="1028" y="538"/>
      <point x="1074" y="516" type="curve"/>
      <point x="1140" y="546" type="line"/>
      <point x="1124" y="572"/>
      <point x="1117" y="600"/>
      <point x="1124" y="627" type="curve" smooth="yes"/>
      <point x="1130" y="652"/>
      <point x="1146" y="671"/>
      <point x="1172" y="671" type="curve" smooth="yes"/>
      <point x="1198" y="671"/>
      <point x="1215" y="653"/>
      <point x="1205" y="614" type="curve" smooth="yes"/>
      <point x="1187" y="548"/>
      <point x="1088" y="508"/>
      <point x="851" y="558" type="curve"/>
      <point x="807" y="451" type="line"/>
      <point x="1378" y="342"/>
      <point x="1548" y="496"/>
      <point x="1548" y="638" type="curve" smooth="yes"/>
      <point x="1548" y="762"/>
      <point x="1412" y="857"/>
      <point x="1252" y="857" type="curve" smooth="yes"/>
    </contour>
    <component base="gjmAA" xOffset="411"/>
  </outline>
</glyph>
<glyph name="gjZero" format="1">
  <advance width="722"/>
  <unicode hex="0AE6"/>
  <outline>
    <contour>
      <point x="206" y="723"/>
      <point x="67" y="566"/>
      <point x="67" y="394" type="curve" smooth="yes"/>
      <point x="67" y="218"/>
      <point x="199" y="110"/>
      <point x="374" y="110" type="curve"/>
      <point x="599" y="110"/>
      <point x="738" y="267"/>
      <point x="738" y="439" type="curve" smooth="yes"/>
      <point x="738" y="615"/>
      <point x="606" y="723"/>
      <point x="431" y="723" type="curve"/>
    </contour>
    <contour>
      <point x="478" y="575"/>
      <point x="482" y="543"/>
      <point x="448" y="411" type="curve" smooth="yes"/>
      <point x="414" y="280"/>
      <point x="392" y="248"/>
      <point x="357" y="248" type="curve" smooth="yes"/>
      <point x="322" y="248"/>
      <point x="318" y="280"/>
      <point x="352" y="411" type="curve" smooth="yes"/>
      <point x="386" y="543"/>
      <point x="408" y="575"/>
      <point x="443" y="575" type="curve" smooth="yes"/>
    </contour>
  </outline>
</glyph>
<glyph name="gjOne" format="1">
  <advance width="634"/>
  <unicode hex="0AE7"/>
  <outline>
    <contour>
      <point x="177" y="853"/>
      <point x="50" y="723"/>
      <point x="50" y="589" type="curve" smooth="yes"/>
      <point x="50" y="511"/>
      <point x="113" y="459"/>
      <point x="210" y="459" type="curve" smooth="yes"/>
      <point x="233" y="459"/>
      <point x="250" y="461"/>
      <point x="272" y="465" type="curve"/>
      <point x="217" y="489" type="line"/>
      <point x="182" y="379" type="line" smooth="yes"/>
      <point x="153" y="287"/>
      <point x="140" y="234"/>
      <point x="140" y="186" type="curve" smooth="yes"/>
      <point x="140" y="85"/>
      <point x="199" y="-4"/>
      <point x="359" y="-4" type="curve" smooth="yes"/>
      <point x="499" y="-4"/>
      <point x="592" y="98"/>
      <point x="592" y="184" type="curve" smooth="yes"/>
      <point x="592" y="202"/>
      <point x="586" y="220"/>
      <point x="575" y="220" type="curve" smooth="yes"/>
      <point x="562" y="220"/>
      <point x="554" y="187"/>
      <point x="524" y="187" type="curve" smooth="yes"/>
      <point x="506" y="187"/>
      <point x="498" y="203"/>
      <point x="506" y="229" type="curve" smooth="yes"/>
      <point x="596" y="525" type="line" smooth="yes"/>
      <point x="648" y="697"/>
      <point x="593" y="853"/>
      <point x="366" y="853" type="curve" smooth="yes"/>
    </contour>
    <contour>
      <point x="278" y="695"/>
      <point x="289" y="669"/>
      <point x="279" y="627" type="curve" smooth="yes"/>
      <point x="267" y="585"/>
      <point x="242" y="558"/>
      <point x="213" y="558" type="curve" smooth="yes"/>
      <point x="184" y="558"/>
      <point x="172" y="585"/>
      <point x="184" y="627" type="curve" smooth="yes"/>
      <point x="194" y="669"/>
      <point x="220" y="695"/>
      <point x="249" y="695" type="curve" smooth="yes"/>
    </contour>
  </outline>
</glyph>
<glyph name="gjThree" format="1">
  <advance width="749"/>
  <unicode hex="0AE9"/>
  <outline>
    <contour>
      <point x="386" y="846"/>
      <point x="272" y="770"/>
      <point x="257" y="632" type="curve" smooth="yes"/>
      <point x="253" y="599"/>
      <point x="262" y="589"/>
      <point x="275" y="589" type="curve" smooth="yes"/>
      <point x="300" y="589"/>
      <point x="303" y="613"/>
      <point x="328" y="613" type="curve" smooth="yes"/>
      <point x="348" y="613"/>
      <point x="359" y="599"/>
      <point x="359" y="579" type="curve" smooth="yes"/>
      <point x="359" y="519"/>
      <point x="267" y="486"/>
      <point x="251" y="452" type="curve" smooth="yes"/>
      <point x="221" y="384"/>
      <point x="389" y="431"/>
      <point x="379" y="340" type="curve" smooth="yes"/>
      <point x="374" y="291"/>
      <point x="338" y="270"/>
      <point x="278" y="270" type="curve" smooth="yes"/>
      <point x="179" y="270"/>
      <point x="118" y="363"/>
      <point x="87" y="363" type="curve" smooth="yes"/>
      <point x="78" y="363"/>
      <point x="66" y="356"/>
      <point x="59" y="332" type="curve" smooth="yes"/>
      <point x="29" y="215"/>
      <point x="145" y="0"/>
      <point x="426" y="0" type="curve" smooth="yes"/>
      <point x="568" y="0"/>
      <point x="679" y="90"/>
      <point x="696" y="232" type="curve" smooth="yes"/>
      <point x="712" y="360"/>
      <point x="645" y="462"/>
      <point x="540" y="512" type="curve"/>
      <point x="516" y="443" type="line"/>
      <point x="673" y="470"/>
      <point x="721" y="554"/>
      <point x="732" y="642" type="curve" smooth="yes"/>
      <point x="744" y="740"/>
      <point x="671" y="846"/>
      <point x="520" y="846" type="curve" smooth="yes"/>
    </contour>
  </outline>
</glyph>
<glyph name="gjFour" format="1">
  <advance width="948"/>
  <unicode hex="0AEA"/>
  <outline>
    <contour>
      <point x="628" y="941"/>
      <point x="554" y="877"/>
      <point x="554" y="833" type="curve" smooth="yes"/>
      <point x="554" y="798"/>
      <point x="614" y="822"/>
      <point x="614" y="773" type="curve" smooth="yes"/>
      <point x="614" y="738"/>
      <point x="577" y="691"/>
      <point x="397" y="551" type="curve" smooth="yes"/>
      <point x="231" y="422"/>
      <point x="189" y="343"/>
      <point x="189" y="250" type="curve" smooth="yes"/>
      <point x="189" y="104"/>
      <point x="308" y="0"/>
      <point x="476" y="0" type="curve" smooth="yes"/>
      <point x="621" y="0"/>
      <point x="724" y="81"/>
      <point x="724" y="196" type="curve" smooth="yes"/>
      <point x="724" y="266"/>
      <point x="676" y="328"/>
      <point x="602" y="353" type="curve"/>
      <point x="715" y="407" type="line" smooth="yes"/>
      <point x="878" y="485"/>
      <point x="968" y="593"/>
      <point x="968" y="711" type="curve" smooth="yes"/>
      <point x="968" y="842"/>
      <point x="874" y="941"/>
      <point x="736" y="941" type="curve" smooth="yes"/>
    </contour>
    <contour>
      <point x="540" y="290"/>
      <point x="552" y="270"/>
      <point x="552" y="243" type="curve" smooth="yes"/>
      <point x="552" y="212"/>
      <point x="528" y="187"/>
      <point x="499" y="187" type="curve" smooth="yes"/>
      <point x="471" y="187"/>
      <point x="452" y="203"/>
      <point x="452" y="229" type="curve" smooth="yes"/>
      <point x="452" y="256"/>
      <point x="472" y="279"/>
      <point x="519" y="307" type="curve"/>
    </contour>
    <contour>
      <point x="452" y="518" type="line"/>
      <point x="300" y="781" type="line" smooth="yes"/>
      <point x="278" y="821"/>
      <point x="255" y="842"/>
      <point x="217" y="844" type="curve" smooth="yes"/>
      <point x="169" y="847"/>
      <point x="111" y="798"/>
      <point x="111" y="700" type="curve" smooth="yes"/>
      <point x="111" y="588"/>
      <point x="194" y="516"/>
      <point x="294" y="496" type="curve" smooth="yes"/>
      <point x="398" y="474" type="line"/>
    </contour>
  </outline>
</glyph>
<glyph name="gjSix" format="1">
  <advance width="875"/>
  <unicode hex="0AEC"/>
  <outline>
    <contour>
      <point x="659" y="889"/>
      <point x="522" y="889" type="curve" smooth="yes"/>
      <point x="444" y="889"/>
      <point x="419" y="880"/>
      <point x="388" y="860" type="curve" smooth="yes"/>
      <point x="372" y="848"/>
      <point x="356" y="833"/>
      <point x="362" y="826" type="curve" smooth="yes"/>
      <point x="370" y="817"/>
      <point x="384" y="832"/>
      <point x="402" y="811" type="curve" smooth="yes"/>
      <point x="409" y="803"/>
      <point x="407" y="791"/>
      <point x="392" y="782" type="curve" smooth="yes"/>
      <point x="386" y="779"/>
      <point x="381" y="776"/>
      <point x="371" y="774" type="curve" smooth="yes"/>
      <point x="274" y="754" type="line" smooth="yes"/>
      <point x="131" y="725"/>
      <point x="53" y="665"/>
      <point x="33" y="569" type="curve" smooth="yes"/>
      <point x="10" y="458"/>
      <point x="150" y="278"/>
      <point x="347" y="290" type="curve"/>
      <point x="484" y="380" type="line"/>
      <point x="408" y="364"/>
      <point x="354" y="393"/>
      <point x="364" y="442" type="curve" smooth="yes"/>
      <point x="381" y="520"/>
      <point x="695" y="505"/>
      <point x="723" y="637" type="curve" smooth="yes"/>
      <point x="742" y="725"/>
    </contour>
    <contour>
      <point x="511" y="20"/>
      <point x="511" y="52" type="curve" smooth="yes"/>
      <point x="511" y="82"/>
      <point x="575" y="120"/>
      <point x="628" y="120" type="curve" smooth="yes"/>
      <point x="669" y="120"/>
      <point x="673" y="101"/>
      <point x="694" y="101" type="curve" smooth="yes"/>
      <point x="716" y="101"/>
      <point x="729" y="201"/>
      <point x="729" y="241" type="curve" smooth="yes"/>
      <point x="729" y="331"/>
      <point x="683" y="406"/>
      <point x="555" y="406" type="curve" smooth="yes"/>
      <point x="426" y="406"/>
      <point x="218" y="305"/>
      <point x="192" y="181" type="curve" smooth="yes"/>
      <point x="162" y="38"/>
      <point x="424" y="31"/>
      <point x="412" y="-25" type="curve" smooth="yes"/>
      <point x="404" y="-60"/>
      <point x="299" y="-92"/>
      <point x="263" y="-87" type="curve" smooth="yes"/>
      <point x="221" y="-81"/>
      <point x="214" y="-169"/>
      <point x="420" y="-169" type="curve" smooth="yes"/>
      <point x="524" y="-169"/>
      <point x="686" y="-117"/>
      <point x="686" y="-51" type="curve" smooth="yes"/>
      <point x="686" y="11"/>
    </contour>
  </outline>
</glyph>
